<?xml version="1.0" encoding="UTF-8"?>
<svg version="1.1" xmlns="http://www.w3.org/2000/svg" width="342" height="322">
<path d="M0 0 C112.86 0 225.72 0 342 0 C342 106.26 342 212.52 342 322 C229.14 322 116.28 322 0 322 C0 215.74 0 109.48 0 0 Z " fill="#ECECEC" transform="translate(0,0)"/>
<path d="M0 0 C9.59285791 5.29090617 14.89827021 11.86162064 18.3046875 22.28125 C20.67373915 31.54450816 18.25323015 40.35646547 13.52734375 48.5546875 C8.12215125 56.14495782 0.2343369 61.3799409 -9 63 C-18.20032859 63.92436582 -26.09030876 62.43888502 -33.73828125 57.08203125 C-40.52229898 51.40355715 -44.22626573 45.32120282 -47 37 C-47.80928281 26.79772985 -47.21637363 18.61640503 -40.9765625 10.3046875 C-30.76645789 -1.64775578 -14.87772015 -8.11233712 0 0 Z " fill="#EFEFEF" transform="translate(89,51)"/>
<path d="M0 0 C1.66611905 -0.042721 3.33382885 -0.04063832 5 0 C5.33 0.33 5.66 0.66 6 1 C6.33 1 6.66 1 7 1 C7 2.98 7 4.96 7 7 C6.34 7 5.68 7 5 7 C5.020625 8.093125 5.04125 9.18625 5.0625 10.3125 C5 14 5 14 4 17 C4.66 17 5.32 17 6 17 C6 16.01 6 15.02 6 14 C6.99 14 7.98 14 9 14 C9 13.34 9 12.68 9 12 C15.18567471 10.83580272 19.62179883 10.41453256 25 14 C25.875 17.4375 25.875 17.4375 26 21 C26.20625 21.7425 26.4125 22.485 26.625 23.25 C27 25 27 25 26 28 C25.34 28 24.68 28 24 28 C24.02320313 28.81984375 24.04640625 29.6396875 24.0703125 30.484375 C24.08835938 31.56203125 24.10640625 32.6396875 24.125 33.75 C24.14820313 34.81734375 24.17140625 35.8846875 24.1953125 36.984375 C24 40 24 40 22 44 C9.13 44 -3.74 44 -17 44 C-17.78207331 40.87170676 -18.29230482 38.05936816 -18.625 34.875 C-18.76808594 33.57175781 -18.76808594 33.57175781 -18.9140625 32.2421875 C-19 30 -19 30 -18 28 C-18.99 28 -19.98 28 -21 28 C-21.02708567 26.39592672 -21.04643483 24.7917215 -21.0625 23.1875 C-21.07410156 22.29417969 -21.08570313 21.40085937 -21.09765625 20.48046875 C-21 18 -21 18 -20 15 C-19.01 15 -18.02 15 -17 15 C-16.67 14.01 -16.34 13.02 -16 12 C-15.34 12.33 -14.68 12.66 -14 13 C-13.67 12.34 -13.34 11.68 -13 11 C-11.58249437 11.11509661 -10.16598831 11.24253658 -8.75 11.375 C-7.56664063 11.47941406 -7.56664063 11.47941406 -6.359375 11.5859375 C-3.85521048 12.02541008 -2.13042844 12.61427885 0 14 C0.96070434 16.88211302 1.10581883 18.69850044 1.0625 21.6875 C1.05347656 22.49574219 1.04445313 23.30398437 1.03515625 24.13671875 C1.02355469 24.75160156 1.01195313 25.36648437 1 26 C2.49975023 20.97471751 1.44479973 16.22399867 0.4375 11.1875 C0 9 0 9 0 6 C-0.3062434 4.66018514 -0.63451555 3.32488113 -1 2 C-0.01 2.33 0.98 2.66 2 3 C2 2.34 2 1.68 2 1 C1.34 0.67 0.68 0.34 0 0 Z " fill="#3A3A3A" transform="translate(72,55)"/>
<path d="M0 0 C10.70723379 -0.64458264 18.4756853 2.82771261 26.9765625 8.953125 C33.32084888 14.61418054 38.340945 24.26034025 39.02734375 32.72265625 C39.44986417 44.53275982 37.36820012 53.34691617 29.69140625 62.7265625 C22.92305579 69.79067282 13.76231848 74.39480603 3.953125 74.64428711 C-7.27665883 74.74247499 -15.27387709 72.76797833 -24.13671875 65.4765625 C-31.99062962 57.56447451 -35.64756393 48.58438695 -35.62109375 37.6015625 C-35.56700558 26.18665641 -32.46015964 17.56562839 -24.24609375 9.3515625 C-16.46029612 3.09426501 -9.69910623 1.05044472 0 0 Z M-23.55859375 15.1640625 C-30.70876397 24.43280168 -32.2895066 32.72842871 -31.24609375 44.3515625 C-28.7487946 54.22406288 -23.32938746 61.40308502 -14.68359375 66.7265625 C-5.71161946 70.96785944 2.96897017 71.87966189 12.44140625 68.7265625 C21.34371681 65.08701388 27.30972805 59.93533349 31.75390625 51.3515625 C35.72483589 41.82133136 35.9085768 33.64448887 32.07421875 24.05859375 C27.59367034 14.8721439 20.85693896 8.9336148 11.50390625 4.9765625 C-2.01645177 2.7231695 -14.02547108 4.67762756 -23.55859375 15.1640625 Z " fill="#131313" transform="translate(73.24609375,43.6484375)"/>
<path d="M0 0 C1.65 0 3.3 0 5 0 C5 58.41 5 116.82 5 177 C3.35 177 1.7 177 0 177 C0 118.59 0 60.18 0 0 Z " fill="#2C826A" transform="translate(17,44)"/>
<path d="M0 0 C2.5 1.6875 2.5 1.6875 4 3 C3.40832031 2.91621094 2.81664062 2.83242188 2.20703125 2.74609375 C-2.09939457 2.19110576 -5.75552644 1.76773348 -10 3 C-10 2.01 -10 1.02 -10 0 C-10.99 0.33 -11.98 0.66 -13 1 C-12.34 1.66 -11.68 2.32 -11 3 C-11.375 5.125 -11.375 5.125 -12 7 C-12.495 6.01 -12.495 6.01 -13 5 C-13.66 5 -14.32 5 -15 5 C-15 5.66 -15 6.32 -15 7 C-15.66 7 -16.32 7 -17 7 C-17 7.66 -17 8.32 -17 9 C-16.34 9.33 -15.68 9.66 -15 10 C-15.33 10.99 -15.66 11.98 -16 13 C-15.97952658 15.4882459 -15.97952658 15.4882459 -15.6875 18.125 C-15.60886719 19.01445313 -15.53023437 19.90390625 -15.44921875 20.8203125 C-15.30097656 21.53960937 -15.15273437 22.25890625 -15 23 C-14.34 23.33 -13.68 23.66 -13 24 C-13.66 24 -14.32 24 -15 24 C-15 24.66 -15 25.32 -15 26 C-14.34 26.33 -13.68 26.66 -13 27 C-13.66 27 -14.32 27 -15 27 C-15 27.66 -15 28.32 -15 29 C-14.01 29.495 -14.01 29.495 -13 30 C-13.99 30 -14.98 30 -16 30 C-16.33 26.04 -16.66 22.08 -17 18 C-19.91287917 17.27178021 -22.81911293 16.58401921 -25.75 15.9375 C-26.54921875 15.76089844 -27.3484375 15.58429688 -28.171875 15.40234375 C-29.07679687 15.20318359 -29.07679687 15.20318359 -30 15 C-30.33 15.99 -30.66 16.98 -31 18 C-31.66 17.67 -32.32 17.34 -33 17 C-33.33 17.66 -33.66 18.32 -34 19 C-34.99 19 -35.98 19 -37 19 C-36.67 19.99 -36.34 20.98 -36 22 C-36.66 22 -37.32 22 -38 22 C-37.814375 23.27875 -37.62875 24.5575 -37.4375 25.875 C-36.875 29.75 -36.875 29.75 -38 32 C-37.01 32 -36.02 32 -35 32 C-35.04125 33.19625 -35.0825 34.3925 -35.125 35.625 C-35.14528617 39.43879938 -34.28535658 42.40100156 -33 46 C-33.33 46.66 -33.66 47.32 -34 48 C-20.8 47.67 -7.6 47.34 6 47 C6 47.66 6 48.32 6 49 C4.74864258 48.98952637 3.49728516 48.97905273 2.20800781 48.96826172 C-2.4361688 48.93205235 -7.08033293 48.90909604 -11.72460938 48.89013672 C-13.73439635 48.8800813 -15.7441687 48.86643515 -17.75390625 48.84912109 C-20.64326588 48.82485276 -23.53243202 48.81351229 -26.421875 48.8046875 C-27.31992859 48.79436493 -28.21798218 48.78404236 -29.14324951 48.77340698 C-30.4041037 48.77318039 -30.4041037 48.77318039 -31.69042969 48.77294922 C-32.42767273 48.768508 -33.16491577 48.76406677 -33.92449951 48.75949097 C-36.30519726 49.03536626 -37.93016431 49.82098568 -40 51 C-40.79989804 49.79709989 -41.58947824 48.58733705 -42.375 47.375 C-42.81585938 46.70210937 -43.25671875 46.02921875 -43.7109375 45.3359375 C-47.99085747 37.58020374 -48.21056934 28.78473403 -46.41796875 20.21875 C-43.63284273 12.18130871 -37.62049542 4.88479725 -30.3125 0.5 C-20.29007508 -4.03845657 -10.04666366 -4.93199852 0 0 Z " fill="#ECECEC" transform="translate(89,51)"/>
<path d="M0 0 C2.93087207 2.25451698 3.82814288 3.48442865 5 7 C6.96672915 8.1500831 6.96672915 8.1500831 9 9 C9.33 9.33 9.66 9.66 10 10 C10.12375 9.21625 10.2475 8.4325 10.375 7.625 C11 5 11 5 13 3 C16.125 3.375 16.125 3.375 19 4 C17.02 4.99 17.02 4.99 15 6 C14.97421875 7.26457031 14.9484375 8.52914062 14.921875 9.83203125 C14.86559734 11.49222218 14.80824993 13.1523771 14.75 14.8125 C14.72873047 16.06256836 14.72873047 16.06256836 14.70703125 17.33789062 C14.45812087 23.5357592 14.45812087 23.5357592 11.953125 26.07421875 C11.30859375 26.37972656 10.6640625 26.68523437 10 27 C8.875 21.375 8.875 21.375 10 18 C8.35 18 6.7 18 5 18 C4.9175 18.721875 4.835 19.44375 4.75 20.1875 C3.77114202 23.85821742 2.91507917 25.51151778 0 28 C-4.85145021 28.950622 -8.71146501 28.75164541 -13 26.25 C-16.67308985 22.11777391 -17.29333271 19.08906822 -17.3125 13.5625 C-17.32925781 12.45003906 -17.34601563 11.33757812 -17.36328125 10.19140625 C-16.96118939 6.65905084 -16.11324178 4.8293403 -14 2 C-9.01210374 -1.47992762 -5.69711219 -1.37833359 0 0 Z " fill="#F1F1F1" transform="translate(100,190)"/>
<path d="M0 0 C5.0428125 -0.0928125 5.0428125 -0.0928125 10.1875 -0.1875 C11.76374146 -0.22846802 11.76374146 -0.22846802 13.37182617 -0.27026367 C22.08459005 -0.34795924 22.08459005 -0.34795924 26 3 C27.59138038 6.18276076 27.39713508 9.5353388 27 13 C25.625 15.5 25.625 15.5 24 17 C23.34 17 22.68 17 22 17 C22 17.66 22 18.32 22 19 C22.64453125 19.18304688 23.2890625 19.36609375 23.953125 19.5546875 C26 21 26 21 26.609375 24.2578125 C26.65578125 25.53398437 26.7021875 26.81015625 26.75 28.125 C26.80671875 29.40632813 26.8634375 30.68765625 26.921875 32.0078125 C26.94765625 32.99523437 26.9734375 33.98265625 27 35 C25.35 34.67 23.7 34.34 22 34 C21.96261719 33.31292969 21.92523438 32.62585938 21.88671875 31.91796875 C21.82097656 31.01691406 21.75523437 30.11585938 21.6875 29.1875 C21.62949219 28.29417969 21.57148438 27.40085938 21.51171875 26.48046875 C21.15049101 24.01852596 21.15049101 24.01852596 19.90625 22.21875 C15.53341789 19.42300488 8.95271798 20.2271889 4 20 C4 24.95 4 29.9 4 35 C2.68 35 1.36 35 0 35 C0 23.45 0 11.9 0 0 Z " fill="#0E0E0E" transform="translate(127,137)"/>
<path d="M0 0 C2.5 1.5625 2.5 1.5625 4 4 C4.68689034 7.64051881 4.75655791 9.87609606 2.6484375 13.0078125 C1.16083982 14.74921832 -0.3640135 16.39809655 -2 18 C-1.34 18 -0.68 18 0 18 C1.37310707 19.29233607 2.71034824 20.62437146 4 22 C4.33 21.01 4.66 20.02 5 19 C6.32 19 7.64 19 9 19 C8.86980469 19.58007812 8.73960938 20.16015625 8.60546875 20.7578125 C7.67161704 25.4534728 7.67161704 25.4534728 9.046875 29.86328125 C10.30959728 31.29271125 11.65134554 32.65134554 13 34 C13 34.66 13 35.32 13 36 C8.44615385 36.36923077 8.44615385 36.36923077 6.1875 34.5 C5.795625 34.005 5.40375 33.51 5 33 C4.401875 33.309375 3.80375 33.61875 3.1875 33.9375 C-1.5185182 36.22328027 -5.84656894 36.76714823 -11 36 C-14.0625 34.0625 -14.0625 34.0625 -16 31 C-16.6894755 27.84892602 -16.74458651 25.1444461 -16 22 C-13.5 19.1875 -13.5 19.1875 -11 17 C-10.7018576 13.2236068 -10.7018576 13.2236068 -12 11 C-12.35173852 7.20122401 -12.52701444 4.85639847 -10.5 1.5625 C-6.97873756 -0.63828902 -4.04560357 -0.80414661 0 0 Z " fill="#0F0F0F" transform="translate(54,186)"/>
<path d="M0 0 C2.31 0 4.62 0 7 0 C8.51075416 3.91260327 10.00671908 7.83069813 11.5 11.75 C11.92925781 12.86117187 12.35851562 13.97234375 12.80078125 15.1171875 C13.40986328 16.72207031 13.40986328 16.72207031 14.03125 18.359375 C14.59682617 19.83615723 14.59682617 19.83615723 15.17382812 21.34277344 C16 24 16 24 16 28 C16.66 28 17.32 28 18 28 C18.11730469 27.29101562 18.23460938 26.58203125 18.35546875 25.8515625 C19.0406469 22.82016828 20.0727288 20.22301929 21.3125 17.375 C23.75491804 11.65235773 25.93258404 5.8673034 28 0 C30.31 0 32.62 0 35 0 C35 11.55 35 23.1 35 35 C33.35 35 31.7 35 30 35 C29.505 22.625 29.505 22.625 29 10 C28.2575 12.083125 27.515 14.16625 26.75 16.3125 C24.52427421 22.55055364 22.27262065 28.77885968 20 35 C18.35 35 16.7 35 15 35 C13.70249501 31.81484616 12.41307127 28.62647921 11.125 25.4375 C10.76019531 24.54224609 10.39539063 23.64699219 10.01953125 22.72460938 C9.66503906 21.84482422 9.31054688 20.96503906 8.9453125 20.05859375 C8.45828857 18.85674438 8.45828857 18.85674438 7.96142578 17.63061523 C6.80854139 14.47613851 5.92266496 11.22932736 5 8 C4.67 16.91 4.34 25.82 4 35 C2.68 35 1.36 35 0 35 C0 23.45 0 11.9 0 0 Z " fill="#131313" transform="translate(75,137)"/>
<path d="M0 0 C3.92260896 2.11217406 6.64360669 4.22704655 9 8 C9.97209746 13.77540254 9.42862391 19.15263517 6 24 C2.29643664 27.26785002 -1.09078272 27.32535122 -5.81640625 27.30078125 C-9.25058255 26.82773729 -11.37735394 25.69182896 -13.6875 23.125 C-16.3618665 18.79507329 -16.69565371 14.01450381 -16 9 C-12.38395042 1.90182859 -8.00364446 -0.98290371 0 0 Z " fill="#121212" transform="translate(197,195)"/>
<path d="M0 0 C3.04386724 -0.08226668 5.07175348 0.02391783 8 1 C8.36368892 2.60203467 8.71561952 4.20674203 9.0625 5.8125 C9.35833984 7.15248047 9.35833984 7.15248047 9.66015625 8.51953125 C10 11 10 11 9 14 C8.34 14 7.68 14 7 14 C7.02320313 14.81984375 7.04640625 15.6396875 7.0703125 16.484375 C7.08835938 17.56203125 7.10640625 18.6396875 7.125 19.75 C7.14820313 20.81734375 7.17140625 21.8846875 7.1953125 22.984375 C7 26 7 26 5 30 C-7.87 30 -20.74 30 -34 30 C-34.33 26.7 -34.66 23.4 -35 20 C-34.01 20.33 -33.02 20.66 -32 21 C-32.66 21 -33.32 21 -34 21 C-33.67 21.66 -33.34 22.32 -33 23 C-31.02 23 -29.04 23 -27 23 C-27.66 22.67 -28.32 22.34 -29 22 C-29 20.68 -29 19.36 -29 18 C-28.34 17.67 -27.68 17.34 -27 17 C-27 15.35 -27 13.7 -27 12 C-25.68 12 -24.36 12 -23 12 C-23 13.65 -23 15.3 -23 17 C-22.01 17.33 -21.02 17.66 -20 18 C-20.33 19.32 -20.66 20.64 -21 22 C-21.66 22 -22.32 22 -23 22 C-20.69 22 -18.38 22 -16 22 C-15.67 21.34 -15.34 20.68 -15 20 C-15.66 20 -16.32 20 -17 20 C-17 20.66 -17 21.32 -17 22 C-17.66 22 -18.32 22 -19 22 C-19 20.35 -19 18.7 -19 17 C-17.68 17.66 -16.36 18.32 -15 19 C-15.33 18.01 -15.66 17.02 -16 16 C-15.01 16 -14.02 16 -13 16 C-13 16.66 -13 17.32 -13 18 C-12.01 17.67 -11.02 17.34 -10 17 C-10 18.65 -10 20.3 -10 22 C-10.99 21.67 -11.98 21.34 -13 21 C-13 21.66 -13 22.32 -13 23 C-10.69 23 -8.38 23 -6 23 C-5.67 22.01 -5.34 21.02 -5 20 C-5.66 20 -6.32 20 -7 20 C-7.33 20.66 -7.66 21.32 -8 22 C-8 20.68 -8 19.36 -8 18 C-7.01 18 -6.02 18 -5 18 C-5 16.02 -5 14.04 -5 12 C-4.01 11.67 -3.02 11.34 -2 11 C-2 13.31 -2 15.62 -2 18 C-1.34 18 -0.68 18 0 18 C-0.33 19.32 -0.66 20.64 -1 22 C-1 21.34 -1 20.68 -1 20 C-1.66 20 -2.32 20 -3 20 C-2.505 21.485 -2.505 21.485 -2 23 C-0.02 23 1.96 23 4 23 C3.34 23 2.68 23 2 23 C2 21.02 2 19.04 2 17 C2.66 17 3.32 17 4 17 C5.19583438 13.26301756 5.40347352 9.90024399 5 6 C3.54174477 3.66985091 1.93822398 1.98667958 0 0 Z " fill="#212121" transform="translate(89,69)"/>
<path d="M0 0 C2.4375 1.5 2.4375 1.5 4 3 C4.680625 2.505 5.36125 2.01 6.0625 1.5 C9.70766131 -0.36135897 11.9540572 -0.51493817 16 0 C18.19921875 1.32421875 18.19921875 1.32421875 20 4 C20.49800102 7.7601573 20.37486569 11.46560904 20.25 15.25 C20.23195312 16.28125 20.21390625 17.3125 20.1953125 18.375 C20.14822712 20.91761064 20.0824805 23.45833162 20 26 C18.68 26 17.36 26 16 26 C15.505 16.1 15.505 16.1 15 6 C8.63438245 4.32942362 8.63438245 4.32942362 6.09448242 6.1730957 C4.7969845 8.3388724 4.57752137 9.71389728 4.48828125 12.23046875 C4.45283203 13.03291016 4.41738281 13.83535156 4.38085938 14.66210938 C4.35830078 15.49548828 4.33574219 16.32886719 4.3125 17.1875 C4.27833984 18.03248047 4.24417969 18.87746094 4.20898438 19.74804688 C4.12658529 21.83156649 4.06161355 23.91576216 4 26 C2.68 26 1.36 26 0 26 C-0.02505615 25.39937744 -0.0501123 24.79875488 -0.07592773 24.17993164 C-0.1915528 21.47388563 -0.31442936 18.76821717 -0.4375 16.0625 C-0.47681641 15.11697266 -0.51613281 14.17144531 -0.55664062 13.19726562 C-0.59853516 12.29814453 -0.64042969 11.39902344 -0.68359375 10.47265625 C-0.72025146 9.64000244 -0.75690918 8.80734863 -0.79467773 7.94946289 C-0.79367103 5.99661142 -0.79367103 5.99661142 -2 5 C-4.95817107 4.74994614 -4.95817107 4.74994614 -8 5 C-10.43914492 7.43914492 -10.28662523 8.21446431 -10.4140625 11.5703125 C-10.45273438 12.46621094 -10.49140625 13.36210937 -10.53125 14.28515625 C-10.5621875 15.22230469 -10.593125 16.15945312 -10.625 17.125 C-10.66367188 18.06988281 -10.70234375 19.01476562 -10.7421875 19.98828125 C-10.83661346 22.32532375 -10.92218394 24.66235501 -11 27 C-12.65 27 -14.3 27 -16 27 C-16 18.42 -16 9.84 -16 1 C-14.68 1 -13.36 1 -12 1 C-11.67 1.66 -11.34 2.32 -11 3 C-10.484375 2.505 -9.96875 2.01 -9.4375 1.5 C-6.09971339 -0.55402253 -3.85600245 -0.41314312 0 0 Z " fill="#070707" transform="translate(227,195)"/>
<path d="M0 0 C3.54278538 1.41711415 4.74140328 2.59872922 6.8125 5.8125 C8 9 8 9 8 15 C1.73 15 -4.54 15 -11 15 C-10.01 16.98 -9.02 18.96 -8 21 C-4.60030189 22.3309316 -4.60030189 22.3309316 -1 22 C1.2085766 20.12491838 1.2085766 20.12491838 3 18 C4.32 18 5.64 18 7 18 C6.68919312 20.87496365 6.38759275 22.56589612 4.4375 24.75 C1.03996641 26.49232492 -2.2177127 27.11660231 -6 27 C-10.83990655 25.35625815 -12.76176948 23.52135392 -15 19 C-15.75575654 14.32060744 -16.13675312 9.23982467 -13.9453125 4.921875 C-9.88663251 -0.02539173 -6.1544161 -0.63911244 0 0 Z " fill="#181818" transform="translate(174,146)"/>
<path d="M0 0 C3.34625024 2.52676039 4.67977847 4.03933542 6 8 C6 10.31 6 12.62 6 15 C0.06 15 -5.88 15 -12 15 C-11.34 16.98 -10.68 18.96 -10 21 C-7.04335481 22.4783226 -4.25770263 22.06032783 -1 22 C-0.34 20.68 0.32 19.36 1 18 C2.65 18 4.3 18 6 18 C5.4360709 21.27078876 4.54319569 22.86371562 2 25 C-1.97687403 26.98843702 -6.68779852 26.6720314 -11 26 C-14.30964538 23.73134937 -15.74056719 20.77829842 -17 17 C-17.494097 12.89899494 -17.95235971 8.7767905 -15.953125 5.046875 C-11.38921974 -0.48350432 -6.86195431 -0.98182051 0 0 Z " fill="#040404" transform="translate(227,146)"/>
<path d="M0 0 C3.15456488 1.81219684 4.56405306 3.21114363 6.3125 6.375 C7 9 7 9 7 15 C0.73 15 -5.54 15 -12 15 C-9.83333333 20.83333333 -9.83333333 20.83333333 -7 22 C-4.04211431 22.4167552 -4.04211431 22.4167552 -1 22 C0.63676257 20.0399719 0.63676257 20.0399719 2 18 C3.32 18 4.64 18 6 18 C5.68132299 20.94776232 5.47089808 22.54849818 3.29296875 24.63671875 C-0.85292069 27.10165131 -5.34197237 26.7521852 -10 26 C-13.41311667 23.47429367 -14.66637768 22.00086696 -16 18 C-16.99736112 8.9240138 -16.99736112 8.9240138 -14.953125 4.98046875 C-10.58514476 -0.29964855 -6.5268163 -0.81302902 0 0 Z " fill="#1F1F1F" transform="translate(308,146)"/>
<path d="M0 0 C1.65 0 3.3 0 5 0 C5 5.28 5 10.56 5 16 C11.27 16 17.54 16 24 16 C24 11.05 24 6.1 24 1 C25.32 1 26.64 1 28 1 C28 12.55 28 24.1 28 36 C26.68 36 25.36 36 24 36 C24 30.72 24 25.44 24 20 C17.73 20 11.46 20 5 20 C5 25.28 5 30.56 5 36 C3.35 36 1.7 36 0 36 C0 24.12 0 12.24 0 0 Z " fill="#050505" transform="translate(39,136)"/>
<path d="M0 0 C3.44600375 2.06011093 5.46088196 3.58976044 7.71875 6.9765625 C7.71875 8.2965625 7.71875 9.6165625 7.71875 10.9765625 C5.40625 11.2890625 5.40625 11.2890625 2.71875 10.9765625 C1.15625 8.6015625 1.15625 8.6015625 -0.28125 5.9765625 C-2.89316533 3.84833519 -5.0389061 3.86094329 -8.28125 4.1015625 C-12.06982295 4.68713337 -13.92125415 5.86136798 -16.28125 8.9765625 C-18.48632361 13.38670973 -17.71814258 19.17656935 -17.28125 23.9765625 C-16.04038301 27.22281169 -14.46240465 29.38598518 -11.28125 30.9765625 C-7.87763208 31.44500469 -4.67293039 31.5683258 -1.28125 30.9765625 C1.41176444 28.02081494 2.46612631 25.73443358 3.71875 21.9765625 C5.36875 21.9765625 7.01875 21.9765625 8.71875 21.9765625 C8.10284666 27.2117409 5.79222144 31.04467171 1.9453125 34.62890625 C-2.38196777 37.24804957 -7.40547467 36.53890618 -12.28125 35.9765625 C-16.47236354 34.72592826 -18.88994207 32.43810519 -21.71875 29.1015625 C-24.49749417 23.50782968 -24.07508268 17.01386891 -23.28125 10.9765625 C-21.67735405 6.35649054 -19.06768705 3.20515631 -15.03125 0.4765625 C-10.0884292 -1.91443325 -5.04527249 -2.26346129 0 0 Z " fill="#202020" transform="translate(101.28125,186.0234375)"/>
<path d="M0 0 C2.7697841 1.4714478 4.19083529 3.54259201 6 6.0625 C6.33 5.4025 6.66 4.7425 7 4.0625 C7.99 3.7325 8.98 3.4025 10 3.0625 C10.33 2.0725 10.66 1.0825 11 0.0625 C12.32 0.0625 13.64 0.0625 15 0.0625 C14.86980469 0.64257812 14.73960938 1.22265625 14.60546875 1.8203125 C13.67161704 6.5159728 13.67161704 6.5159728 15.046875 10.92578125 C16.30959728 12.35521125 17.65134554 13.71384554 19 15.0625 C19 15.7225 19 16.3825 19 17.0625 C14.44615385 17.43173077 14.44615385 17.43173077 12.1875 15.5625 C11.795625 15.0675 11.40375 14.5725 11 14.0625 C10.401875 14.371875 9.80375 14.68125 9.1875 15 C4.51654333 17.26875038 0.11998305 17.88743597 -5 17.0625 C-8.0625 14.6875 -8.0625 14.6875 -10 12.0625 C-10 11.4025 -10 10.7425 -10 10.0625 C-8.68 9.7325 -7.36 9.4025 -6 9.0625 C-6.0825 8.32 -6.165 7.5775 -6.25 6.8125 C-6 4.0625 -6 4.0625 -4.25 1.6875 C-2 0.0625 -2 0.0625 0 0 Z " fill="#121212" transform="translate(48,204.9375)"/>
<path d="M0 0 C1.65 0 3.3 0 5 0 C5.02505615 0.63091553 5.0501123 1.26183105 5.07592773 1.91186523 C5.19154137 4.75396825 5.31442316 7.59571083 5.4375 10.4375 C5.47681641 11.43072266 5.51613281 12.42394531 5.55664062 13.44726562 C5.59853516 14.39150391 5.64042969 15.33574219 5.68359375 16.30859375 C5.72025146 17.18314209 5.75690918 18.05769043 5.79467773 18.95874023 C5.78181066 20.9927402 5.78181066 20.9927402 7 22 C12.02499694 21.71530797 12.02499694 21.71530797 16 19 C16.36894582 16.96939341 16.36894582 16.96939341 16.4140625 14.6484375 C16.45273437 13.79765625 16.49140625 12.946875 16.53125 12.0703125 C16.5621875 11.18085938 16.593125 10.29140625 16.625 9.375 C16.66367187 8.4778125 16.70234375 7.580625 16.7421875 6.65625 C16.83659357 4.4377073 16.92216748 2.21917597 17 0 C18.65 0 20.3 0 22 0 C22 8.58 22 17.16 22 26 C19.33333333 26 16.66666667 26 14 26 C13.21625 26.03480469 12.4325 26.06960937 11.625 26.10546875 C10.75875 26.13253906 9.8925 26.15960938 9 26.1875 C7.700625 26.23970703 7.700625 26.23970703 6.375 26.29296875 C4 26 4 26 2.25 24.67578125 C0.00144411 21.661311 -0.12072819 18.95432584 -0.09765625 15.33203125 C-0.09443359 14.43935547 -0.09121094 13.54667969 -0.08789062 12.62695312 C-0.07951172 11.69818359 -0.07113281 10.76941406 -0.0625 9.8125 C-0.05798828 8.87212891 -0.05347656 7.93175781 -0.04882812 6.96289062 C-0.03704626 4.64186288 -0.02059558 2.32096356 0 0 Z " fill="#303030" transform="translate(265,146)"/>
<path d="M0 0 C1.13308594 -0.01933594 2.26617187 -0.03867188 3.43359375 -0.05859375 C7.15431786 0.53133379 8.35168249 1.43361281 10.5625 4.4375 C10.5625 5.4275 10.5625 6.4175 10.5625 7.4375 C5.8125 6.6875 5.8125 6.6875 3.5625 4.4375 C-0.02093976 4.27072718 -0.02093976 4.27072718 -3.4375 4.4375 C-3.7675 5.7575 -4.0975 7.0775 -4.4375 8.4375 C-3.53386719 8.69144531 -2.63023437 8.94539062 -1.69921875 9.20703125 C-0.51972656 9.55121094 0.65976562 9.89539063 1.875 10.25 C3.63263672 10.75466797 3.63263672 10.75466797 5.42578125 11.26953125 C8.34149332 12.35520735 9.76972208 12.9527727 11.5625 15.4375 C12.23928396 19.32900777 11.86519678 20.95736027 9.75 24.3125 C5.10370278 27.41003148 0.99124349 27.4375317 -4.4375 26.4375 C-7.2696839 25.0646475 -8.3480697 23.92222792 -10.4375 21.4375 C-10.4375 20.1175 -10.4375 18.7975 -10.4375 17.4375 C-8.7875 17.4375 -7.1375 17.4375 -5.4375 17.4375 C-4.7775 18.7575 -4.1175 20.0775 -3.4375 21.4375 C-0.1375 21.4375 3.1625 21.4375 6.5625 21.4375 C6.30574087 18.94244008 6.30574087 18.94244008 4.5625 16.4375 C2.07336726 15.47339929 -0.43335428 14.84356392 -3.015625 14.171875 C-6.13698075 13.22539939 -7.69417792 12.21096695 -9.4375 9.4375 C-9.8801296 6.33909283 -10.10506369 4.42030209 -8.3125 1.78125 C-5.56213655 -0.18984381 -3.34745519 0.00379961 0 0 Z " fill="#1F1F1F" transform="translate(261.4375,195.5625)"/>
<path d="M0 0 C1.875 1.5625 1.875 1.5625 3 4 C3.28138576 7.93940068 2.98301804 11.20835898 2 15 C2.33 15.66 2.66 16.32 3 17 C2.01 16.67 1.02 16.34 0 16 C0 17.32 0 18.64 0 20 C0.66 19.67 1.32 19.34 2 19 C1.67 19.99 1.34 20.98 1 22 C-0.98 22 -2.96 22 -5 22 C-5.33 20.68 -5.66 19.36 -6 18 C-5.34 18 -4.68 18 -4 18 C-3.67 17.34 -3.34 16.68 -3 16 C-3.66 16 -4.32 16 -5 16 C-5 13.69 -5 11.38 -5 9 C-5.99 9.495 -5.99 9.495 -7 10 C-7.65772428 13.02934491 -7.65772428 13.02934491 -8 16 C-8.99 16 -9.98 16 -11 16 C-10.67 16.66 -10.34 17.32 -10 18 C-9.34 18 -8.68 18 -8 18 C-8.33 19.32 -8.66 20.64 -9 22 C-11.31 21.67 -13.62 21.34 -16 21 C-16 20.34 -16 19.68 -16 19 C-15.34 19 -14.68 19 -14 19 C-14 18.01 -14 17.02 -14 16 C-14.66 15.67 -15.32 15.34 -16 15 C-15.67 14.34 -15.34 13.68 -15 13 C-15.66 12.67 -16.32 12.34 -17 12 C-16.01 12 -15.02 12 -14 12 C-14 8.7 -14 5.4 -14 2 C-4.48262548 -0.62548263 -4.48262548 -0.62548263 0 0 Z " fill="#F1F1F1" transform="translate(92,71)"/>
<path d="M0 0 C1.546875 0.00193359 1.546875 0.00193359 3.125 0.00390625 C6.33257275 0.48765703 7.77903572 1.08306431 10 3.4375 C10 4.7575 10 6.0775 10 7.4375 C8.68 7.4375 7.36 7.4375 6 7.4375 C5.38125 6.695 5.38125 6.695 4.75 5.9375 C1.84217054 3.44507475 -1.27815331 4.25445836 -5 4.4375 C-4.67 5.7575 -4.34 7.0775 -4 8.4375 C-3.25234375 8.60765625 -2.5046875 8.7778125 -1.734375 8.953125 C-0.74953125 9.19546875 0.2353125 9.4378125 1.25 9.6875 C2.71179688 10.03554687 2.71179688 10.03554687 4.203125 10.390625 C7.3773595 11.57874629 8.90121514 12.7956729 11 15.4375 C11.5625 18.9375 11.5625 18.9375 11 22.4375 C8.78314587 25.41878659 7.04467522 26.27147965 3.39453125 26.8515625 C-1.46493627 27.10076596 -4.1386259 27.04552878 -8.1875 24.1875 C-10 21.4375 -10 21.4375 -10 17.4375 C-8.68 17.4375 -7.36 17.4375 -6 17.4375 C-5.34 18.7575 -4.68 20.0775 -4 21.4375 C-1.03 21.4375 1.94 21.4375 5 21.4375 C5.33 20.1175 5.66 18.7975 6 17.4375 C3.37465207 15.90604704 0.94452387 15.17777365 -2 14.5625 C-5.6805019 13.67670757 -7.78880746 12.66215579 -10 9.4375 C-10.5 6.9375 -10.5 6.9375 -10 4.4375 C-6.95792245 0.52728239 -4.88673969 -0.09162637 0 0 Z " fill="#0F0F0F" transform="translate(151,195.5625)"/>
<path d="M0 0 C3.70304783 0.68015164 5.38471116 1.96121941 8.0625 4.5625 C9.81183583 8.06117167 8.90175509 11.84202272 8.0625 15.5625 C6.4375 18.125 6.4375 18.125 4.0625 19.5625 C0.5625 20.125 0.5625 20.125 -2.9375 19.5625 C-5.63801329 17.41593816 -6.71746278 15.81693901 -7.31640625 12.40234375 C-7.52192695 8.43115355 -7.19794417 6.05333709 -5.3125 2.5 C-2.9375 0.5625 -2.9375 0.5625 0 0 Z " fill="#F6F6F6" transform="translate(192.9375,198.4375)"/>
<path d="M0 0 C0.76183594 -0.02835938 1.52367187 -0.05671875 2.30859375 -0.0859375 C4.5625 0.375 4.5625 0.375 6.83203125 1.6953125 C9.64450992 6.05052778 8.97934314 10.56836946 8.8125 15.625 C8.79445313 16.65625 8.77640625 17.6875 8.7578125 18.75 C8.71072712 21.29261064 8.6449805 23.83333162 8.5625 26.375 C7.2425 26.375 5.9225 26.375 4.5625 26.375 C4.53744385 25.77437744 4.5123877 25.17375488 4.48657227 24.55493164 C4.3709472 21.84888563 4.24807064 19.14321717 4.125 16.4375 C4.08568359 15.49197266 4.04636719 14.54644531 4.00585938 13.57226562 C3.96396484 12.67314453 3.92207031 11.77402344 3.87890625 10.84765625 C3.84224854 10.01500244 3.80559082 9.18234863 3.76782227 8.32446289 C3.76882897 6.37161142 3.76882897 6.37161142 2.5625 5.375 C-2.05573506 4.86345993 -2.05573506 4.86345993 -6.13208008 6.6262207 C-7.72345316 8.75807135 -7.8555949 9.96527627 -7.94921875 12.60546875 C-7.98466797 13.40791016 -8.02011719 14.21035156 -8.05664062 15.03710938 C-8.07919922 15.87048828 -8.10175781 16.70386719 -8.125 17.5625 C-8.15916016 18.40748047 -8.19332031 19.25246094 -8.22851562 20.12304688 C-8.31091471 22.20656649 -8.37588645 24.29076216 -8.4375 26.375 C-9.7575 26.375 -11.0775 26.375 -12.4375 26.375 C-12.4375 18.125 -12.4375 9.875 -12.4375 1.375 C-9.9625 1.87 -9.9625 1.87 -7.4375 2.375 C-4.37702368 0.33468245 -3.50254006 0.05906476 0 0 Z " fill="#070707" transform="translate(250.4375,145.625)"/>
<path d="M0 0 C1.68368422 0.6224385 3.35531576 1.28080881 5 2 C5.18451025 14.66970387 5.18451025 14.66970387 4 20 C4.66 20 5.32 20 6 20 C6 19.34 6 18.68 6 18 C6.66 18 7.32 18 8 18 C7.67 18.99 7.34 19.98 7 21 C4.69 21 2.38 21 0 21 C0 20.01 0 19.02 0 18 C0.66 18.33 1.32 18.66 2 19 C2 18.01 2 17.02 2 16 C1.34 15.67 0.68 15.34 0 15 C-0.625 12.4375 -0.625 12.4375 -1 10 C-1.66 10 -2.32 10 -3 10 C-3 11.98 -3 13.96 -3 16 C-3.99 16 -4.98 16 -6 16 C-6 17.32 -6 18.64 -6 20 C-5.01 19.67 -4.02 19.34 -3 19 C-3.33 19.99 -3.66 20.98 -4 22 C-5.98 22 -7.96 22 -10 22 C-10.33 21.01 -10.66 20.02 -11 19 C-10.34 19 -9.68 19 -9 19 C-9 19.66 -9 20.32 -9 21 C-8.34 21 -7.68 21 -7 21 C-8.3089572 17.87802522 -8.3089572 17.87802522 -11 16 C-10.67 15.01 -10.34 14.02 -10 13 C-10.33 12.34 -10.66 11.68 -11 11 C-11.45070423 3.90140845 -11.45070423 3.90140845 -10 1 C-6.79155435 -0.60422283 -3.47656169 -0.49028434 0 0 Z " fill="#F0F0F0" transform="translate(66,71)"/>
<path d="M0 0 C1.32 0 2.64 0 4 0 C4.02505615 0.60062256 4.0501123 1.20124512 4.07592773 1.82006836 C4.1915528 4.52611437 4.31442936 7.23178283 4.4375 9.9375 C4.47681641 10.88302734 4.51613281 11.82855469 4.55664062 12.80273438 C4.59853516 13.70185547 4.64042969 14.60097656 4.68359375 15.52734375 C4.72025146 16.35999756 4.75690918 17.19265137 4.79467773 18.05053711 C4.79367103 20.00338858 4.79367103 20.00338858 6 21 C9.41600593 21.41692853 9.41600593 21.41692853 13 21 C15.74268847 18.60094303 16.21734495 16.37833158 16.51171875 12.890625 C16.58440698 11.34434821 16.64259399 9.79733285 16.6875 8.25 C16.72166016 7.45722656 16.75582031 6.66445312 16.79101562 5.84765625 C16.87319104 3.89892496 16.93828045 1.94948638 17 0 C18.32 0 19.64 0 21 0 C21 8.25 21 16.5 21 25 C19.68 25 18.36 25 17 25 C17 24.34 17 23.68 17 23 C16.34 23.495 15.68 23.99 15 24.5 C10.85314682 26.57342659 8.61882953 26.58651804 4 26 C1.3557836 23.80034538 0.14069062 22.06374768 -0.31469727 18.62060547 C-0.39396771 15.79898544 -0.34851422 13.00841675 -0.25 10.1875 C-0.23195313 9.20845703 -0.21390625 8.22941406 -0.1953125 7.22070312 C-0.14832887 4.81279229 -0.08265694 2.40690665 0 0 Z " fill="#0F0F0F" transform="translate(115,196)"/>
<path d="M0 0 C6.35206334 0 11.81504513 0.21460891 18 1 C18 1.33 18 1.66 18 2 C13.38 2.33 8.76 2.66 4 3 C4 7.29 4 11.58 4 16 C8.62 16 13.24 16 18 16 C18 16.66 18 17.32 18 18 C18.66 18.66 19.32 19.32 20 20 C14.72 20 9.44 20 4 20 C4 24.95 4 29.9 4 35 C2.68 35 1.36 35 0 35 C0 23.45 0 11.9 0 0 Z " fill="#040404" transform="translate(127,137)"/>
<path d="M0 0 C2.31 0 4.62 0 7 0 C7 11.55 7 23.1 7 35 C5.35 35 3.7 35 2 35 C1.67 26.75 1.34 18.5 1 10 C0.34 11.32 -0.32 12.64 -1 14 C-1.66 13.34 -2.32 12.68 -3 12 C-2.71267364 7.54644135 -2.4056198 3.84899168 0 0 Z " fill="#202020" transform="translate(103,137)"/>
<path d="M0 0 C1.32 0.66 2.64 1.32 4 2 C4.02468447 6.80549747 4.04285255 11.61095818 4.05493164 16.41650391 C4.05996621 18.05192711 4.06679427 19.6873458 4.07543945 21.32275391 C4.08754335 23.67090975 4.093237 26.01900619 4.09765625 28.3671875 C4.10281754 29.10057343 4.10797882 29.83395935 4.11329651 30.58956909 C4.11387171 35.77225659 4.11387171 35.77225659 3 38 C0.36 38 -2.28 38 -5 38 C-4.34 37.34 -3.68 36.68 -3 36 C-2.77896999 33.44687788 -2.67480065 30.99352506 -2.65625 28.4375 C-2.6416272 27.69040771 -2.62700439 26.94331543 -2.61193848 26.17358398 C-2.56536431 23.78244357 -2.53120036 21.39138756 -2.5 19 C-2.45895233 15.85385432 -2.40532266 12.7083034 -2.34375 9.5625 C-2.3384729 8.83538818 -2.3331958 8.10827637 -2.32775879 7.35913086 C-2.22560362 2.22560362 -2.22560362 2.22560362 0 0 Z " fill="#F6F6F6" transform="translate(70,136)"/>
<path d="M0 0 C1.65 0 3.3 0 5 0 C6.00777029 2.74737377 7.00641446 5.49749952 8 8.25 C8.28617188 9.02730469 8.57234375 9.80460938 8.8671875 10.60546875 C9.13789063 11.35957031 9.40859375 12.11367187 9.6875 12.890625 C10.06455078 13.92751465 10.06455078 13.92751465 10.44921875 14.98535156 C11 17 11 17 11 21 C11.66 21 12.32 21 13 21 C13.0825 20.113125 13.165 19.22625 13.25 18.3125 C14.07285859 12.36826778 16.16009656 6.69086414 18 1 C19.65 0.67 21.3 0.34 23 0 C22.39768444 3.33073158 21.58595132 6.4032653 20.40625 9.57421875 C19.94412109 10.82235352 19.94412109 10.82235352 19.47265625 12.09570312 C18.99119141 13.37864258 18.99119141 13.37864258 18.5 14.6875 C18.17902344 15.55439453 17.85804688 16.42128906 17.52734375 17.31445312 C15.15788849 23.68422302 15.15788849 23.68422302 14 26 C12.35 26 10.7 26 9 26 C7.4946891 22.04366575 5.99665407 18.08461633 4.5 14.125 C4.07074219 12.99707031 3.64148438 11.86914062 3.19921875 10.70703125 C2.79316406 9.63066406 2.38710937 8.55429688 1.96875 7.4453125 C1.59169922 6.45031738 1.21464844 5.45532227 0.82617188 4.43017578 C0 2 0 2 0 0 Z " fill="#151515" transform="translate(184,146)"/>
<path d="M0 0 C2.4377963 -0.05397335 4.87439685 -0.09365616 7.3125 -0.125 C8.00279297 -0.14175781 8.69308594 -0.15851563 9.40429688 -0.17578125 C13.17135396 -0.21217794 14.78431704 -0.14378864 18 2 C18.4375 5.4375 18.4375 5.4375 18 9 C15.56530331 11.64614677 14.16211385 11.986246 10.546875 12.29296875 C9.29390625 12.25816406 8.0409375 12.22335938 6.75 12.1875 C5.48671875 12.16042969 4.2234375 12.13335937 2.921875 12.10546875 C1.95765625 12.07066406 0.9934375 12.03585938 0 12 C0 8.04 0 4.08 0 0 Z " fill="#EFEFEF" transform="translate(131,141)"/>
<path d="M0 0 C3.1875 2.25 3.1875 2.25 5 5 C4.91236229 8.06731977 4.18647619 8.81352381 2 11 C-0.58064129 11.14497985 -3.04943884 11.18677545 -5.625 11.125 C-6.33140625 11.11597656 -7.0378125 11.10695312 -7.765625 11.09765625 C-9.51056098 11.07407603 -11.25532295 11.03820461 -13 11 C-13 10.34 -13 9.68 -13 9 C-13.66 9 -14.32 9 -15 9 C-15.66 9.66 -16.32 10.32 -17 11 C-16.49697411 6.59852343 -14.97554199 4.24604581 -12 1 C-8.27943038 -0.86028481 -4.05111344 -0.57147368 0 0 Z " fill="#0F0F0F" transform="translate(227,146)"/>
<path d="M0 0 C0.33 0 0.66 0 1 0 C1 1.65 1 3.3 1 5 C1.66 5 2.32 5 3 5 C3.25523438 5.81404297 3.25523438 5.81404297 3.515625 6.64453125 C3.87914063 7.71767578 3.87914063 7.71767578 4.25 8.8125 C4.48203125 9.52019531 4.7140625 10.22789062 4.953125 10.95703125 C6.27034766 13.52758145 7.50451938 14.55757681 10 16 C13.41982275 16.70698259 16.57947758 16.71711452 20 16 C22.69301444 13.04425244 23.74737631 10.75787108 25 7 C26.65 7 28.3 7 30 7 C29.38409666 12.2351784 27.07347144 16.06810921 23.2265625 19.65234375 C18.9017317 22.2700045 13.87313866 21.56768238 9 21 C5.00497469 19.76377713 2.58914995 17.75484837 0 14.4375 C-1.43849883 9.49266026 -0.74440773 5.04044753 0 0 Z " fill="#0C0C0C" transform="translate(80,201)"/>
<path d="M0 0 C0.99 0 1.98 0 3 0 C3 1.32 3 2.64 3 4 C2.34 4 1.68 4 1 4 C1 61.09 1 118.18 1 177 C0.67 177 0.34 177 0 177 C0 118.59 0 60.18 0 0 Z " fill="#1E7661" transform="translate(17,44)"/>
<path d="M0 0 C0.94875 0.165 1.8975 0.33 2.875 0.5 C7.55204906 1.06691504 12.28871774 1 17 1 C17.33 7.93 17.66 14.86 18 22 C17.34 22 16.68 22 16 22 C16 15.4 16 8.8 16 2 C14.35 2 12.7 2 11 2 C11.33 11.24 11.66 20.48 12 30 C11.67 29.34 11.34 28.68 11 28 C8.47266765 27.34444881 8.47266765 27.34444881 6 27 C5.98582031 25.69804687 5.97164063 24.39609375 5.95703125 23.0546875 C5.91011285 21.32809034 5.86186556 19.60152893 5.8125 17.875 C5.80379883 16.59109375 5.80379883 16.59109375 5.79492188 15.28125 C5.57969498 9.06358406 4.33361036 6.43728525 0 2 C0 1.34 0 0.68 0 0 Z " fill="#F5F5F5" transform="translate(254,144)"/>
<path d="M0 0 C1.32 0 2.64 0 4 0 C4 2.64 4 5.28 4 8 C5.65 8 7.3 8 9 8 C9 9.32 9 10.64 9 12 C7.35 12 5.7 12 4 12 C4.33 17.61 4.66 23.22 5 29 C6.32 29.33 7.64 29.66 9 30 C9 30.99 9 31.98 9 33 C2.84765625 33.09765625 2.84765625 33.09765625 1 33 C0 32 0 32 -0.11352539 29.95874023 C-0.10828857 29.08419189 -0.10305176 28.20964355 -0.09765625 27.30859375 C-0.09282227 25.89223633 -0.09282227 25.89223633 -0.08789062 24.44726562 C-0.07951172 23.45404297 -0.07113281 22.46082031 -0.0625 21.4375 C-0.05798828 20.44041016 -0.05347656 19.44332031 -0.04882812 18.41601562 C-0.03700007 15.94395151 -0.02051849 13.47200482 0 11 C-1.32 11 -2.64 11 -4 11 C-4 10.01 -4 9.02 -4 8 C-2.68 8 -1.36 8 0 8 C0 5.36 0 2.72 0 0 Z " fill="#0C0C0C" transform="translate(169,188)"/>
<path d="M0 0 C3.13150836 1.36152537 4.55823799 2.26372999 6.3125 5.1875 C6.539375 5.785625 6.76625 6.38375 7 7 C6.01 7.66 5.02 8.32 4 9 C4 9.66 4 10.32 4 11 C-0.95 11 -5.9 11 -11 11 C-11.33 10.34 -11.66 9.68 -12 9 C-12.99 9 -13.98 9 -15 9 C-12.64566073 1.29488966 -7.65266141 -1.28577105 0 0 Z " fill="#161616" transform="translate(174,146)"/>
<path d="M0 0 C0.99 0.66 1.98 1.32 3 2 C2 4 2 4 0.3125 4.625 C-2 5 -2 5 -5.125 4.9375 C-8.13239112 4.67134345 -8.13239112 4.67134345 -10 7 C-10.36952049 9.12860662 -10.36952049 9.12860662 -10.4140625 11.5703125 C-10.45273438 12.46621094 -10.49140625 13.36210937 -10.53125 14.28515625 C-10.5621875 15.22230469 -10.593125 16.15945312 -10.625 17.125 C-10.66367188 18.06988281 -10.70234375 19.01476562 -10.7421875 19.98828125 C-10.83661346 22.32532375 -10.92218394 24.66235501 -11 27 C-12.65 27 -14.3 27 -16 27 C-16 18.42 -16 9.84 -16 1 C-14.68 1 -13.36 1 -12 1 C-11.67 1.66 -11.34 2.32 -11 3 C-10.484375 2.505 -9.96875 2.01 -9.4375 1.5 C-6.13278796 -0.53366895 -3.81546222 -0.3468602 0 0 Z " fill="#202020" transform="translate(227,195)"/>
<path d="M0 0 C2.31 0 4.62 0 7 0 C7.33 2.31 7.66 4.62 8 7 C7.01 7.33 6.02 7.66 5 8 C4.67 16.91 4.34 25.82 4 35 C2.68 35 1.36 35 0 35 C0 23.45 0 11.9 0 0 Z " fill="#030303" transform="translate(75,137)"/>
<path d="M0 0 C0.33 0 0.66 0 1 0 C1 5.94 1 11.88 1 18 C2.16169042 14.0404226 2.16169042 14.0404226 2 10 C2.99 9.34 3.98 8.68 5 8 C4.01 7.01 3.02 6.02 2 5 C3.8125 4.3125 3.8125 4.3125 6 4 C6.43570313 4.45632812 6.87140625 4.91265625 7.3203125 5.3828125 C9.44575424 7.42916804 11.22305721 7.83068485 14.0625 8.5625 C18.79166667 9.79166667 18.79166667 9.79166667 21 12 C21 13.32 21 14.64 21 16 C18.77109005 17.11445498 17.46944894 17.16480286 15 17.1875 C13.948125 17.20876953 13.948125 17.20876953 12.875 17.23046875 C11 17 11 17 9 15 C9 14.01 9 13.02 9 12 C7.35 12 5.7 12 4 12 C5.12451727 14.9719385 6.22293791 17.33440687 8 20 C6.35 20.66 4.7 21.32 3 22 C2.34 21.34 1.68 20.68 1 20 C0.67 20 0.34 20 0 20 C0 13.4 0 6.8 0 0 Z " fill="#E7E7E7" transform="translate(247,201)"/>
<path d="M0 0 C1.41750563 0.11509661 2.83401169 0.24253658 4.25 0.375 C5.03890625 0.44460937 5.8278125 0.51421875 6.640625 0.5859375 C9.14478952 1.02541008 10.86957156 1.61427885 13 3 C14.04976964 6.14930893 14.10131595 8.38814456 14.0625 11.6875 C14.05347656 12.68136719 14.04445313 13.67523438 14.03515625 14.69921875 C14.02355469 15.45847656 14.01195313 16.21773437 14 17 C13.67 17 13.34 17 13 17 C12.67 14.03 12.34 11.06 12 8 C7.49016424 5.74508212 3.94576735 5.67568739 -1 6 C-3.43442418 7.98635379 -3.43442418 7.98635379 -3.1875 11.875 C-3.23120566 16.83001957 -3.23120566 16.83001957 -1 21 C-0.63557767 22.66014616 -0.30027117 24.32706064 0 26 C-0.66 26 -1.32 26 -2 26 C-2 25.01 -2 24.02 -2 23 C-2.99 23 -3.98 23 -5 23 C-5.33 23.66 -5.66 24.32 -6 25 C-6.125 19.25 -6.125 19.25 -5 17 C-5.99 17 -6.98 17 -8 17 C-8.02708567 15.39592672 -8.04643483 13.7917215 -8.0625 12.1875 C-8.07410156 11.29417969 -8.08570313 10.40085937 -8.09765625 9.48046875 C-8 7 -8 7 -7 4 C-6.01 4 -5.02 4 -4 4 C-3.67 3.01 -3.34 2.02 -3 1 C-2.34 1.33 -1.68 1.66 -1 2 C-0.67 1.34 -0.34 0.68 0 0 Z " fill="#3E3E3E" transform="translate(59,66)"/>
<path d="M0 0 C0.66 0.33 1.32 0.66 2 1 C0.515 2.485 0.515 2.485 -1 4 C-0.67 4.66 -0.34 5.32 0 6 C0.23477622 8.49558422 0.38150547 10.98970179 0.5234375 13.4921875 C1.08775837 16.46181042 1.82708197 17.90016218 4 20 C6.18436773 20.3708832 6.18436773 20.3708832 8.5 20.0625 C10.84375 19.84765625 10.84375 19.84765625 13 20 C14.78125 21.49609375 14.78125 21.49609375 16 23 C13.04497399 24.69242399 10.90004978 25.27328801 7.5 25.25 C6.7471875 25.25515625 5.994375 25.2603125 5.21875 25.265625 C1.75069497 24.85043531 -0.36242273 23.70841919 -2.6875 21.125 C-5.35243811 16.81033829 -5.7290487 11.99782068 -5 7 C-3.50251293 4.34316811 -2.15347249 2.15347249 0 0 Z " fill="#1A1A1A" transform="translate(186,197)"/>
<path d="M0 0 C1.13308594 -0.01933594 2.26617187 -0.03867188 3.43359375 -0.05859375 C7.15431786 0.53133379 8.35168249 1.43361281 10.5625 4.4375 C10.5625 5.4275 10.5625 6.4175 10.5625 7.4375 C5.8125 6.6875 5.8125 6.6875 3.5625 4.4375 C-0.02093976 4.27072718 -0.02093976 4.27072718 -3.4375 4.4375 C-3.7675 5.7575 -4.0975 7.0775 -4.4375 8.4375 C-1.4909615 10.23816242 1.45051935 11.93913895 4.5625 13.4375 C4.5625 13.7675 4.5625 14.0975 4.5625 14.4375 C-4.07252756 14.8765692 -4.07252756 14.8765692 -8.4375 11.4375 C-9.83685013 8.63879973 -9.69015405 6.53251208 -9.4375 3.4375 C-6.98324337 -0.23096781 -4.17802951 0.00474237 0 0 Z " fill="#0F0F0F" transform="translate(261.4375,195.5625)"/>
<path d="M0 0 C3.04386724 -0.08226668 5.07175348 0.02391783 8 1 C8.36368892 2.60203467 8.71561952 4.20674203 9.0625 5.8125 C9.35833984 7.15248047 9.35833984 7.15248047 9.66015625 8.51953125 C10 11 10 11 9 14 C8.34 14 7.68 14 7 14 C7.02320312 14.81984375 7.04640625 15.6396875 7.0703125 16.484375 C7.09738281 18.10085937 7.09738281 18.10085937 7.125 19.75 C7.14820312 20.81734375 7.17140625 21.8846875 7.1953125 22.984375 C7.00487687 25.92470106 6.52670104 27.52361878 5 30 C3.37536158 30.05395478 1.75021459 30.09277195 0.125 30.125 C-0.77992187 30.14820312 -1.68484375 30.17140625 -2.6171875 30.1953125 C-5 30 -5 30 -7 28 C-5.02 28 -3.04 28 -1 28 C-0.67 27.01 -0.34 26.02 0 25 C2.0625 23.8125 2.0625 23.8125 4 23 C3.34 23 2.68 23 2 23 C2 21.02 2 19.04 2 17 C2.66 17 3.32 17 4 17 C5.19583438 13.26301756 5.40347352 9.90024399 5 6 C3.54174477 3.66985091 1.93822398 1.98667958 0 0 Z " fill="#262626" transform="translate(89,69)"/>
<path d="M0 0 C2.475 0.495 2.475 0.495 5 1 C5 6.28 5 11.56 5 17 C4.34 16.34 3.68 15.68 3 15 C2.01 15.99 1.02 16.98 0 18 C0 15.69 0 13.38 0 11 C-4.52381127 8.95698846 -9.16371695 7.99043705 -14 7 C-14 5.68 -14 4.36 -14 3 C-11.69 3 -9.38 3 -7 3 C-7 3.99 -7 4.98 -7 6 C-5.7934375 5.7215625 -5.7934375 5.7215625 -4.5625 5.4375 C-3.2940625 5.2209375 -3.2940625 5.2209375 -2 5 C-1.67 5.33 -1.34 5.66 -1 6 C-1.020625 5.195625 -1.04125 4.39125 -1.0625 3.5625 C-1 1 -1 1 0 0 Z " fill="#F8F8F8" transform="translate(163,199)"/>
<path d="M0 0 C1.60372657 4.00931642 0.38691773 7.05823382 -1 11 C-1.66 11.66 -2.32 12.32 -3 13 C-3.99 13 -4.98 13 -6 13 C-6.33 12.34 -6.66 11.68 -7 11 C-7.9590625 11.2784375 -7.9590625 11.2784375 -8.9375 11.5625 C-9.618125 11.706875 -10.29875 11.85125 -11 12 C-12 11 -12 11 -12.3125 7.6875 C-12 4 -12 4 -10.5 1.5625 C-6.86353539 -0.71029038 -4.24217465 -0.28281164 0 0 Z " fill="#151515" transform="translate(54,186)"/>
<path d="M0 0 C2.54917035 1.01387457 3.60794235 2.25211544 5.3125 4.3828125 C5.83328125 5.02347656 6.3540625 5.66414062 6.890625 6.32421875 C7.27734375 6.81792969 7.6640625 7.31164062 8.0625 7.8203125 C6.3125 11.6953125 6.3125 11.6953125 4.0625 12.8203125 C-2.15832585 13.2727362 -2.15832585 13.2727362 -4.875 11.6953125 C-6.46740283 8.88518986 -6.39069325 6.99266526 -5.9375 3.8203125 C-2.99527433 -0.27778754 -2.99527433 -0.27778754 0 0 Z " fill="#DDDDDD" transform="translate(47.9375,205.1796875)"/>
<path d="M0 0 C6.19448947 -0.47649919 6.19448947 -0.47649919 9.21875 1.3125 C12.10059705 5.66054994 11.41773433 10.16635951 11.25 15.25 C11.23195312 16.28125 11.21390625 17.3125 11.1953125 18.375 C11.14822712 20.91761064 11.0824805 23.45833162 11 26 C9.68 26 8.36 26 7 26 C6.67 19.4 6.34 12.8 6 6 C3.525 5.01 3.525 5.01 1 4 C1.66 3.34 2.32 2.68 3 2 C2.01 1.34 1.02 0.68 0 0 Z " fill="#0E0E0E" transform="translate(236,195)"/>
<path d="M0 0 C1.9375 0.5625 1.9375 0.5625 4 2 C4.33 4.31 4.66 6.62 5 9 C-1.6 9 -8.2 9 -15 9 C-15 10.65 -15 12.3 -15 14 C-15.99 14 -16.98 14 -18 14 C-18 10.7 -18 7.4 -18 4 C-16.68 3.67 -15.36 3.34 -14 3 C-14 3.99 -14 4.98 -14 6 C-9.05 6 -4.1 6 1 6 C0.67 4.02 0.34 2.04 0 0 Z " fill="#050505" transform="translate(177,151)"/>
<path d="M0 0 C-3.22791555 2.1519437 -4.28400809 2.20086443 -8 2 C-8.1546875 2.928125 -8.1546875 2.928125 -8.3125 3.875 C-9 6 -9 6 -12 8 C-18.19530284 7.77873918 -18.19530284 7.77873918 -20.9375 5.125 C-22 3 -22 3 -22 0 C-18.89635771 -0.19696449 -15.79207808 -0.38093262 -12.6875 -0.5625 C-11.36588867 -0.64661133 -11.36588867 -0.64661133 -10.01757812 -0.73242188 C-8.74624023 -0.80493164 -8.74624023 -0.80493164 -7.44921875 -0.87890625 C-6.27879028 -0.94960327 -6.27879028 -0.94960327 -5.0847168 -1.02172852 C-3 -1 -3 -1 0 0 Z " fill="#F4F4F4" transform="translate(185,161)"/>
<path d="M0 0 C3.1875 0.375 3.1875 0.375 5.5 2.375 C7.1875 5.375 7.1875 5.375 8.1875 13.375 C2.2475 13.375 -3.6925 13.375 -9.8125 13.375 C-9.8125 12.385 -9.8125 11.395 -9.8125 10.375 C-5.1925 10.375 -0.5725 10.375 4.1875 10.375 C1.87212045 6.65385429 -0.09829473 3.76270339 -3.8125 1.375 C-2.8125 0.375 -2.8125 0.375 0 0 Z " fill="#040404" transform="translate(306.8125,146.625)"/>
<path d="M0 0 C0.33 0.99 0.66 1.98 1 3 C13.54 3 26.08 3 39 3 C39 3.99 39 4.98 39 6 C37.71086513 6.67154933 36.41859796 7.33708859 35.125 8 C34.40570313 8.37125 33.68640625 8.7425 32.9453125 9.125 C31 10 31 10 29 10 C28.71125 9.195625 28.4225 8.39125 28.125 7.5625 C27.26737432 4.8673532 27.26737432 4.8673532 25 4 C25 4.66 25 5.32 25 6 C24.42781738 5.83918945 23.85563477 5.67837891 23.26611328 5.51269531 C19.49559732 4.6596374 15.72651618 4.77433817 11.875 4.75 C11.05128906 4.729375 10.22757813 4.70875 9.37890625 4.6875 C8.19748047 4.67976563 8.19748047 4.67976563 6.9921875 4.671875 C6.27401855 4.6625293 5.55584961 4.65318359 4.81591797 4.64355469 C3.91703857 4.81999512 3.91703857 4.81999512 3 5 C2.01 6.485 2.01 6.485 1 8 C-0.32 7.34 -1.64 6.68 -3 6 C-2.67 5.01 -2.34 4.02 -2 3 C-1.34 3 -0.68 3 0 3 C0 2.01 0 1.02 0 0 Z " fill="#F9F9F9" transform="translate(53,97)"/>
<path d="M0 0 C0.99 0.33 1.98 0.66 3 1 C3 1.66 3 2.32 3 3 C7.95 3 12.9 3 18 3 C18.33 2.01 18.66 1.02 19 0 C19.99 0 20.98 0 22 0 C22 1.98 22 3.96 22 6 C15.73 6 9.46 6 3 6 C2.67 7.65 2.34 9.3 2 11 C1.01 11.495 1.01 11.495 0 12 C-0.19573608 10.56359829 -0.38127816 9.12580496 -0.5625 7.6875 C-0.66691406 6.88699219 -0.77132812 6.08648437 -0.87890625 5.26171875 C-1 3 -1 3 0 0 Z " fill="#040404" transform="translate(211,154)"/>
<path d="M0 0 C0.33 0 0.66 0 1 0 C1.13277344 0.62648438 1.26554687 1.25296875 1.40234375 1.8984375 C1.57894531 2.71570313 1.75554688 3.53296875 1.9375 4.375 C2.11152344 5.18710938 2.28554688 5.99921875 2.46484375 6.8359375 C2.92330693 9.029463 2.92330693 9.029463 4 11 C3.67 11.66 3.34 12.32 3 13 C16.2 12.67 29.4 12.34 43 12 C43 12.66 43 13.32 43 14 C41.74864258 13.98952637 40.49728516 13.97905273 39.20800781 13.96826172 C34.5638312 13.93205235 29.91966707 13.90909604 25.27539062 13.89013672 C23.26560365 13.8800813 21.2558313 13.86643515 19.24609375 13.84912109 C16.35673412 13.82485276 13.46756798 13.81351229 10.578125 13.8046875 C9.68007141 13.79436493 8.78201782 13.78404236 7.85675049 13.77340698 C6.5958963 13.77318039 6.5958963 13.77318039 5.30957031 13.77294922 C4.57232727 13.768508 3.83508423 13.76406677 3.07550049 13.75949097 C0.69480274 14.03536626 -0.93016431 14.82098568 -3 16 C-7 10.25 -7 10.25 -7 8 C-5 8 -5 8 -3.375 9.5 C-2.92125 9.995 -2.4675 10.49 -2 11 C-1.67 10.01 -1.34 9.02 -1 8 C-1.66 8 -2.32 8 -3 8 C-3 7.01 -3 6.02 -3 5 C-2.34 4.67 -1.68 4.34 -1 4 C-0.34786708 1.97536745 -0.34786708 1.97536745 0 0 Z " fill="#CECECE" transform="translate(52,86)"/>
<path d="M0 0 C1.6875 2 1.6875 2 3 4 C2.35933594 4.20753906 1.71867187 4.41507813 1.05859375 4.62890625 C-5.47328502 6.95546217 -9.48252793 9.78950664 -14 15 C-14.66 15.66 -15.32 16.32 -16 17 C-16.66 16.34 -17.32 15.68 -18 15 C-18.66 14.67 -19.32 14.34 -20 14 C-15.39847893 7.90609372 -8.13891754 0 0 0 Z " fill="#151515" transform="translate(63,46)"/>
<path d="M0 0 C2 2 2 2 2.1171875 4.0234375 C1.73471061 7.73716477 1.39880494 10.37111529 -0.625 13.5625 C-4.00523011 15.60842875 -6.12389084 15.62294612 -10 15 C-12.5 12.6875 -12.5 12.6875 -14 10 C-13.67 9.01 -13.34 8.02 -13 7 C-12.01 7.99 -11.02 8.98 -10 10 C-5.57673622 8.64844718 -3.59587018 6.80109562 -1 3 C-0.67 2.01 -0.34 1.02 0 0 Z " fill="#E9E9E9" transform="translate(200,203)"/>
<path d="M0 0 C1.32 0.33 2.64 0.66 4 1 C5.14702282 6.25081557 4.93088566 11.06516538 4.5625 16.375 C4.51029297 17.20644531 4.45808594 18.03789062 4.40429688 18.89453125 C4.27561269 20.93008108 4.13864593 22.96510441 4 25 C2.68 25 1.36 25 0 25 C0 16.75 0 8.5 0 0 Z " fill="#050505" transform="translate(238,147)"/>
<path d="M0 0 C1.65 0 3.3 0 5 0 C3.68 0.33 2.36 0.66 1 1 C1.33 7.27 1.66 13.54 2 20 C2.99 20 3.98 20 5 20 C5 25.28 5 30.56 5 36 C3.35 36 1.7 36 0 36 C0 24.12 0 12.24 0 0 Z " fill="#252525" transform="translate(39,136)"/>
<path d="M0 0 C0 4.29 0 8.58 0 13 C-0.99 13 -1.98 13 -3 13 C-3 14.32 -3 15.64 -3 17 C-2.01 16.67 -1.02 16.34 0 16 C-0.33 16.99 -0.66 17.98 -1 19 C-2.98 19 -4.96 19 -7 19 C-7.33 18.01 -7.66 17.02 -8 16 C-7.34 16 -6.68 16 -6 16 C-6 16.66 -6 17.32 -6 18 C-5.34 18 -4.68 18 -4 18 C-5.3089572 14.87802522 -5.3089572 14.87802522 -8 13 C-7.67 12.01 -7.34 11.02 -7 10 C-7.33 9.34 -7.66 8.68 -8 8 C-8.039992 6.00039988 -8.04346799 3.99952758 -8 2 C-4.91190305 0.23537317 -3.76687864 0 0 0 Z " fill="#F4F4F4" transform="translate(63,74)"/>
<path d="M0 0 C0.66 0.33 1.32 0.66 2 1 C1.37054494 4.60801044 0.38441375 7.83796603 -0.9375 11.25 C-2.75873514 16.13091016 -3.99516715 20.89209969 -5 26 C-5.66 26 -6.32 26 -7 26 C-7.44519464 17.41763659 -7.65421499 9.53391323 -3 2 C-2.01 1.34 -1.02 0.68 0 0 Z " fill="#181818" transform="translate(45,60)"/>
<path d="M0 0 C1.32 0 2.64 0 4 0 C4.02505615 0.59538574 4.0501123 1.19077148 4.07592773 1.80419922 C4.19177494 4.49469136 4.31455196 7.1848234 4.4375 9.875 C4.47681641 10.81214844 4.51613281 11.74929687 4.55664062 12.71484375 C4.59853516 13.61074219 4.64042969 14.50664062 4.68359375 15.4296875 C4.72025146 16.25710449 4.75690918 17.08452148 4.79467773 17.93701172 C4.88238327 20.06179429 4.88238327 20.06179429 6 22 C5.34 22 4.68 22 4 22 C4 22.66 4 23.32 4 24 C3.01 23.67 2.02 23.34 1 23 C-0.2263757 20.54724859 -0.11415314 18.9494219 -0.09765625 16.2109375 C-0.09443359 15.26992187 -0.09121094 14.32890625 -0.08789062 13.359375 C-0.07951172 12.37453125 -0.07113281 11.3896875 -0.0625 10.375 C-0.05798828 9.38242188 -0.05347656 8.38984375 -0.04882812 7.3671875 C-0.03702145 4.9113984 -0.020554 2.45572896 0 0 Z " fill="#070707" transform="translate(115,196)"/>
<path d="M0 0 C3 1 3 1 4.8125 3.0625 C6.90648698 5.26442929 6.90648698 5.26442929 10.0625 5.5 C13.11023251 5.31336936 13.11023251 5.31336936 14.625 3 C15.07875 2.34 15.5325 1.68 16 1 C17.32 1 18.64 1 20 1 C19.68132299 3.94776232 19.47089808 5.54849818 17.29296875 7.63671875 C13.14288435 10.10414542 8.66241978 9.74378336 4 9 C0.75 6.75 0.75 6.75 -1 4 C-0.8125 1.6875 -0.8125 1.6875 0 0 Z " fill="#101010" transform="translate(294,163)"/>
<path d="M0 0 C1.60568666 0.28317926 3.20952047 0.57687791 4.8125 0.875 C6.15248047 1.11863281 6.15248047 1.11863281 7.51953125 1.3671875 C10 2 10 2 13 4 C12.125 7.875 12.125 7.875 11 9 C9.00390625 9.16796875 9.00390625 9.16796875 6.5625 9.1875 C5.35787109 9.20876953 5.35787109 9.20876953 4.12890625 9.23046875 C2 9 2 9 0 7 C-0.125 3.375 -0.125 3.375 0 0 Z " fill="#E7E7E7" transform="translate(145,209)"/>
<path d="M0 0 C0.57105469 0.13277344 1.14210937 0.26554687 1.73046875 0.40234375 C8.79328805 1.94066846 15.79139345 2.57064726 23 3 C22.34 4.32 21.68 5.64 21 7 C18.79194476 7.0544452 16.58349446 7.09299283 14.375 7.125 C13.14523438 7.14820312 11.91546875 7.17140625 10.6484375 7.1953125 C7.05683959 7.0030428 4.33338825 6.30258556 1 5 C0.67 3.35 0.34 1.7 0 0 Z " fill="#0E0E0E" transform="translate(59,111)"/>
<path d="M0 0 C0.99 0.33 1.98 0.66 3 1 C3 2.65 3 4.3 3 6 C3.99 6.33 4.98 6.66 6 7 C5.67 8.32 5.34 9.64 5 11 C4.34 11 3.68 11 3 11 C2.67 11.66 2.34 12.32 2 13 C2.99 13.66 3.98 14.32 5 15 C5 15.66 5 16.32 5 17 C3.02 17 1.04 17 -1 17 C-1 16.01 -1 15.02 -1 14 C-1.99 14.33 -2.98 14.66 -4 15 C-4.66 14.34 -5.32 13.68 -6 13 C-4.35 12.67 -2.7 12.34 -1 12 C-1.66 11.67 -2.32 11.34 -3 11 C-3 9.68 -3 8.36 -3 7 C-2.34 6.67 -1.68 6.34 -1 6 C-1.020625 5.195625 -1.04125 4.39125 -1.0625 3.5625 C-1 1 -1 1 0 0 Z " fill="#404040" transform="translate(63,80)"/>
<path d="M0 0 C1.6396875 0.2475 1.6396875 0.2475 3.3125 0.5 C6.87525873 1.06718184 6.87525873 1.06718184 10 1 C11.56406528 1.15127402 13.12659252 1.31902522 14.6875 1.5 C15.49574219 1.5928125 16.30398438 1.685625 17.13671875 1.78125 C17.75160156 1.8534375 18.36648438 1.925625 19 2 C18.67 2.99 18.34 3.98 18 5 C18 4.34 18 3.68 18 3 C16.68 3 15.36 3 14 3 C13.690625 3.639375 13.38125 4.27875 13.0625 4.9375 C12 7 12 7 11 8 C8.25 8.375 8.25 8.375 5 8 C2.125 5.6875 2.125 5.6875 0 3 C0 2.01 0 1.02 0 0 Z " fill="#E0E0E0" transform="translate(296,161)"/>
<path d="M0 0 C3.49552348 0.06991047 3.93205506 0.2542023 6.625 2.8125 C8.125 5.4375 8.125 5.4375 8.125 7.4375 C3.175 7.4375 -1.775 7.4375 -6.875 7.4375 C-5.5119637 0.62231848 -5.5119637 0.62231848 0 0 Z " fill="#D1D1D1" transform="translate(169.875,149.5625)"/>
<path d="M0 0 C2.4375 2.375 2.4375 2.375 4 5 C4 5.66 4 6.32 4 7 C-0.95 7 -5.9 7 -11 7 C-10.67 5.35 -10.34 3.7 -10 2 C-6.26744552 -0.48836965 -4.41559065 -0.54226552 0 0 Z " fill="#EEEEEE" transform="translate(307,150)"/>
<path d="M0 0 C1.65 0 3.3 0 5 0 C4.36896212 5.36382198 1.90765841 9.09234159 -1.875 12.875 C-4.67871516 14.35931979 -6.87700004 14.21293182 -10 14 C-10 13.34 -10 12.68 -10 12 C-10.99 11.34 -11.98 10.68 -13 10 C-11.14375 9.938125 -11.14375 9.938125 -9.25 9.875 C-5.52520497 9.42670609 -5.16317437 9.19246207 -2.5625 6.125 C-0.94844013 3.08102265 -0.94844013 3.08102265 0 0 Z " fill="#121212" transform="translate(105,208)"/>
<path d="M0 0 C1.89510699 -0.08160748 3.79124504 -0.13946459 5.6875 -0.1875 C6.74324219 -0.22230469 7.79898438 -0.25710937 8.88671875 -0.29296875 C12.39065615 0.03676187 14.19698511 0.91415288 17 3 C18.60725635 6.21451269 18.05748185 9.43612536 18 13 C17.34 11.68 16.68 10.36 16 9 C15.34 9 14.68 9 14 9 C13.67 9.66 13.34 10.32 13 11 C12.87625 10.195625 12.7525 9.39125 12.625 8.5625 C12.41875 7.716875 12.2125 6.87125 12 6 C8.95786733 4.47893366 5.71952428 4.62570662 2.375 4.4375 C1.66859375 4.39431641 0.9621875 4.35113281 0.234375 4.30664062 C-1.51018537 4.20055249 -3.25506697 4.09977111 -5 4 C-5 3.67 -5 3.34 -5 3 C-3.02 2.67 -1.04 2.34 1 2 C0.67 1.34 0.34 0.68 0 0 Z " fill="#202020" transform="translate(136,137)"/>
<path d="M0 0 C1.52858994 5.09529982 0.51196822 7.84036077 -1.796875 12.36328125 C-3 14 -3 14 -6 15 C-6.66 14.67 -7.32 14.34 -8 14 C-8 16.97 -8 19.94 -8 23 C-8.33 23 -8.66 23 -9 23 C-9 17.72 -9 12.44 -9 7 C-7.68 7 -6.36 7 -5 7 C-5 5.68 -5 4.36 -5 3 C-2.64285714 0 -2.64285714 0 0 0 Z " fill="#F4F4F4" transform="translate(184,193)"/>
<path d="M0 0 C3.625 0.4375 3.625 0.4375 6.0625 2.8125 C7.625 5.4375 7.625 5.4375 7.625 7.4375 C2.675 7.4375 -2.275 7.4375 -7.375 7.4375 C-4.640625 0.6015625 -4.640625 0.6015625 0 0 Z " fill="#E1E1E1" transform="translate(221.375,149.5625)"/>
<path d="M0 0 C0.33 0 0.66 0 1 0 C1 8.25 1 16.5 1 25 C-0.32 25.33 -1.64 25.66 -3 26 C-2.34 26.33 -1.68 26.66 -1 27 C-1.33 27.99 -1.66 28.98 -2 30 C-4.2477975 27.94766315 -5.0022242 26.99332739 -6 24 C-4.97568836 22.34788446 -3.95086618 20.69608003 -2.921875 19.046875 C-1.52920739 15.95468081 -1.74798533 13.1537475 -1.95703125 9.8203125 C-1.97121094 9.21960938 -1.98539063 8.61890625 -2 8 C-1.67 7.67 -1.34 7.34 -1 7 C-0.63239269 4.67182036 -0.29758419 2.3381615 0 0 Z " fill="#F7F7F7" transform="translate(236,146)"/>
<path d="M0 0 C6.24534561 -0.65055683 10.14294616 0.09616378 15.37109375 3.61328125 C17 5 17 5 19 8 C19 9.32 19 10.64 19 12 C16.6875 12.3125 16.6875 12.3125 14 12 C12.94228261 10.36935236 11.94726954 8.69719127 11 7 C8.43389334 5.19203897 8.43389334 5.19203897 6 4 C6.33 3.34 6.66 2.68 7 2 C4.69 1.67 2.38 1.34 0 1 C0 0.67 0 0.34 0 0 Z " fill="#1A1A1A" transform="translate(90,185)"/>
<path d="M0 0 C0.66 0 1.32 0 2 0 C3.55977064 3.11954128 3.12104126 6.42959384 3.09765625 9.8515625 C3.0962413 10.62559418 3.09482635 11.39962585 3.09336853 12.19711304 C3.08776403 14.67311442 3.07521083 17.14902588 3.0625 19.625 C3.05748558 21.30208203 3.05292257 22.97916547 3.04882812 24.65625 C3.03779315 28.77086806 3.02052554 32.88541878 3 37 C2.67 36.34 2.34 35.68 2 35 C1.34 35 0.68 35 0 35 C0 23.45 0 11.9 0 0 Z " fill="#F4F4F4" transform="translate(36,137)"/>
<path d="M0 0 C0.33 0 0.66 0 1 0 C1.1546875 1.175625 1.1546875 1.175625 1.3125 2.375 C1.77595022 5.33045181 1.77595022 5.33045181 5 7 C4.74443878 9.58567818 4.47122959 12.16739048 4.1875 14.75 C4.11724609 15.47960937 4.04699219 16.20921875 3.97460938 16.9609375 C3.45530505 21.53081557 2.86635434 23.17819422 0 27 C0 18.09 0 9.18 0 0 Z " fill="#F7F7F7" transform="translate(287,145)"/>
<path d="M0 0 C2.31 0 4.62 0 7 0 C6.67 1.32 6.34 2.64 6 4 C5.67 3.34 5.34 2.68 5 2 C4.34 2 3.68 2 3 2 C3 2.66 3 3.32 3 4 C2.34 4 1.68 4 1 4 C1 4.66 1 5.32 1 6 C1.66 6.33 2.32 6.66 3 7 C2.67 7.99 2.34 8.98 2 10 C2.02047342 12.4882459 2.02047342 12.4882459 2.3125 15.125 C2.39113281 16.01445313 2.46976562 16.90390625 2.55078125 17.8203125 C2.77314453 18.89925781 2.77314453 18.89925781 3 20 C3.66 20.33 4.32 20.66 5 21 C4.34 21 3.68 21 3 21 C3 21.66 3 22.32 3 23 C3.66 23.33 4.32 23.66 5 24 C4.34 24 3.68 24 3 24 C3 24.66 3 25.32 3 26 C3.66 26.33 4.32 26.66 5 27 C4.01 27 3.02 27 2 27 C1.67 23.04 1.34 19.08 1 15 C-0.32 14.67 -1.64 14.34 -3 14 C-3.66 13.34 -4.32 12.68 -5 12 C-4.34 12 -3.68 12 -3 12 C-3 11.34 -3 10.68 -3 10 C-2.34 10 -1.68 10 -1 10 C-1.020625 8.72125 -1.04125 7.4425 -1.0625 6.125 C-1.125 2.25 -1.125 2.25 0 0 Z " fill="#BCBCBC" transform="translate(71,54)"/>
<path d="M0 0 C1.65 0 3.3 0 5 0 C5.185625 0.61875 5.37125 1.2375 5.5625 1.875 C7.69870324 5.03286566 10.40704277 5.05448494 14 6 C15.72265625 7.55859375 15.72265625 7.55859375 17 9 C6.25945238 9.86000826 6.25945238 9.86000826 2.3125 6.75 C0 4 0 4 0 0 Z " fill="#1B1B1B" transform="translate(251,213)"/>
<path d="M0 0 C-0.33 0.66 -0.66 1.32 -1 2 C-6.94 2.33 -12.88 2.66 -19 3 C-19 1.68 -19 0.36 -19 -1 C-12.75592854 -2.31454136 -5.47688716 -3.65125811 0 0 Z " fill="#040404" transform="translate(83,46)"/>
<path d="M0 0 C0.99 0.66 1.98 1.32 3 2 C3.0647781 4.0081211 3.11948757 6.01963575 3.04296875 8.02734375 C2.99595069 10.18590014 3.26813819 11.96705052 4 14 C4.33 14.33 4.66 14.66 5 15 C5.36442233 16.66014616 5.69972883 18.32706064 6 20 C5.34 20 4.68 20 4 20 C4 19.01 4 18.02 4 17 C3.01 17 2.02 17 1 17 C0.67 17.66 0.34 18.32 0 19 C-0.125 13.25 -0.125 13.25 1 11 C0.01 11 -0.98 11 -2 11 C-2 7.7 -2 4.4 -2 1 C-1.34 0.67 -0.68 0.34 0 0 Z " fill="#444444" transform="translate(53,72)"/>
<path d="M0 0 C1.66611905 -0.042721 3.33382885 -0.04063832 5 0 C5.33 0.33 5.66 0.66 6 1 C6.33 1 6.66 1 7 1 C7 2.98 7 4.96 7 7 C6.34 7 5.68 7 5 7 C5 8.98 5 10.96 5 13 C3.35 13 1.7 13 0 13 C0.020625 12.030625 0.04125 11.06125 0.0625 10.0625 C0.35618499 7.12534105 0.35618499 7.12534105 -1 6 C-0.5625 3.9375 -0.5625 3.9375 0 2 C0.66 2.33 1.32 2.66 2 3 C2 2.34 2 1.68 2 1 C1.34 0.67 0.68 0.34 0 0 Z " fill="#131313" transform="translate(72,55)"/>
<path d="M0 0 C0.99 0.99 1.98 1.98 3 3 C2.34 3 1.68 3 1 3 C1.185625 4.27875 1.37125 5.5575 1.5625 6.875 C2.125 10.75 2.125 10.75 1 13 C4.3 12.67 7.6 12.34 11 12 C11.66 9.69 12.32 7.38 13 5 C13.66 5.33 14.32 5.66 15 6 C15.33 4.02 15.66 2.04 16 0 C16.33 0 16.66 0 17 0 C17 4.62 17 9.24 17 14 C11.39 14 5.78 14 0 14 C0 9.38 0 4.76 0 0 Z " fill="#FBFBFB" transform="translate(45,137)"/>
<path d="M0 0 C2.0625 2 2.0625 2 3 4 C1.02 4.99 1.02 4.99 -1 6 C-1.33 5.67 -1.66 5.34 -2 5 C-5.66344611 4.86431681 -8.50615721 4.83538574 -12 6 C-12.66 4.68 -13.32 3.36 -14 2 C-9.51845481 -0.31305558 -4.9482994 -0.81994942 0 0 Z " fill="#141414" transform="translate(255,146)"/>
<path d="M0 0 C2.31 0 4.62 0 7 0 C7.309375 0.969375 7.61875 1.93875 7.9375 2.9375 C8.69523342 5.84065792 8.69523342 5.84065792 10 7 C10 8.32 10 9.64 10 11 C5.00724943 9.72278474 2.42388092 7.82669043 -1 4 C-0.34 3.34 0.32 2.68 1 2 C0.67 1.34 0.34 0.68 0 0 Z " fill="#EAEAEA" transform="translate(54,101)"/>
<path d="M0 0 C3.04386724 -0.08226668 5.07175348 0.02391783 8 1 C8.36368892 2.60203467 8.71561952 4.20674203 9.0625 5.8125 C9.25972656 6.70582031 9.45695312 7.59914063 9.66015625 8.51953125 C10 11 10 11 9 14 C8.34 14 7.68 14 7 14 C7 14.66 7 15.32 7 16 C6.01 16.33 5.02 16.66 4 17 C4.165 16.484375 4.33 15.96875 4.5 15.4375 C5.70703717 9.64499817 5.70703717 9.64499817 3.8828125 4.21484375 C2.65684375 2.74991499 1.33396593 1.36731508 0 0 Z " fill="#343434" transform="translate(89,69)"/>
<path d="M0 0 C9.44979594 -0.38893977 17.5043143 -0.55872499 25 6 C24.40832031 5.91621094 23.81664063 5.83242188 23.20703125 5.74609375 C18.90060543 5.19110576 15.24447356 4.76773348 11 6 C11 5.01 11 4.02 11 3 C7.37 2.67 3.74 2.34 0 2 C0 1.34 0 0.68 0 0 Z " fill="#D7D7D7" transform="translate(68,48)"/>
<path d="M0 0 C1.175625 0.0825 2.35125 0.165 3.5625 0.25 C4.2225 1.24 4.8825 2.23 5.5625 3.25 C5.2325 4.24 4.9025 5.23 4.5625 6.25 C-2.0625 7.5 -2.0625 7.5 -5.4375 5.25 C-4.32300984 0.31440072 -4.32300984 0.31440072 0 0 Z " fill="#EAEAEA" transform="translate(261.4375,198.75)"/>
<path d="M0 0 C1.32 0 2.64 0 4 0 C2.77752628 2.54682025 1.4575529 4.85476512 -0.0625 7.25 C-2.32647869 11.129904 -2.6878355 14.55165588 -3 19 C-5 18 -5 18 -6 15 C-6.99 15 -7.98 15 -9 15 C-8.40300869 11.66864109 -7.27987719 9.78724333 -5.0625 7.25 C-4.27552734 6.32960937 -4.27552734 6.32960937 -3.47265625 5.390625 C-2 4 -2 4 0 4 C0 2.68 0 1.36 0 0 Z " fill="#F6F6F6" transform="translate(212,145)"/>
<path d="M0 0 C0.99 0.33 1.98 0.66 3 1 C3 7.6 3 14.2 3 21 C2.01 21 1.02 21 0 21 C0 14.07 0 7.14 0 0 Z " fill="#030303" transform="translate(106,151)"/>
<path d="M0 0 C1.65 0 3.3 0 5 0 C5.67057887 1.7902061 6.3363469 3.58221489 7 5.375 C7.556875 6.87160156 7.556875 6.87160156 8.125 8.3984375 C9 11 9 11 9 13 C6.64453125 12.80859375 6.64453125 12.80859375 4 12 C2.63671875 9.78515625 2.63671875 9.78515625 1.6875 7.0625 C1.36136719 6.16660156 1.03523437 5.27070313 0.69921875 4.34765625 C0 2 0 2 0 0 Z " fill="#171717" transform="translate(184,146)"/>
<path d="M0 0 C0.33 0 0.66 0 1 0 C1.05785647 3.95827235 1.09354717 7.9164367 1.125 11.875 C1.14175781 13.00292969 1.15851563 14.13085938 1.17578125 15.29296875 C1.18222656 16.36933594 1.18867188 17.44570312 1.1953125 18.5546875 C1.20578613 19.54968262 1.21625977 20.54467773 1.22705078 21.56982422 C1 24 1 24 -1 26 C-1.99 25.67 -2.98 25.34 -4 25 C-3.24521073 17.45210728 -3.24521073 17.45210728 -2 15.15625 C-0.62630383 12.19421763 -0.56979669 9.49661148 -0.375 6.25 C-0.30023438 5.07953125 -0.22546875 3.9090625 -0.1484375 2.703125 C-0.09945312 1.81109375 -0.05046875 0.9190625 0 0 Z " fill="#F8F8F8" transform="translate(209,198)"/>
<path d="M0 0 C2.375 -0.125 2.375 -0.125 5 0 C7 2 7 2 7 6 C3.78548731 7.60725635 0.56387464 7.05748185 -3 7 C-3.33 5.68 -3.66 4.36 -4 3 C-3.01 3 -2.02 3 -1 3 C-0.67 2.01 -0.34 1.02 0 0 Z " fill="#EEEEEE" transform="translate(261,211)"/>
<path d="M0 0 C2.31 0 4.62 0 7 0 C7.33 2.31 7.66 4.62 8 7 C7.01 7.33 6.02 7.66 5 8 C4.34 8.66 3.68 9.32 3 10 C1.5 8.9375 1.5 8.9375 0 7 C-0.1875 3.3125 -0.1875 3.3125 0 0 Z " fill="#0C0C0C" transform="translate(75,137)"/>
<path d="M0 0 C2.67927341 4.01891012 2.15601248 6.24161923 2 11 C1.67 10.34 1.34 9.68 1 9 C-0.65 9.66 -2.3 10.32 -4 11 C-4.99 10.01 -5.98 9.02 -7 8 C-3.375 2.25 -3.375 2.25 0 0 Z " fill="#F7F7F7" transform="translate(105,73)"/>
<path d="M0 0 C1.65 0 3.3 0 5 0 C5 8.58 5 17.16 5 26 C3.35 26 1.7 26 0 26 C-0.33 25.01 -0.66 24.02 -1 23 C0.66666667 23 2.33333333 23 4 23 C4 15.74 4 8.48 4 1 C3.01 1 2.02 1 1 1 C1 6.28 1 11.56 1 17 C0.67 17 0.34 17 0 17 C0 11.39 0 5.78 0 0 Z " fill="#4B4B4B" transform="translate(282,146)"/>
<path d="M0 0 C2.475 0.99 2.475 0.99 5 2 C5 2.99 5 3.98 5 5 C5.66 5 6.32 5 7 5 C6.67 5.99 6.34 6.98 6 8 C2.625 8.125 2.625 8.125 -1 8 C-1.66 7.34 -2.32 6.68 -3 6 C-2.63318342 3.06546739 -2.13562754 2.13562754 0 0 Z " fill="#EFEFEF" transform="translate(46,210)"/>
<path d="M0 0 C0.99 0 1.98 0 3 0 C4.10643764 5.83394389 4.27137992 8.76579213 1 14 C-0.32 13.67 -1.64 13.34 -3 13 C-2.01 8.71 -1.02 4.42 0 0 Z " fill="#0A0A0A" transform="translate(202,205)"/>
<path d="M0 0 C0.6875 2.3125 0.6875 2.3125 1 5 C-0.25 6.8125 -0.25 6.8125 -2 8 C-2.99 8 -3.98 8 -5 8 C-7.1519437 4.77208445 -7.20086443 3.71599191 -7 0 C-4.3333581 -1.33332095 -2.83319697 -0.67102033 0 0 Z " fill="#EDEDED" transform="translate(53,191)"/>
<path d="M0 0 C6.6 0 13.2 0 20 0 C20 0.33 20 0.66 20 1 C13.73 1 7.46 1 1 1 C1.99 2.98 2.98 4.96 4 7 C4.6875 9.875 4.6875 9.875 5 12 C2.23944851 11.1282469 0.42376641 10.51588954 -1.4375 8.25 C-2 6 -2 6 0 0 Z " fill="#313131" transform="translate(162,160)"/>
<path d="M0 0 C0.66 0 1.32 0 2 0 C2 2.31 2 4.62 2 7 C2.66 7 3.32 7 4 7 C3.67 8.32 3.34 9.64 3 11 C3 10.34 3 9.68 3 9 C2.34 9 1.68 9 1 9 C1.66 10.65 2.32 12.3 3 14 C1.02 14 -0.96 14 -3 14 C-2.34 12.35 -1.68 10.7 -1 9 C-1.66 9 -2.32 9 -3 9 C-3.33 9.66 -3.66 10.32 -4 11 C-4 9.68 -4 8.36 -4 7 C-3.01 7 -2.02 7 -1 7 C-1.020625 6.030625 -1.04125 5.06125 -1.0625 4.0625 C-1 1 -1 1 0 0 Z " fill="#212121" transform="translate(85,80)"/>
<path d="M0 0 C0.33 0.66 0.66 1.32 1 2 C1.66 2 2.32 2 3 2 C2.67 3.32 2.34 4.64 2 6 C2 5.34 2 4.68 2 4 C1.34 4.495 0.68 4.99 0 5.5 C-3.96633241 7.48316621 -6.60303262 7.22357461 -11 7 C-11.33 6.34 -11.66 5.68 -12 5 C-11.67 4.34 -11.34 3.68 -11 3 C-9.00390625 2.65625 -9.00390625 2.65625 -6.5625 2.5 C-2.83440381 2.34878389 -2.83440381 2.34878389 0 0 Z " fill="#111111" transform="translate(130,215)"/>
<path d="M0 0 C6.27 0 12.54 0 19 0 C19 0.33 19 0.66 19 1 C13.06 1 7.12 1 1 1 C1.66 2.98 2.32 4.96 3 7 C3.66 7.33 4.32 7.66 5 8 C4.67 9.32 4.34 10.64 4 12 C1.53199953 10.84826645 -0.04783565 9.95216435 -2 8 C-1.6875 6.125 -1.6875 6.125 -1 4 C-0.67 2.68 -0.34 1.36 0 0 Z " fill="#333333" transform="translate(214,160)"/>
<path d="M0 0 C1.32 0 2.64 0 4 0 C4.309375 0.9590625 4.309375 0.9590625 4.625 1.9375 C5.89538209 4.34925077 5.89538209 4.34925077 9.125 4.75 C10.07375 4.8325 11.0225 4.915 12 5 C12 5.33 12 5.66 12 6 C10.35 6 8.7 6 7 6 C7 6.66 7 7.32 7 8 C9.97 8 12.94 8 16 8 C16 8.33 16 8.66 16 9 C6.10476566 9.77983458 6.10476566 9.77983458 1.8125 6.75 C0 4 0 4 0 0 Z " fill="#242424" transform="translate(141,213)"/>
<path d="M0 0 C0.99 0 1.98 0 3 0 C3 5.61 3 11.22 3 17 C1.68 17.33 0.36 17.66 -1 18 C-0.505 9.09 -0.505 9.09 0 0 Z " fill="#020202" transform="translate(283,147)"/>
<path d="M0 0 C0.33 0.99 0.66 1.98 1 3 C1.66 2.01 2.32 1.02 3 0 C3.99 0 4.98 0 6 0 C6.33 2.31 6.66 4.62 7 7 C6.34 6.34 5.68 5.68 5 5 C2.03 7.475 2.03 7.475 -1 10 C-1 9.34 -1 8.68 -1 8 C-1.66 7.67 -2.32 7.34 -3 7 C-2.67 6.01 -2.34 5.02 -2 4 C-2.66 3.67 -3.32 3.34 -4 3 C-3 1 -3 1 0 0 Z " fill="#ECECEC" transform="translate(100,69)"/>
<path d="M0 0 C0.66 0.33 1.32 0.66 2 1 C1.01 1.33 0.02 1.66 -1 2 C-0.88529863 3.75070517 -0.75780972 5.50057536 -0.625 7.25 C-0.55539063 8.22453125 -0.48578125 9.1990625 -0.4140625 10.203125 C-0.01534751 12.89633189 0.63507063 14.66963279 2 17 C2.66 17 3.32 17 4 17 C3.67 18.32 3.34 19.64 3 21 C0.69 20.67 -1.62 20.34 -4 20 C-4 19.34 -4 18.68 -4 18 C-3.34 18 -2.68 18 -2 18 C-2 17.01 -2 16.02 -2 15 C-2.66 14.67 -3.32 14.34 -4 14 C-3.67 13.34 -3.34 12.68 -3 12 C-3.66 11.67 -4.32 11.34 -5 11 C-4.01 11 -3.02 11 -2 11 C-2 7.7 -2 4.4 -2 1 C-1.34 0.67 -0.68 0.34 0 0 Z " fill="#B8B8B8" transform="translate(80,72)"/>
<path d="M0 0 C1.58246707 -0.08153933 3.16616273 -0.13943557 4.75 -0.1875 C6.07257813 -0.23970703 6.07257813 -0.23970703 7.421875 -0.29296875 C10.52119245 0.05922641 11.84448656 0.75887037 14 3 C14 4.32 14 5.64 14 7 C12.68 7 11.36 7 10 7 C9 6 8 5 7 4 C4.70884436 2.8595593 2.38321975 1.94429462 0 1 C0 0.67 0 0.34 0 0 Z " fill="#080808" transform="translate(147,196)"/>
<path d="M0 0 C0.33 0 0.66 0 1 0 C1.31768628 6.03603923 0.60575361 9.57134665 -2 15 C-2 15.66 -2 16.32 -2 17 C-2.99 17.33 -3.98 17.66 -5 18 C-6.31983695 14.04048916 -5.03971894 11.59992488 -3.625 7.875 C-3.39039062 7.22917969 -3.15578125 6.58335937 -2.9140625 5.91796875 C-1.15762562 1.15762562 -1.15762562 1.15762562 0 0 Z " fill="#E5E5E5" transform="translate(104,146)"/>
<path d="M0 0 C7.50769231 0.61538462 7.50769231 0.61538462 10 2.5625 C10.33 3.036875 10.66 3.51125 11 4 C10.67 4.99 10.34 5.98 10 7 C5.61667943 6.17812739 1.32059823 5.09845718 -3 4 C-2.01 3.34 -1.02 2.68 0 2 C0 1.34 0 0.68 0 0 Z " fill="#202020" transform="translate(150,206)"/>
<path d="M0 0 C0.66 1.32 1.32 2.64 2 4 C2.33 3.34 2.66 2.68 3 2 C3.99 2 4.98 2 6 2 C6.66 3.65 7.32 5.3 8 7 C7.01 6.67 6.02 6.34 5 6 C5 7.32 5 8.64 5 10 C5.66 9.67 6.32 9.34 7 9 C6.67 9.99 6.34 10.98 6 12 C4.02 12 2.04 12 0 12 C-0.33 10.68 -0.66 9.36 -1 8 C-0.34 8 0.32 8 1 8 C1.33 7.34 1.66 6.68 2 6 C1.34 6 0.68 6 0 6 C0 4.02 0 2.04 0 0 Z " fill="#DADADA" transform="translate(87,81)"/>
<path d="M0 0 C0.99 0.99 1.98 1.98 3 3 C3.33 3 3.66 3 4 3 C4.33 5.31 4.66 7.62 5 10 C4.34 10 3.68 10 3 10 C5.475 10.99 5.475 10.99 8 12 C4.25 14 4.25 14 2 14 C2.33 16.31 2.66 18.62 3 21 C2.34 21.33 1.68 21.66 1 22 C0.67 14.74 0.34 7.48 0 0 Z " fill="#FAFAFA" transform="translate(247,197)"/>
<path d="M0 0 C0.66 0.33 1.32 0.66 2 1 C1.58578031 5.83256305 -0.46413986 7.82679218 -4 11 C-4.66 10.34 -5.32 9.68 -6 9 C-6.66 8.67 -7.32 8.34 -8 8 C-7.04578192 6.85073734 -6.08647955 5.70569459 -5.125 4.5625 C-4.59132812 3.92441406 -4.05765625 3.28632812 -3.5078125 2.62890625 C-2 1 -2 1 0 0 Z " fill="#1B1B1B" transform="translate(51,52)"/>
<path d="M0 0 C0.33 0 0.66 0 1 0 C1.05447047 1.41623216 1.09300508 2.83308191 1.125 4.25 C1.14820312 5.03890625 1.17140625 5.8278125 1.1953125 6.640625 C0.9828378 9.20731941 0.28654105 10.7916067 -1 13 C-2.65 12.67 -4.3 12.34 -6 12 C-6.33 10.02 -6.66 8.04 -7 6 C-5.02 6 -3.04 6 -1 6 C-0.67 4.02 -0.34 2.04 0 0 Z " fill="#E0E0E0" transform="translate(107,76)"/>
<path d="M0 0 C0.33 0 0.66 0 1 0 C1 5.94 1 11.88 1 18 C1.66 16.68 2.32 15.36 3 14 C3 14.66 3 15.32 3 16 C4.32 16.66 5.64 17.32 7 18 C7 18.99 7 19.98 7 21 C5.125 21.625 5.125 21.625 3 22 C2.34 21.34 1.68 20.68 1 20 C0.67 20 0.34 20 0 20 C0 13.4 0 6.8 0 0 Z " fill="#D9D9D9" transform="translate(247,201)"/>
<path d="M0 0 C0.99 0 1.98 0 3 0 C3.08126087 2.08268593 3.13930839 4.16628658 3.1875 6.25 C3.23970703 7.99023438 3.23970703 7.99023438 3.29296875 9.765625 C3 13 3 13 0 17 C0 11.39 0 5.78 0 0 Z " fill="#000000" transform="translate(132,196)"/>
<path d="M0 0 C3.7726764 0.53895377 5.68212991 1.99535358 8 5 C7.75 7.25 7.75 7.25 7 9 C6.01 9 5.02 9 4 9 C3.54625 8.360625 3.0925 7.72125 2.625 7.0625 C1.1337227 4.75235447 1.1337227 4.75235447 -1.6875 4.25 C-2.450625 4.1675 -3.21375 4.085 -4 4 C-3.34 3.525625 -2.68 3.05125 -2 2.5625 C-1.34 2.046875 -0.68 1.53125 0 1 C0 0.67 0 0.34 0 0 Z " fill="#232323" transform="translate(224,146)"/>
<path d="M0 0 C0.99 0.33 1.98 0.66 3 1 C4.05404945 4.98196457 3.84098656 7.98195309 3 12 C3.66 12 4.32 12 5 12 C5 11.34 5 10.68 5 10 C5.66 10 6.32 10 7 10 C6.67 10.99 6.34 11.98 6 13 C3.69 13 1.38 13 -1 13 C-1 12.01 -1 11.02 -1 10 C-0.34 10.33 0.32 10.66 1 11 C1 10.01 1 9.02 1 8 C0.34 7.67 -0.32 7.34 -1 7 C-0.67 4.69 -0.34 2.38 0 0 Z " fill="#E3E3E3" transform="translate(67,79)"/>
<path d="M0 0 C0.99 0 1.98 0 3 0 C2.85816304 1.75032844 2.71136571 3.50025534 2.5625 5.25 C2.48128906 6.22453125 2.40007813 7.1990625 2.31640625 8.203125 C2.04925416 10.56461753 1.64628032 12.71901065 1 15 C0.34 15 -0.32 15 -1 15 C-1.02685412 12.68756208 -1.04632841 10.3750373 -1.0625 8.0625 C-1.07410156 6.77472656 -1.08570313 5.48695312 -1.09765625 4.16015625 C-1 1 -1 1 0 0 Z " fill="#080808" transform="translate(39,71)"/>
<path d="M0 0 C0.99 0.66 1.98 1.32 3 2 C3 2.66 3 3.32 3 4 C4.32 4.33 5.64 4.66 7 5 C5.68 5 4.36 5 3 5 C2.67 5.66 2.34 6.32 2 7 C1.67 6.01 1.34 5.02 1 4 C-1.91652174 3.83318891 -1.91652174 3.83318891 -5 4 C-5.66 4.66 -6.32 5.32 -7 6 C-7.33 4.35 -7.66 2.7 -8 1 C-5.22899606 -0.38550197 -3.0665294 -0.1877467 0 0 Z " fill="#D9D9D9" transform="translate(154,199)"/>
<path d="M0 0 C0.91007812 0.00902344 1.82015625 0.01804688 2.7578125 0.02734375 C3.45648438 0.03894531 4.15515625 0.05054688 4.875 0.0625 C2.3688967 3.82165495 1.05550197 3.78813254 -3.25 4.75 C-4.89355469 5.12705078 -4.89355469 5.12705078 -6.5703125 5.51171875 C-7.83488281 5.78435547 -7.83488281 5.78435547 -9.125 6.0625 C-7.11119047 0.45260202 -5.85719068 -0.07509219 0 0 Z " fill="#090909" transform="translate(93.125,185.9375)"/>
<path d="M0 0 C2.05078125 0.03255208 4.1015625 0.06510417 6.15234375 0.09765625 C6.15234375 1.74765625 6.15234375 3.39765625 6.15234375 5.09765625 C3.18234375 5.09765625 0.21234375 5.09765625 -2.84765625 5.09765625 C-2.84765625 0.15051037 -2.84765625 0.15051037 0 0 Z " fill="#EBEBEB" transform="translate(167.84765625,149.90234375)"/>
<path d="M0 0 C0.99 0.33 1.98 0.66 3 1 C2.67 2.32 2.34 3.64 2 5 C4.97 5 7.94 5 11 5 C11 5.66 11 6.32 11 7 C6.05 7 1.1 7 -4 7 C-3.67 5.35 -3.34 3.7 -3 2 C-2.01 1.34 -1.02 0.68 0 0 Z " fill="#C0C0C0" transform="translate(300,150)"/>
<path d="M0 0 C2.72869407 0.03287583 5.2966618 0.56397771 8 1 C8.33 1.99 8.66 2.98 9 4 C9.99 4 10.98 4 12 4 C12.33 4.99 12.66 5.98 13 7 C9.37 7 5.74 7 2 7 C2.66 5.68 3.32 4.36 4 3 C1.03 2.505 1.03 2.505 -2 2 C-1.34 1.34 -0.68 0.68 0 0 Z " fill="#030303" transform="translate(65,92)"/>
<path d="M0 0 C0.66 1.32 1.32 2.64 2 4 C1.01 4.33 0.02 4.66 -1 5 C-1 6.32 -1 7.64 -1 9 C-0.01 8.67 0.98 8.34 2 8 C1.67 8.99 1.34 9.98 1 11 C-0.98 11 -2.96 11 -5 11 C-5.33 10.01 -5.66 9.02 -6 8 C-5.34 8 -4.68 8 -4 8 C-4 8.66 -4 9.32 -4 10 C-3.34 10 -2.68 10 -2 10 C-3.3089572 6.87802522 -3.3089572 6.87802522 -6 5 C-4.68 4.34 -3.36 3.68 -2 3 C-2 2.34 -2 1.68 -2 1 C-1.34 0.67 -0.68 0.34 0 0 Z " fill="#CFCFCF" transform="translate(61,82)"/>
<path d="M0 0 C0.66 0.66 1.32 1.32 2 2 C1.9765625 4.1640625 1.9765625 4.1640625 1.625 6.625 C1.51414063 7.44226563 1.40328125 8.25953125 1.2890625 9.1015625 C1.19367188 9.72804687 1.09828125 10.35453125 1 11 C-1.31 11.33 -3.62 11.66 -6 12 C-4 8 -2 4 0 0 Z " fill="#E2E2E2" transform="translate(200,203)"/>
<path d="M0 0 C3.1875 0.375 3.1875 0.375 5.5625 2.875 C6.09875 3.7 6.635 4.525 7.1875 5.375 C6.8575 6.035 6.5275 6.695 6.1875 7.375 C5.1975 7.705 4.2075 8.035 3.1875 8.375 C0.85416667 6.04166667 -1.47916667 3.70833333 -3.8125 1.375 C-2.8125 0.375 -2.8125 0.375 0 0 Z " fill="#161616" transform="translate(306.8125,146.625)"/>
<path d="M0 0 C0.33 0 0.66 0 1 0 C1.16873478 1.43725871 1.33490737 2.87481838 1.5 4.3125 C1.5928125 5.11300781 1.685625 5.91351563 1.78125 6.73828125 C2 9 2 9 2 12 C1.67 11.34 1.34 10.68 1 10 C-1.48388771 9.53000457 -1.48388771 9.53000457 -4.375 9.375 C-5.35210937 9.30023438 -6.32921875 9.22546875 -7.3359375 9.1484375 C-9.22168165 9.04336671 -11.11133093 9 -13 9 C-13.99 8.34 -14.98 7.68 -16 7 C-10.72 7 -5.44 7 0 7 C0 4.69 0 2.38 0 0 Z " fill="#F8F8F8" transform="translate(316,154)"/>
<path d="M0 0 C3.46941546 0.45822468 6.67395049 0.89131683 10 2 C10 2.66 10 3.32 10 4 C8.68 4 7.36 4 6 4 C5.67 4.99 5.34 5.98 5 7 C3.0625 6.3125 3.0625 6.3125 1 5 C0.25 2.375 0.25 2.375 0 0 Z " fill="#E7E7E7" transform="translate(296,161)"/>
<path d="M0 0 C0.66 0.33 1.32 0.66 2 1 C2 2.65 2 4.3 2 6 C1.34 6 0.68 6 0 6 C-0.33 6.66 -0.66 7.32 -1 8 C-1.33 7.34 -1.66 6.68 -2 6 C-2.33 6.66 -2.66 7.32 -3 8 C-4.32 8 -5.64 8 -7 8 C-7 7.01 -7 6.02 -7 5 C-4.46815512 2.64276511 -3.52809907 2 0 2 C0 1.34 0 0.68 0 0 Z " fill="#0F0F0F" transform="translate(284,163)"/>
<path d="M0 0 C0.99 0 1.98 0 3 0 C3 5.61 3 11.22 3 17 C2.01 17 1.02 17 0 17 C0 11.39 0 5.78 0 0 Z " fill="#010101" transform="translate(266,147)"/>
<path d="M0 0 C2.18975773 3.28463659 2.99806563 6.20696275 4 10 C2.02 10.99 2.02 10.99 0 12 C-1.85274014 8.87350101 -2.37198336 6.62683775 -2 3 C-1.34 2.01 -0.68 1.02 0 0 Z " fill="#222222" transform="translate(83,142)"/>
<path d="M0 0 C0.66 0.66 1.32 1.32 2 2 C4.10820797 1.6814823 4.10820797 1.6814823 6 1 C5.67 1.70125 5.34 2.4025 5 3.125 C3.81549424 5.99463305 3.81549424 5.99463305 4.0625 9.1875 C4.041875 10.115625 4.02125 11.04375 4 12 C3.01 12.66 2.02 13.32 1 14 C-0.04976964 10.85069107 -0.10131595 8.61185544 -0.0625 5.3125 C-0.05347656 4.31863281 -0.04445313 3.32476562 -0.03515625 2.30078125 C-0.02355469 1.54152344 -0.01195313 0.78226562 0 0 Z " fill="#F7F7F7" transform="translate(79,74)"/>
<path d="M0 0 C5.23175837 -0.38281159 8.37802694 0.78145293 13 3 C12.01 3.66 11.02 4.32 10 5 C10 4.34 10 3.68 10 3 C9.20335938 3.34224609 9.20335938 3.34224609 8.390625 3.69140625 C7.68421875 3.97886719 6.9778125 4.26632813 6.25 4.5625 C5.55390625 4.85253906 4.8578125 5.14257812 4.140625 5.44140625 C1.69987216 6.07831803 0.3596345 5.80248831 -2 5 C-1.67 4.67 -1.34 4.34 -1 4 C-0.63837971 2.67405895 -0.30271961 1.34061543 0 0 Z " fill="#5F5F5F" transform="translate(84,66)"/>
<path d="M0 0 C0.66 0 1.32 0 2 0 C2.33 0.66 2.66 1.32 3 2 C3.66 1.34 4.32 0.68 5 0 C5.33 0.99 5.66 1.98 6 3 C1.545 4.485 1.545 4.485 -3 6 C-3 9.3 -3 12.6 -3 16 C-3.33 16 -3.66 16 -4 16 C-4.02705729 14.22925083 -4.04642195 12.45838289 -4.0625 10.6875 C-4.07410156 9.70136719 -4.08570312 8.71523437 -4.09765625 7.69921875 C-4 5 -4 5 -3 2 C-2.01 2 -1.02 2 0 2 C0 1.34 0 0.68 0 0 Z " fill="#0D0D0D" transform="translate(81,67)"/>
<path d="M0 0 C2.31 0 4.62 0 7 0 C7 0.99 7 1.98 7 3 C7.99 2.67 8.98 2.34 10 2 C10.33 2.99 10.66 3.98 11 5 C8.36749612 6.31625194 7.19820944 5.74813658 4.375 5.0625 C3.55773437 4.86785156 2.74046875 4.67320312 1.8984375 4.47265625 C0.95871094 4.23869141 0.95871094 4.23869141 0 4 C0 2.68 0 1.36 0 0 Z " fill="#F2F2F2" transform="translate(149,202)"/>
<path d="M0 0 C0.66 0 1.32 0 2 0 C3.11658501 4.68965706 2.80619523 7.53763531 1 12 C0.01 11.67 -0.98 11.34 -2 11 C-1 3.57142857 -1 3.57142857 0 0 Z " fill="#161616" transform="translate(199,156)"/>
<path d="M0 0 C0.33 0 0.66 0 1 0 C1 1.65 1 3.3 1 5 C1.66 5 2.32 5 3 5 C3.33 7.31 3.66 9.62 4 12 C2.68 12.33 1.36 12.66 0 13 C-0.83796731 8.34462607 -1.0161692 4.62921525 0 0 Z " fill="#080808" transform="translate(80,201)"/>
<path d="M0 0 C1.32 0 2.64 0 4 0 C3.8125 2.3125 3.8125 2.3125 3 5 C0.4375 6.8125 0.4375 6.8125 -2 8 C-2.66 7.34 -3.32 6.68 -4 6 C-2.25 3 -2.25 3 0 0 Z " fill="#161616" transform="translate(310,164)"/>
<path d="M0 0 C0.33 1.98 0.66 3.96 1 6 C-0.62463842 6.05395478 -2.24978541 6.09277195 -3.875 6.125 C-4.77992187 6.14820312 -5.68484375 6.17140625 -6.6171875 6.1953125 C-9 6 -9 6 -11 4 C-9.02 4 -7.04 4 -5 4 C-4.67 3.01 -4.34 2.02 -4 1 C-1 0 -1 0 0 0 Z " fill="#030303" transform="translate(93,93)"/>
<path d="M0 0 C1.32 0 2.64 0 4 0 C4 0.66 4 1.32 4 2 C4.99 2.33 5.98 2.66 7 3 C6.6875 4.875 6.6875 4.875 6 7 C5.01 7.66 4.02 8.32 3 9 C3 8.01 3 7.02 3 6 C2.01 6.495 2.01 6.495 1 7 C1 6.01 1 5.02 1 4 C0.34 4 -0.32 4 -1 4 C-0.67 2.68 -0.34 1.36 0 0 Z " fill="#F2F2F2" transform="translate(42,48)"/>
<path d="M0 0 C0.33 0.66 0.66 1.32 1 2 C2.32 2 3.64 2 5 2 C5.66 2 6.32 2 7 2 C5.52307692 6.67692308 5.52307692 6.67692308 2.875 8.3125 C1.946875 8.6528125 1.946875 8.6528125 1 9 C-1 6 -1 6 -0.625 2.8125 C-0.41875 1.884375 -0.2125 0.95625 0 0 Z " fill="#E3E3E3" transform="translate(97,209)"/>
<path d="M0 0 C1.093125 0.0825 2.18625 0.165 3.3125 0.25 C2.3225 0.745 2.3225 0.745 1.3125 1.25 C1.3125 1.91 1.3125 2.57 1.3125 3.25 C-0.33083504 4.28789581 -1.99993867 5.28567924 -3.6875 6.25 C-4.3475 6.91 -5.0075 7.57 -5.6875 8.25 C-6.3475 8.25 -7.0075 8.25 -7.6875 8.25 C-6.76338711 3.07496779 -5.52955936 0.37488538 0 0 Z " fill="#070707" transform="translate(191.6875,195.75)"/>
<path d="M0 0 C0.33 0 0.66 0 1 0 C1 3.63 1 7.26 1 11 C-0.32 11.33 -1.64 11.66 -3 12 C-3 12.66 -3 13.32 -3 14 C-2.34 14.33 -1.68 14.66 -1 15 C-1.99 15 -2.98 15 -4 15 C-4 14.34 -4 13.68 -4 13 C-4.66 13 -5.32 13 -6 13 C-5 10 -5 10 -3 8.1875 C-0.53883472 5.49560047 -0.32480368 3.57284046 0 0 Z " fill="#D9D9D9" transform="translate(58,191)"/>
<path d="M0 0 C0.66 0 1.32 0 2 0 C2 0.99 2 1.98 2 3 C2.66 3.33 3.32 3.66 4 4 C-1.92941176 6.47058824 -1.92941176 6.47058824 -5 7 C-5.66 6.67 -6.32 6.34 -7 6 C-7 5.34 -7 4.68 -7 4 C-6.01 4 -5.02 4 -4 4 C-3.67 3.01 -3.34 2.02 -3 1 C-2.34 1.33 -1.68 1.66 -1 2 C-0.67 1.34 -0.34 0.68 0 0 Z " fill="#202020" transform="translate(59,66)"/>
<path d="M0 0 C1.10844919 3.32534757 0.84454356 5.62182575 0 9 C-1.32 9.33 -2.64 9.66 -4 10 C-4.25 6.6875 -4.25 6.6875 -4 3 C-2 1.0625 -2 1.0625 0 0 Z " fill="#090909" transform="translate(42,205)"/>
<path d="M0 0 C0.99 0.33 1.98 0.66 3 1 C4.1875 4.5625 4.1875 4.5625 5 8 C4.01 8 3.02 8 2 8 C2.2784375 8.928125 2.2784375 8.928125 2.5625 9.875 C3 12 3 12 2 14 C1.34 14 0.68 14 0 14 C0 9.38 0 4.76 0 0 Z " fill="#F6F6F6" transform="translate(58,187)"/>
<path d="M0 0 C1.66611905 -0.042721 3.33382885 -0.04063832 5 0 C5.33 0.33 5.66 0.66 6 1 C6.33 1 6.66 1 7 1 C7 2.98 7 4.96 7 7 C6.236875 6.649375 5.47375 6.29875 4.6875 5.9375 C1.95240621 4.67639116 1.95240621 4.67639116 -1 6 C-0.67 4.68 -0.34 3.36 0 2 C0.66 2.33 1.32 2.66 2 3 C2 2.34 2 1.68 2 1 C1.34 0.67 0.68 0.34 0 0 Z " fill="#232323" transform="translate(72,55)"/>
<path d="M0 0 C0.94875 0.04125 1.8975 0.0825 2.875 0.125 C2.545 1.775 2.215 3.425 1.875 5.125 C-0.125 5.125 -2.125 5.125 -4.125 5.125 C-4.455 4.135 -4.785 3.145 -5.125 2.125 C-3.125 0.125 -3.125 0.125 0 0 Z " fill="#F4F4F4" transform="translate(223.125,199.875)"/>
<path d="M0 0 C3.125 0.375 3.125 0.375 6 1 C5.03320312 1.30550781 5.03320312 1.30550781 4.046875 1.6171875 C1.68846128 2.8667935 1.68846128 2.8667935 1.390625 5.8203125 C1.34421875 6.91085938 1.2978125 8.00140625 1.25 9.125 C1.19328125 10.22070312 1.1365625 11.31640625 1.078125 12.4453125 C1.05234375 13.28835937 1.0265625 14.13140625 1 15 C0.67 15 0.34 15 0 15 C0 11.37 0 7.74 0 4 C-0.66 4 -1.32 4 -2 4 C-2.33 4.99 -2.66 5.98 -3 7 C-2.25 2.25 -2.25 2.25 0 0 Z " fill="#FAFAFA" transform="translate(113,193)"/>
<path d="M0 0 C0.66 1.32 1.32 2.64 2 4 C1.67 4.33 1.34 4.66 1 5 C0.96854193 7.29643908 1.0680779 9.57650129 1.16015625 11.87109375 C1 14 1 14 -1 16 C-2.32 15.34 -3.64 14.68 -5 14 C-3.68 14 -2.36 14 -1 14 C-1.33 9.71 -1.66 5.42 -2 1 C-1.34 0.67 -0.68 0.34 0 0 Z " fill="#D8D8D8" transform="translate(234,149)"/>
<path d="M0 0 C2.64 0.33 5.28 0.66 8 1 C7.0409375 1.6496875 7.0409375 1.6496875 6.0625 2.3125 C3.73253997 3.91239177 3.73253997 3.91239177 3 7 C2.01 7 1.02 7 0 7 C0 4.69 0 2.38 0 0 Z " fill="#E5E5E5" transform="translate(145,209)"/>
<path d="M0 0 C0.99 0.33 1.98 0.66 3 1 C2.34 2.65 1.68 4.3 1 6 C0.34 6 -0.32 6 -1 6 C-1 9.63 -1 13.26 -1 17 C-1.33 17 -1.66 17 -2 17 C-2.05383848 14.54137599 -2.09359038 12.0839245 -2.125 9.625 C-2.14175781 8.92632812 -2.15851563 8.22765625 -2.17578125 7.5078125 C-2.19344267 5.67102514 -2.10303261 3.83398037 -2 2 C-1.34 1.34 -0.68 0.68 0 0 Z " fill="#FAFAFA" transform="translate(139,193)"/>
<path d="M0 0 C2 1 2 1 5 3 C3.33333333 4.66666667 1.66666667 6.33333333 0 8 C-0.66 8 -1.32 8 -2 8 C-2.6875 6.25 -2.6875 6.25 -3 4 C-1.5625 1.75 -1.5625 1.75 0 0 Z " fill="#161616" transform="translate(83,189)"/>
<path d="M0 0 C0.33 0 0.66 0 1 0 C1.1953125 6.0546875 1.1953125 6.0546875 1 8 C0.34 8.66 -0.32 9.32 -1 10 C-3.125 9.625 -3.125 9.625 -5 9 C-4.34 8.01 -3.68 7.02 -3 6 C-2.36707617 3.88719655 -2.36707617 3.88719655 -2 2 C-1.34 2 -0.68 2 0 2 C0 1.34 0 0.68 0 0 Z " fill="#0A0A0A" transform="translate(152,144)"/>
<path d="M0 0 C0.66 0.66 1.32 1.32 2 2 C1.67 2.33 1.34 2.66 1 3 C1.99 3.66 2.98 4.32 4 5 C4 5.66 4 6.32 4 7 C2.02 7 0.04 7 -2 7 C-2 6.01 -2 5.02 -2 4 C-2.99 4.33 -3.98 4.66 -5 5 C-5.66 4.34 -6.32 3.68 -7 3 C-3.535 2.505 -3.535 2.505 0 2 C0 1.34 0 0.68 0 0 Z " fill="#676767" transform="translate(64,90)"/>
<path d="M0 0 C0.33 0 0.66 0 1 0 C1.33 4.29 1.66 8.58 2 13 C0.35 13 -1.3 13 -3 13 C-3 11.68 -3 10.36 -3 9 C-2.34 9 -1.68 9 -1 9 C-0.67 6.03 -0.34 3.06 0 0 Z " fill="#1D1D1D" transform="translate(41,77)"/>
<path d="M0 0 C3 1 3 1 5 4 C5 4.99 5 5.98 5 7 C2.625 6.6875 2.625 6.6875 0 6 C-0.66 5.01 -1.32 4.02 -2 3 C-1.34 2.01 -0.68 1.02 0 0 Z " fill="#1A1A1A" transform="translate(267,196)"/>
<path d="M0 0 C1.41623216 -0.05447047 2.83308191 -0.09300508 4.25 -0.125 C5.03890625 -0.14820313 5.8278125 -0.17140625 6.640625 -0.1953125 C9.20731941 0.0171622 10.7916067 0.71345895 13 2 C13 2.66 13 3.32 13 4 C11.02 4.33 9.04 4.66 7 5 C7 4.01 7 3.02 7 2 C4.69 1.67 2.38 1.34 0 1 C0 0.67 0 0.34 0 0 Z " fill="#272727" transform="translate(90,185)"/>
<path d="M0 0 C0.66 0.33 1.32 0.66 2 1 C1.34 3.31 0.68 5.62 0 8 C-0.99 8 -1.98 8 -3 8 C-3.66 8.66 -4.32 9.32 -5 10 C-4.49701212 5.59885603 -2.91227269 3.28804981 0 0 Z " fill="#252525" transform="translate(215,147)"/>
<path d="M0 0 C1.10682876 3.32048629 0.857468 3.79430266 0 7 C-0.2198223 9.24707241 -0.40483987 11.49771238 -0.5625 13.75 C-0.64628906 14.92046875 -0.73007812 16.0909375 -0.81640625 17.296875 C-0.87699219 18.18890625 -0.93757813 19.0809375 -1 20 C-1.33 20 -1.66 20 -2 20 C-2.24798276 17.04213336 -2.47411854 14.08538702 -2.6875 11.125 C-2.76033203 10.28324219 -2.83316406 9.44148438 -2.90820312 8.57421875 C-2.96298828 7.76855469 -3.01777344 6.96289062 -3.07421875 6.1328125 C-3.13182373 5.38918457 -3.18942871 4.64555664 -3.2487793 3.87939453 C-3.16668213 3.25919434 -3.08458496 2.63899414 -3 2 C-2.01 1.34 -1.02 0.68 0 0 Z " fill="#C3C3C3" transform="translate(39,65)"/>
<path d="M0 0 C0 0.33 0 0.66 0 1 C-3.12201225 1.5599503 -6.24780684 2.09481495 -9.375 2.625 C-10.70917969 2.86476562 -10.70917969 2.86476562 -12.0703125 3.109375 C-12.92109375 3.25117187 -13.771875 3.39296875 -14.6484375 3.5390625 C-15.82672119 3.74329834 -15.82672119 3.74329834 -17.02880859 3.95166016 C-17.67930176 3.9676123 -18.32979492 3.98356445 -19 4 C-19.66 3.34 -20.32 2.68 -21 2 C-17.2358613 -1.7641387 -5.10621594 -0.08370846 0 0 Z " fill="#C4C4C5" transform="translate(78,43)"/>
<path d="M0 0 C0.1875 2.375 0.1875 2.375 0 5 C-3.22791555 7.1519437 -4.28400809 7.20086443 -8 7 C-8 6.01 -8 5.02 -8 4 C-6.68 4 -5.36 4 -4 4 C-3.67 3.01 -3.34 2.02 -3 1 C-1 0 -1 0 0 0 Z " fill="#0D0D0D" transform="translate(272,214)"/>
<path d="M0 0 C-0.33 1.32 -0.66 2.64 -1 4 C-3.31 3.67 -5.62 3.34 -8 3 C-8.33 2.01 -8.66 1.02 -9 0 C-5.52176885 -1.15941038 -3.54104422 -0.70820884 0 0 Z " fill="#F4F4F4" transform="translate(157,212)"/>
<path d="M0 0 C3.47200492 0.61724532 6.36035831 0.10920148 9.8125 -0.5 C10.1425 0.49 10.4725 1.48 10.8125 2.5 C6.1925 2.83 1.5725 3.16 -3.1875 3.5 C-3.5175 2.51 -3.8475 1.52 -4.1875 0.5 C-2.1875 -0.5 -2.1875 -0.5 0 0 Z " fill="#F8F8F8" transform="translate(257.1875,192.5)"/>
<path d="M0 0 C1.485 0.99 1.485 0.99 3 2 C3.1875 5.625 3.1875 5.625 3 9 C1.68 8.67 0.36 8.34 -1 8 C-1.125 2.25 -1.125 2.25 0 0 Z " fill="#0B0B0B" transform="translate(55,188)"/>
<path d="M0 0 C1.65 0 3.3 0 5 0 C4.43628586 3.26954202 3.50037734 4.82575883 1 7 C0.34 6.34 -0.32 5.68 -1 5 C-0.625 2.375 -0.625 2.375 0 0 Z " fill="#1E1E1E" transform="translate(228,164)"/>
<path d="M0 0 C0.66 0.33 1.32 0.66 2 1 C2 3.31 2 5.62 2 8 C0.02 8.66 -1.96 9.32 -4 10 C-3.67 8.35 -3.34 6.7 -3 5 C-2.67 5.66 -2.34 6.32 -2 7 C-1.34 7 -0.68 7 0 7 C-0.185625 6.401875 -0.37125 5.80375 -0.5625 5.1875 C-1 3 -1 3 0 0 Z " fill="#E8E8E8" transform="translate(93,74)"/>
<path d="M0 0 C3.04386724 -0.08226668 5.07175348 0.02391783 8 1 C8.33 2.65 8.66 4.3 9 6 C8.01 6.33 7.02 6.66 6 7 C1.125 2.25 1.125 2.25 0 0 Z " fill="#131313" transform="translate(89,69)"/>
<path d="M0 0 C1.04976964 3.14930893 1.10131595 5.38814456 1.0625 8.6875 C1.05347656 9.68136719 1.04445313 10.67523438 1.03515625 11.69921875 C1.02355469 12.45847656 1.01195313 13.21773437 1 14 C0.67 14 0.34 14 0 14 C-0.33 11.03 -0.66 8.06 -1 5 C-3.475 4.01 -3.475 4.01 -6 3 C-3.375 0 -3.375 0 0 0 Z " fill="#191919" transform="translate(72,69)"/>
<path d="M0 0 C0.99 1.32 1.98 2.64 3 4 C2.34 4 1.68 4 1 4 C1.33 5.32 1.66 6.64 2 8 C-2.875 5.375 -2.875 5.375 -4 2 C-2.68 1.34 -1.36 0.68 0 0 Z " fill="#1B1B1B" transform="translate(84,212)"/>
<path d="M0 0 C0.33 1.32 0.66 2.64 1 4 C4.93075644 3.42547254 4.93075644 3.42547254 8 1 C7.25 5.75 7.25 5.75 5 8 C4.01 8 3.02 8 2 8 C-0.1519437 4.77208445 -0.20086443 3.71599191 0 0 Z " fill="#D2D2D2" transform="translate(46,191)"/>
<path d="M0 0 C0.33 1.65 0.66 3.3 1 5 C0.01 5.33 -0.98 5.66 -2 6 C-3.66710346 7.49985609 -3.66710346 7.49985609 -5 9 C-6 7 -6 7 -5.75 5.0625 C-4.66218737 2.07101528 -3.33872635 0 0 0 Z " fill="#FAFAFA" transform="translate(184,193)"/>
<path d="M0 0 C0.66 0.66 1.32 1.32 2 2 C2.66 1.67 3.32 1.34 4 1 C3.67 2.65 3.34 4.3 3 6 C2.34 6 1.68 6 1 6 C1 9.63 1 13.26 1 17 C0.67 17 0.34 17 0 17 C0 11.39 0 5.78 0 0 Z " fill="#FAFAFA" transform="translate(243,154)"/>
<path d="M0 0 C0.33 0.99 0.66 1.98 1 3 C1.99 3 2.98 3 4 3 C3.67 3.99 3.34 4.98 3 6 C3 5.34 3 4.68 3 4 C2.34 4 1.68 4 1 4 C1.66 5.65 2.32 7.3 3 9 C1.02 9 -0.96 9 -3 9 C-2.01 6.03 -1.02 3.06 0 0 Z " fill="#050505" transform="translate(85,85)"/>
<path d="M0 0 C1.65 0 3.3 0 5 0 C5 1.98 5 3.96 5 6 C3.68 5.67 2.36 5.34 1 5 C0.67 3.35 0.34 1.7 0 0 Z " fill="#303030" transform="translate(251,213)"/>
<path d="M0 0 C1.32 0 2.64 0 4 0 C4.625 2.375 4.625 2.375 5 5 C4.34 5.66 3.68 6.32 3 7 C1.68 5.68 0.36 4.36 -1 3 C-0.67 2.01 -0.34 1.02 0 0 Z " fill="#F9F9F9" transform="translate(187,207)"/>
<path d="M0 0 C1.98 0 3.96 0 6 0 C6.66 1.32 7.32 2.64 8 4 C6.02 4 4.04 4 2 4 C1.34 2.68 0.68 1.36 0 0 Z " fill="#0A0A0A" transform="translate(143,205)"/>
<path d="M0 0 C0.33 0.99 0.66 1.98 1 3 C1.99 3.33 2.98 3.66 4 4 C2.68 4 1.36 4 0 4 C-0.33 5.32 -0.66 6.64 -1 8 C-1.66 7.67 -2.32 7.34 -3 7 C-3.625 4.4375 -3.625 4.4375 -4 2 C-2.68 1.34 -1.36 0.68 0 0 Z " fill="#E3E3E3" transform="translate(59,201)"/>
<path d="M0 0 C1.65 0 3.3 0 5 0 C5 2.31 5 4.62 5 7 C3.0625 6.3125 3.0625 6.3125 1 5 C0.25 2.375 0.25 2.375 0 0 Z " fill="#ECECEC" transform="translate(163,161)"/>
<path d="M0 0 C1.65 0 3.3 0 5 0 C5.33 1.32 5.66 2.64 6 4 C4.68 4.99 3.36 5.98 2 7 C1.34 4.69 0.68 2.38 0 0 Z " fill="#262626" transform="translate(184,146)"/>
<path d="M0 0 C0.66 0 1.32 0 2 0 C2 0.99 2 1.98 2 3 C2.66 3.33 3.32 3.66 4 4 C0.87819599 4.96661363 -1.52083795 4.98988909 -4.75 4.5625 C-5.94882813 4.40974609 -5.94882813 4.40974609 -7.171875 4.25390625 C-7.77515625 4.17011719 -8.3784375 4.08632812 -9 4 C-9 3.67 -9 3.34 -9 3 C-8.43410156 2.86722656 -7.86820312 2.73445312 -7.28515625 2.59765625 C-6.18494141 2.33275391 -6.18494141 2.33275391 -5.0625 2.0625 C-4.33160156 1.88847656 -3.60070312 1.71445313 -2.84765625 1.53515625 C-1.00030102 1.16112431 -1.00030102 1.16112431 0 0 Z " fill="#DFDFDF" transform="translate(130,219)"/>
<path d="M0 0 C0.33 0.66 0.66 1.32 1 2 C1.66 2 2.32 2 3 2 C2.67 3.32 2.34 4.64 2 6 C2 5.34 2 4.68 2 4 C1.1646875 4.556875 1.1646875 4.556875 0.3125 5.125 C-2 6 -2 6 -4.75 5.125 C-5.4925 4.75375 -6.235 4.3825 -7 4 C-7 3.67 -7 3.34 -7 3 C-5.5459375 2.5359375 -5.5459375 2.5359375 -4.0625 2.0625 C-1.15934208 1.30476658 -1.15934208 1.30476658 0 0 Z " fill="#222222" transform="translate(130,215)"/>
<path d="M0 0 C0.33 0 0.66 0 1 0 C1 5.28 1 10.56 1 16 C0.01 16 -0.98 16 -2 16 C-2 14.35 -2 12.7 -2 11 C-1.67 11 -1.34 11 -1 11 C-0.67 7.37 -0.34 3.74 0 0 Z " fill="#FAFAFA" transform="translate(61,157)"/>
<path d="M0 0 C0.99 0.33 1.98 0.66 3 1 C2.67 2.65 2.34 4.3 2 6 C1.01 6.33 0.02 6.66 -1 7 C-1.33 5.02 -1.66 3.04 -2 1 C-1.34 0.67 -0.68 0.34 0 0 Z " fill="#F7F7F7" transform="translate(99,136)"/>
<path d="M0 0 C1.32 0.33 2.64 0.66 4 1 C4 3.97 4 6.94 4 10 C3.01 9.67 2.02 9.34 1 9 C0.67 6.03 0.34 3.06 0 0 Z " fill="#444444" transform="translate(73,68)"/>
<path d="M0 0 C1.32 0 2.64 0 4 0 C4 0.66 4 1.32 4 2 C5.65 2.33 7.3 2.66 9 3 C9 3.66 9 4.32 9 5 C6.75 5.3125 6.75 5.3125 4 5 C1.6875 2.5 1.6875 2.5 0 0 Z " fill="#323232" transform="translate(58,217)"/>
<path d="M0 0 C0.33 0 0.66 0 1 0 C1.66 2.97 2.32 5.94 3 9 C0 9 0 9 -3 7 C-2.67 6.01 -2.34 5.02 -2 4 C-1.34 4 -0.68 4 0 4 C0 2.68 0 1.36 0 0 Z " fill="#101010" transform="translate(185,207)"/>
<path d="M0 0 C2.875 -0.4375 2.875 -0.4375 6 0 C8.375 2 8.375 2 10 4 C9.01 4 8.02 4 7 4 C7 3.34 7 2.68 7 2 C2.545 2.495 2.545 2.495 -2 3 C-1.34 2.01 -0.68 1.02 0 0 Z " fill="#D3D3D3" transform="translate(190,199)"/>
<path d="M0 0 C6.75 -0.125 6.75 -0.125 9 1 C9 1.99 9 2.98 9 4 C7.02 4 5.04 4 3 4 C3 3.34 3 2.68 3 2 C2.01 1.34 1.02 0.68 0 0 Z " fill="#272727" transform="translate(190,195)"/>
<path d="M0 0 C3 1 3 1 5 4 C7.56282742 4.72965366 7.56282742 4.72965366 10 5 C10 5.33 10 5.66 10 6 C3.375 6.25 3.375 6.25 0 4 C0 2.68 0 1.36 0 0 Z " fill="#CECECE" transform="translate(216,163)"/>
<path d="M0 0 C0.99 0.99 1.98 1.98 3 3 C3.66 2.67 4.32 2.34 5 2 C4.67 2.99 4.34 3.98 4 5 C2.02 5 0.04 5 -2 5 C-2.33 3.68 -2.66 2.36 -3 1 C-2.01 0.67 -1.02 0.34 0 0 Z " fill="#B5B5B5" transform="translate(89,88)"/>
<path d="M0 0 C0.66 0.33 1.32 0.66 2 1 C1.67 2.65 1.34 4.3 1 6 C-0.65 6 -2.3 6 -4 6 C-2.25 1.125 -2.25 1.125 0 0 Z " fill="#0E0E0E" transform="translate(45,60)"/>
<path d="M0 0 C1.32 1.65 2.64 3.3 4 5 C3.34 5 2.68 5 2 5 C1.67 5.99 1.34 6.98 1 8 C0.01 7.01 -0.98 6.02 -2 5 C-1.34 3.35 -0.68 1.7 0 0 Z " fill="#191919" transform="translate(53,204)"/>
<path d="M0 0 C1.08667969 0.11085937 2.17335937 0.22171875 3.29296875 0.3359375 C4.12441406 0.43132812 4.95585937 0.52671875 5.8125 0.625 C5.8125 0.955 5.8125 1.285 5.8125 1.625 C4.67361328 1.69847656 4.67361328 1.69847656 3.51171875 1.7734375 C2.51785156 1.84820312 1.52398437 1.92296875 0.5 2 C-0.97919922 2.10441406 -0.97919922 2.10441406 -2.48828125 2.2109375 C-5.40278433 2.46365472 -5.40278433 2.46365472 -8.1875 4.625 C-8.5175 3.635 -8.8475 2.645 -9.1875 1.625 C-5.54331659 -0.80445561 -4.25826636 -0.4578781 0 0 Z " fill="#B7B7B7" transform="translate(150.1875,194.375)"/>
<path d="M0 0 C-0.8125 2.4375 -0.8125 2.4375 -2 5 C-2.99 5.33 -3.98 5.66 -5 6 C-5.66 4.68 -6.32 3.36 -7 2 C-2.25 0 -2.25 0 0 0 Z " fill="#202020" transform="translate(248,146)"/>
<path d="M0 0 C0.33 0 0.66 0 1 0 C1 1.65 1 3.3 1 5 C1.66 5.33 2.32 5.66 3 6 C1.02 6.99 1.02 6.99 -1 8 C-1.66 6.68 -2.32 5.36 -3 4 C-2.01 3.67 -1.02 3.34 0 3 C0 2.01 0 1.02 0 0 Z " fill="#F5F5F5" transform="translate(53,97)"/>
<path d="M0 0 C0.33 1.32 0.66 2.64 1 4 C0.34 4 -0.32 4 -1 4 C-1 4.99 -1 5.98 -1 7 C-0.34 7.33 0.32 7.66 1 8 C0.34 8.66 -0.32 9.32 -1 10 C-1 9.34 -1 8.68 -1 8 C-1.66 7.67 -2.32 7.34 -3 7 C-2.67 6.01 -2.34 5.02 -2 4 C-2.66 3.67 -3.32 3.34 -4 3 C-3 1 -3 1 0 0 Z " fill="#D8D8D8" transform="translate(100,69)"/>
<path d="M0 0 C0.763125 0.309375 1.52625 0.61875 2.3125 0.9375 C4.18789677 1.67893593 6.08684652 2.36228217 8 3 C6.625 4.5 6.625 4.5 5 6 C4.34 6 3.68 6 3 6 C0 2.53846154 0 2.53846154 0 0 Z " fill="#1F1F1F" transform="translate(182,214)"/>
<path d="M0 0 C1.134375 0.020625 2.26875 0.04125 3.4375 0.0625 C3.4375 0.3925 3.4375 0.7225 3.4375 1.0625 C1.4575 1.0625 -0.5225 1.0625 -2.5625 1.0625 C-2.2325 2.3825 -1.9025 3.7025 -1.5625 5.0625 C-2.8825 5.0625 -4.2025 5.0625 -5.5625 5.0625 C-4.43693182 0.07784091 -4.43693182 0.07784091 0 0 Z " fill="#BCBCBC" transform="translate(261.5625,198.9375)"/>
<path d="M0 0 C1.98 0.99 1.98 0.99 4 2 C4 3.32 4 4.64 4 6 C2.68 6 1.36 6 0 6 C0 4.02 0 2.04 0 0 Z " fill="#141414" transform="translate(157,197)"/>
<path d="M0 0 C0.99 0 1.98 0 3 0 C2.67 4.29 2.34 8.58 2 13 C1.67 13 1.34 13 1 13 C0.67 8.71 0.34 4.42 0 0 Z " fill="#060606" transform="translate(132,196)"/>
<path d="M0 0 C0.99 0.33 1.98 0.66 3 1 C2.34 2.32 1.68 3.64 1 5 C-0.98 5 -2.96 5 -5 5 C-3.35 3.35 -1.7 1.7 0 0 Z " fill="#F5F5F5" transform="translate(278,163)"/>
<path d="M0 0 C1.4540625 0.0309375 1.4540625 0.0309375 2.9375 0.0625 C2.9375 1.3825 2.9375 2.7025 2.9375 4.0625 C-1.8125 3.3125 -1.8125 3.3125 -4.0625 1.0625 C-3.0625 0.0625 -3.0625 0.0625 0 0 Z " fill="#0C0C0C" transform="translate(307.0625,146.9375)"/>
<path d="M0 0 C0.66 0.33 1.32 0.66 2 1 C2 1.66 2 2.32 2 3 C2.66 3 3.32 3 4 3 C4.33 3.99 4.66 4.98 5 6 C4.01 6.33 3.02 6.66 2 7 C1.34 5.68 0.68 4.36 0 3 C-0.66 3 -1.32 3 -2 3 C-1 1 -1 1 0 0 Z " fill="#F4F4F4" transform="translate(47,91)"/>
<path d="M0 0 C2.64 0 5.28 0 8 0 C8.33 1.65 8.66 3.3 9 5 C5.54074837 3.7508258 2.85306797 2.32472205 0 0 Z " fill="#666666" transform="translate(67,92)"/>
<path d="M0 0 C0.33 0 0.66 0 1 0 C1 2.97 1 5.94 1 9 C1.66 9.33 2.32 9.66 3 10 C3 11.32 3 12.64 3 14 C1.68 13.34 0.36 12.68 -1 12 C-0.67 8.04 -0.34 4.08 0 0 Z " fill="#7F7F7F" transform="translate(71,74)"/>
<path d="M0 0 C0.99 0 1.98 0 3 0 C3 2.64 3 5.28 3 8 C2.34 8 1.68 8 1 8 C0 2.25 0 2.25 0 0 Z " fill="#171717" transform="translate(51,74)"/>
<path d="M0 0 C0.33 0.66 0.66 1.32 1 2 C2.65 2 4.3 2 6 2 C5.6875 3.9375 5.6875 3.9375 5 6 C4.01 6.33 3.02 6.66 2 7 C2 6.34 2 5.68 2 5 C1.34 5 0.68 5 0 5 C0 3.35 0 1.7 0 0 Z " fill="#F9F9F9" transform="translate(179,217)"/>
<path d="M0 0 C-0.33 0.99 -0.66 1.98 -1 3 C-3.31 3 -5.62 3 -8 3 C-8 2.34 -8 1.68 -8 1 C-5.29120665 -0.35439668 -2.99066732 -0.06501451 0 0 Z " fill="#E7E7E7" transform="translate(53,215)"/>
<path d="M0 0 C1.32 0 2.64 0 4 0 C3.625 1.9375 3.625 1.9375 3 4 C2.01 4.495 2.01 4.495 1 5 C0.01 4.01 -0.98 3.02 -2 2 C-1.34 1.34 -0.68 0.68 0 0 Z " fill="#1A1A1A" transform="translate(53,196)"/>
<path d="M0 0 C6.625 -0.25 6.625 -0.25 10 2 C9.67 2.66 9.34 3.32 9 4 C6.9375 4.625 6.9375 4.625 5 5 C4.67 4.34 4.34 3.68 4 3 C4.33 2.34 4.66 1.68 5 1 C3.35 1 1.7 1 0 1 C0 0.67 0 0.34 0 0 Z " fill="#373737" transform="translate(220,195)"/>
<path d="M0 0 C0.66 1.32 1.32 2.64 2 4 C0.35 5.65 -1.3 7.3 -3 9 C-2.5020163 5.26512223 -2.12508244 3.18762365 0 0 Z " fill="#CCCCCC" transform="translate(86,192)"/>
<path d="M0 0 C1.2065625 0.0309375 1.2065625 0.0309375 2.4375 0.0625 C2.4375 0.7225 2.4375 1.3825 2.4375 2.0625 C3.0975 2.3925 3.7575 2.7225 4.4375 3.0625 C1.4675 3.0625 -1.5025 3.0625 -4.5625 3.0625 C-3.06867284 0.07484568 -3.06867284 0.07484568 0 0 Z " fill="#070707" transform="translate(274.5625,168.9375)"/>
<path d="M0 0 C0 0.66 0 1.32 0 2 C0.66 2.33 1.32 2.66 2 3 C2 3.66 2 4.32 2 5 C-0.375 5.1875 -0.375 5.1875 -3 5 C-3.66 4.01 -4.32 3.02 -5 2 C-2 0 -2 0 0 0 Z " fill="#D4D4D4" transform="translate(275,164)"/>
<path d="M0 0 C2.97 0.33 5.94 0.66 9 1 C8.67 1.99 8.34 2.98 8 4 C8 3.34 8 2.68 8 2 C6.68 2 5.36 2 4 2 C3.67 2.99 3.34 3.98 3 5 C2.34 4.67 1.68 4.34 1 4 C0.67 2.68 0.34 1.36 0 0 Z " fill="#D2D2D2" transform="translate(306,162)"/>
<path d="M0 0 C0.99 0.33 1.98 0.66 3 1 C2.67 2.65 2.34 4.3 2 6 C1.67 5.34 1.34 4.68 1 4 C0.34 4 -0.32 4 -1 4 C-1 4.66 -1 5.32 -1 6 C-1.66 6 -2.32 6 -3 6 C-3 4.35 -3 2.7 -3 1 C-1.02 1.99 -1.02 1.99 1 3 C0.67 2.01 0.34 1.02 0 0 Z " fill="#141414" transform="translate(73,85)"/>
<path d="M0 0 C0.99 0.33 1.98 0.66 3 1 C3.6875 3.0625 3.6875 3.0625 4 5 C2.02 5.99 2.02 5.99 0 7 C-1.125 2.25 -1.125 2.25 0 0 Z " fill="#F7F7F7" transform="translate(98,60)"/>
<path d="M0 0 C0.99 0 1.98 0 3 0 C2.67 1.32 2.34 2.64 2 4 C2.99 4.33 3.98 4.66 5 5 C4.01 5.495 4.01 5.495 3 6 C0.375 4.5625 0.375 4.5625 -2 3 C-1.34 2.01 -0.68 1.02 0 0 Z " fill="#D8D8D8" transform="translate(85,41)"/>
<path d="M0 0 C0.99 0.33 1.98 0.66 3 1 C3.6875 3.0625 3.6875 3.0625 4 5 C2.35 5.33 0.7 5.66 -1 6 C-0.67 4.02 -0.34 2.04 0 0 Z " fill="#E1E1E1" transform="translate(187,202)"/>
<path d="M0 0 C2.475 0.99 2.475 0.99 5 2 C4.34 2.66 3.68 3.32 3 4 C2.60235737 5.98821313 2.26224651 7.98944339 2 10 C1.34 9.67 0.68 9.34 0 9 C0 6.03 0 3.06 0 0 Z " fill="#DADADA" transform="translate(82,77)"/>
<path d="M0 0 C-0.33 0.99 -0.66 1.98 -1 3 C-3.31 3 -5.62 3 -8 3 C-7.67 2.01 -7.34 1.02 -7 0 C-4.05610218 -1.17755913 -3.10046087 -1.03348696 0 0 Z " fill="#F7F7F7" transform="translate(80,51)"/>
<path d="M0 0 C2.475 0.495 2.475 0.495 5 1 C5.33 1.99 5.66 2.98 6 4 C4.35 4.33 2.7 4.66 1 5 C0.67 3.35 0.34 1.7 0 0 Z " fill="#232323" transform="translate(80,44)"/>
<path d="M0 0 C2.97 0.495 2.97 0.495 6 1 C5.01 1.495 5.01 1.495 4 2 C4 2.66 4 3.32 4 4 C2.35 3.67 0.7 3.34 -1 3 C-0.67 2.01 -0.34 1.02 0 0 Z " fill="#0A0A0A" transform="translate(64,45)"/>
<path d="M0 0 C4.455 0.99 4.455 0.99 9 2 C9 2.33 9 2.66 9 3 C6.69 3.33 4.38 3.66 2 4 C1.34 2.68 0.68 1.36 0 0 Z M-1 3 C-0.34 3 0.32 3 1 3 C0.67 3.66 0.34 4.32 0 5 C-0.33 4.34 -0.66 3.68 -1 3 Z " fill="#222222" transform="translate(255,216)"/>
<path d="M0 0 C2.64 0 5.28 0 8 0 C7.67 0.99 7.34 1.98 7 3 C4.0625 2.625 4.0625 2.625 1 2 C0.67 1.34 0.34 0.68 0 0 Z " fill="#030303" transform="translate(259,196)"/>
<path d="M0 0 C1.98 0 3.96 0 6 0 C6.33 0.99 6.66 1.98 7 3 C4.36 3 1.72 3 -1 3 C-0.67 2.01 -0.34 1.02 0 0 Z " fill="#020202" transform="translate(301,169)"/>
<path d="M0 0 C0.66 0 1.32 0 2 0 C2 2.31 2 4.62 2 7 C1.01 6.67 0.02 6.34 -1 6 C-1.042721 4.33388095 -1.04063832 2.66617115 -1 1 C-0.67 0.67 -0.34 0.34 0 0 Z " fill="#1E1E1E" transform="translate(63,80)"/>
<path d="M0 0 C0.33 0.66 0.66 1.32 1 2 C1.99 2.33 2.98 2.66 4 3 C3.34 3 2.68 3 2 3 C2 3.66 2 4.32 2 5 C2.66 5.33 3.32 5.66 4 6 C1.83125748 5.49396008 0.00032373 5.00016187 -2 4 C-1.34 2.68 -0.68 1.36 0 0 Z " fill="#F8F8F8" transform="translate(89,41)"/>
<path d="M0 0 C2.25 -0.25 2.25 -0.25 5 0 C7.3125 2 7.3125 2 9 4 C7.02 4 5.04 4 3 4 C3 3.34 3 2.68 3 2 C2.01 1.34 1.02 0.68 0 0 Z " fill="#292929" transform="translate(92,218)"/>
<path d="M0 0 C1.98 0.495 1.98 0.495 4 1 C3.67 2.65 3.34 4.3 3 6 C2.34 5.67 1.68 5.34 1 5 C1 4.34 1 3.68 1 3 C0.34 2.67 -0.32 2.34 -1 2 C-0.67 1.34 -0.34 0.68 0 0 Z " fill="#0C0C0C" transform="translate(146,137)"/>
<path d="M0 0 C2.475 0.495 2.475 0.495 5 1 C4.67 1.99 4.34 2.98 4 4 C3.01 4.33 2.02 4.66 1 5 C0.67 3.35 0.34 1.7 0 0 Z " fill="#0E0E0E" transform="translate(89,110)"/>
<path d="M0 0 C0.33 0 0.66 0 1 0 C1.33 3.96 1.66 7.92 2 12 C0.68 10.68 -0.64 9.36 -2 8 C-1.67 7.67 -1.34 7.34 -1 7 C-0.63239269 4.67182036 -0.29758419 2.3381615 0 0 Z " fill="#F6F6F6" transform="translate(69,54)"/>
</svg>
