<?xml version="1.0" encoding="UTF-8"?>
<svg version="1.1" xmlns="http://www.w3.org/2000/svg" width="900" height="900">
<path d="M0 0 C297 0 594 0 900 0 C900 297 900 594 900 900 C603 900 306 900 0 900 C0 603 0 306 0 0 Z " fill="#013667" transform="translate(0,0)"/>
<path d="M0 0 C1.09183594 0.70640625 2.18367187 1.4128125 3.30859375 2.140625 C26.7518725 17.81266902 41.98468038 40.77529016 49 68 C49.32097656 69.23363281 49.64195312 70.46726562 49.97265625 71.73828125 C54.75732167 93.88126773 53.14616429 117.32843354 47 139 C46.79133301 139.74878418 46.58266602 140.49756836 46.36767578 141.26904297 C39.10485376 166.14290836 20.86434121 187.23278542 -1.5859375 199.69921875 C-17.90221147 208.343342 -34.35552488 214.03297595 -53.0234375 214.23828125 C-54.13258011 214.25297203 -54.13258011 214.25297203 -55.26412964 214.26795959 C-85.31734589 214.5846889 -85.31734589 214.5846889 -99 210 C-99.66225586 209.79101074 -100.32451172 209.58202148 -101.00683594 209.36669922 C-124.4295319 201.91097697 -146.01067994 187.16363354 -159 166 C-159.38542969 165.38833984 -159.77085937 164.77667969 -160.16796875 164.14648438 C-177.72862797 135.96838042 -181.35919576 101.11090622 -174.2578125 68.91796875 C-166.8594204 38.68539502 -148.45268361 14.2900707 -122 -2 C-86.62595174 -22.04671637 -34.55880421 -22.72645345 0 0 Z " fill="#FCFDFD" transform="translate(646,328)"/>
<path d="M0 0 C0.71172363 0.00054382 1.42344727 0.00108765 2.15673828 0.00164795 C25.81635791 0.08403742 47.37417814 3.81204341 68.1875 15.375 C68.1875 30.885 68.1875 46.395 68.1875 62.375 C42.86592847 63.3489066 42.86592847 63.3489066 34.1875 55.375 C20.7696611 46.88616314 3.92379658 44.35894905 -11.6328125 47.03125 C-25.13629368 50.19570216 -36.1470163 56.95473983 -43.94140625 68.5390625 C-57.78818157 90.94876715 -58.81710706 119.54585964 -53.03515625 144.765625 C-49.2994019 158.29771373 -42.14715374 170.70281123 -30.0625 178.1875 C-13.93689035 186.88579683 4.82569752 186.25433275 22.1875 181.375 C31.61516229 178.47008826 40.13716978 174.42533022 47.1875 167.375 C49.43408203 167.14794922 49.43408203 167.14794922 52.1953125 167.1796875 C53.18144531 167.18613281 54.16757812 167.19257813 55.18359375 167.19921875 C56.73240234 167.22435547 56.73240234 167.22435547 58.3125 167.25 C59.35277344 167.25902344 60.39304687 167.26804687 61.46484375 167.27734375 C64.03929092 167.30096253 66.61328212 167.33389851 69.1875 167.375 C69.38548642 173.40711308 69.53053077 179.43733101 69.62695312 185.47192383 C69.6671489 187.52369123 69.72171767 189.57522998 69.79101562 191.6262207 C69.88824752 194.57820973 69.93346217 197.5271691 69.96875 200.48046875 C70.01004028 201.39523483 70.05133057 202.31000092 70.09387207 203.25248718 C70.09570127 205.85746936 70.00912539 207.90067122 69.1875 210.375 C66.79727378 212.70613417 64.22047464 214.03292122 61.1875 215.375 C60.51496185 215.70325775 59.84242371 216.0315155 59.14950562 216.36972046 C57.30826145 217.2624731 55.44599099 218.07546281 53.5625 218.875 C52.53479492 219.31718872 52.53479492 219.31718872 51.48632812 219.76831055 C32.27249755 227.92533424 14.96959624 230.61702578 -5.8125 230.6875 C-6.58230194 230.69045074 -7.35210388 230.69340149 -8.14523315 230.69644165 C-20.44765771 230.70714288 -31.91915423 229.71409151 -43.8125 226.375 C-44.85921875 226.11332031 -45.9059375 225.85164062 -46.984375 225.58203125 C-52.14945468 224.19907352 -56.2464542 222.13185784 -60.8125 219.375 C-61.864375 218.941875 -62.91625 218.50875 -64 218.0625 C-86.85043943 208.39304901 -102.98466486 188.37389716 -112.29956055 165.75976562 C-125.08291378 132.0853452 -121.82065797 94.23771487 -108.8125 61.375 C-108.1525 61.375 -107.4925 61.375 -106.8125 61.375 C-106.57660156 60.36050781 -106.34070313 59.34601563 -106.09765625 58.30078125 C-104.91767114 54.19302906 -102.78781477 50.96162499 -100.25 47.5625 C-99.80309814 46.9550293 -99.35619629 46.34755859 -98.89575195 45.72167969 C-80.35898834 20.86608652 -53.82280125 6.11605939 -23.3359375 1.2890625 C-15.55538667 0.22505555 -7.84432553 -0.02277652 0 0 Z " fill="#FCFDFD" transform="translate(377.8125,311.625)"/>
<path d="M0 0 C20.51342771 -0.16043524 20.51342771 -0.16043524 29.25976562 -0.1953125 C35.22711417 -0.21922091 41.19421713 -0.2474998 47.16137695 -0.30175781 C51.97244774 -0.34522985 56.78325517 -0.36914016 61.59450722 -0.37950897 C63.42974303 -0.3868979 65.26496447 -0.4013268 67.10008812 -0.42292023 C69.67145268 -0.45197257 72.24173005 -0.45595529 74.81323242 -0.45410156 C75.57136734 -0.46848267 76.32950226 -0.48286377 77.11061096 -0.49768066 C80.47828215 -0.47142371 82.82311082 -0.09181397 85.82417297 1.46588135 C92.54526834 9.29373389 91.42542893 19.62454323 91.38476562 29.36425781 C91.38887607 31.01262791 91.39433973 32.66099511 91.40104675 34.30935669 C91.41272683 37.84350422 91.41527237 41.37749577 91.41069031 44.91165924 C91.40385854 50.50065527 91.41978459 56.08944731 91.43908691 61.67840576 C91.48008074 74.54456504 91.49149362 87.41071821 91.50261688 100.27693176 C91.5131256 112.08402567 91.52988032 123.89102103 91.57071257 135.69805408 C91.58906961 141.25387954 91.59296139 146.80947021 91.58577728 152.36531878 C91.58425643 155.81814894 91.59503213 159.2708613 91.60915565 162.72365952 C91.61316063 164.32444439 91.61202932 165.9252516 91.60538292 167.52602768 C91.59700569 169.71142676 91.60698553 171.89600996 91.62145996 174.08135986 C91.62217247 175.3039513 91.62288498 176.52654274 91.62361908 177.7861824 C92.03847039 181.32848851 92.85680822 183.17573409 95 186 C98.13117567 188.08745045 99.06946224 188.27653996 102.66796875 188.4140625 C103.47258545 188.44967285 104.27720215 188.4852832 105.10620117 188.52197266 C106.63144409 188.57297119 106.63144409 188.57297119 108.1875 188.625 C111.425625 188.74875 114.66375 188.8725 118 189 C118 200.88 118 212.76 118 225 C79.72 225 41.44 225 2 225 C2 213.12 2 201.24 2 189 C10.75 188.625 10.75 188.625 13.48730469 188.52197266 C14.56866699 188.46855713 14.56866699 188.46855713 15.671875 188.4140625 C16.4050293 188.3826416 17.13818359 188.3512207 17.89355469 188.31884766 C20.38463466 187.94177876 21.90069569 187.4089829 24 186 C26.62098566 182.34306825 27.37499077 179.82505938 27.3742218 175.35194397 C27.38123611 174.22624496 27.38825043 173.10054596 27.39547729 171.94073486 C27.38783356 170.71513855 27.38018982 169.48954224 27.37231445 168.22680664 C27.37596512 166.92873581 27.37961578 165.63066498 27.38337708 164.29325867 C27.39276891 160.73944693 27.38337468 157.18591145 27.37004495 153.63212132 C27.35871071 149.90867282 27.36283954 146.18523753 27.36479187 142.46177673 C27.36567433 136.20827739 27.3546054 129.95488654 27.33618164 123.70141602 C27.31502398 116.4787929 27.31150246 109.2563288 27.3177436 102.03368098 C27.32344557 95.07808595 27.31778119 88.12254674 27.30657005 81.16695976 C27.30193415 78.2105652 27.30104586 75.25420489 27.3031559 72.29780769 C27.30539555 68.16598359 27.2909045 64.03438063 27.2746582 59.90258789 C27.27713562 58.67901581 27.27961304 57.45544373 27.28216553 56.1947937 C27.27508072 55.06627487 27.26799591 53.93775604 27.26069641 52.77503967 C27.25864354 51.79890244 27.25659067 50.82276522 27.25447559 49.81704807 C26.96506827 46.61330526 26.20032336 43.97975519 25 41 C22.15529682 38.88370628 19.49750623 38.7133234 16.015625 38.5859375 C15.17290039 38.55032715 14.33017578 38.5147168 13.46191406 38.47802734 C12.40198242 38.44402832 11.34205078 38.4100293 10.25 38.375 C6.8675 38.25125 3.485 38.1275 0 38 C0 25.46 0 12.92 0 0 Z " fill="#FBFCFD" transform="translate(126,315)"/>
<path d="M0 0 C2.22324082 1.43835285 4.34150209 2.92685202 6.44140625 4.5390625 C7.65763672 5.40917969 7.65763672 5.40917969 8.8984375 6.296875 C11.99333843 9.02571238 14.00387452 11.94494653 16.19140625 15.4140625 C16.58972656 16.01347656 16.98804688 16.61289062 17.3984375 17.23046875 C19.80066243 20.98445415 21.03419661 24.10047742 21.44140625 28.5390625 C22.10140625 28.5390625 22.76140625 28.5390625 23.44140625 28.5390625 C24.09175996 31.05880503 24.73678118 33.57972185 25.37890625 36.1015625 C25.65250977 37.15827148 25.65250977 37.15827148 25.93164062 38.23632812 C30.70388946 57.06501898 30.20855865 78.71435371 25.44140625 97.5390625 C25.23644531 98.39628906 25.03148437 99.25351562 24.8203125 100.13671875 C21.53946035 111.69102413 13.92512218 123.22411289 3.81640625 129.7890625 C-8.90450028 136.76935004 -23.0878659 138.92577252 -37.27734375 135.69140625 C-50.41870249 131.07628622 -59.76774649 123.08148777 -65.98828125 110.69140625 C-69.17849699 103.52757859 -71.08138854 96.22452203 -72.55859375 88.5390625 C-72.73060303 87.65065674 -72.9026123 86.76225098 -73.07983398 85.84692383 C-73.62356192 82.09018249 -73.75743534 78.39320851 -73.796875 74.60546875 C-73.80494675 73.85047592 -73.81301849 73.09548309 -73.82133484 72.31761169 C-73.83511233 70.721611 -73.84586256 69.12558163 -73.85375977 67.52954102 C-73.86520136 65.92691158 -73.88552704 64.32431785 -73.9152832 62.72192383 C-74.28931282 42.51805575 -69.55623545 22.03538636 -55.43359375 6.7890625 C-40.74720395 -7.22750884 -17.57099213 -10.03290238 0 0 Z " fill="#023768" transform="translate(606.55859375,361.4609375)"/>
<path d="M0 0 C9.17171009 5.5854341 14.03051302 13.30958913 16.59765625 23.6796875 C17.93847742 33.6077903 15.03555555 42.59543958 9.2578125 50.64453125 C3.36375306 57.86995471 -4.16307367 62.21576728 -13.40234375 63.6796875 C-24.70602616 64.5833895 -33.5718422 62.64915932 -42.515625 55.51953125 C-49.04180245 49.15549485 -53.60521774 41.8699424 -53.73266602 32.65258789 C-53.63595567 20.59029008 -52.2570404 14.01433805 -43.75390625 4.94140625 C-30.84538585 -7.47393147 -15.48730685 -8.51172311 0 0 Z " fill="#FBFCFD" transform="translate(769.40234375,478.3203125)"/>
<path d="M0 0 C0 0.66 0 1.32 0 2 C0.680625 2.165 1.36125 2.33 2.0625 2.5 C6.46678646 4.74899734 9.04475638 8.09935854 12 12 C12.44085938 12.56332031 12.88171875 13.12664062 13.3359375 13.70703125 C17.98678529 21.0131503 17.08007038 31.80216129 15.375 40.0078125 C12.38359159 48.52798467 5.87990424 55.64890891 -1.94140625 60.0703125 C-10.40912895 63.89444533 -19.85505912 64.28216272 -28.625 61.375 C-38.33204601 57.45932277 -45.47620066 50.95006089 -49.875 41.375 C-52.48651336 33.49382574 -52.10832644 23.70831609 -49.03125 16.015625 C-44.68359325 7.51793227 -37.67341726 0.54617082 -28.6875 -2.9375 C-18.52354025 -5.76082215 -9.60239956 -3.81371897 0 0 Z " fill="#FAFCFD" transform="translate(202,235)"/>
<path d="M0 0 C2.0625 1.3125 2.0625 1.3125 2.75 3.8125 C2.853125 4.6375 2.95625 5.4625 3.0625 6.3125 C3.7225 6.9725 4.3825 7.6325 5.0625 8.3125 C6.073125 7.9825 7.08375 7.6525 8.125 7.3125 C11.9425399 6.26786132 15.08345496 5.74406499 19.0625 6.3125 C22.3297964 8.4342901 25.30304343 10.79358686 27.0625 14.3125 C27.58387294 19.14161 27.79652673 23.05416846 25.3125 27.3125 C21.93503517 30.31469096 20.16818757 31.19187954 15.625 31.6875 C11.51675301 31.25505295 9.98332567 30.1448158 7.0625 27.3125 C6.485 27.60125 5.9075 27.89 5.3125 28.1875 C4.57 28.55875 3.8275 28.93 3.0625 29.3125 C2.46695312 29.65796875 1.87140625 30.0034375 1.2578125 30.359375 C-2.95006404 32.18628225 -7.45022775 31.83351855 -11.9375 31.3125 C-16.80229088 29.01278068 -19.67111668 26.193941 -21.9375 21.3125 C-22.70170174 15.63557279 -22.73525329 10.93649778 -20.1875 5.75 C-14.3519239 -0.57187411 -8.34341353 -1.9527138 0 0 Z " fill="#083967" transform="translate(383.9375,585.6875)"/>
<path d="M0 0 C5.32468076 2.66234038 7.41755658 5.83511316 10 11 C10.82529153 17.34295492 10.25603446 22.12679197 6.484375 27.37109375 C3.25615392 30.91364162 0.15351549 31.85581056 -4.5 32.4375 C-9.53073661 31.80865792 -12.49838746 29.70873151 -15.8125 25.9375 C-18.81832983 21.03325133 -18.57376716 15.5623539 -18 10 C-14.07945142 2.01369734 -8.78955493 -1.53468419 0 0 Z " fill="#E8F1F6" transform="translate(693,585)"/>
<path d="M0 0 C2.65381294 1.70780082 4.82790509 3.71930035 7 6 C7.66 4.02 8.32 2.04 9 0 C10.98 0 12.96 0 15 0 C15 0.66 15 1.32 15 2 C15.99 1.34 16.98 0.68 18 0 C20.6875 -0.125 20.6875 -0.125 23 0 C23 1.65 23 3.3 23 5 C21.02 5.33 19.04 5.66 17 6 C16.67 11.94 16.34 17.88 16 24 C13.69 24 11.38 24 9 24 C8.505 21.525 8.505 21.525 8 19 C7.401875 19.639375 6.80375 20.27875 6.1875 20.9375 C2.75834025 24.17070776 -0.38670905 24.28659251 -5 24.21875 C-7.95446997 23.89560485 -9.72484375 22.87365809 -12 21 C-14.90765317 16.36208842 -14.65861779 11.29246437 -14 6 C-10.59717957 0.32863262 -6.53127328 -1.30156433 0 0 Z " fill="#EDF5FA" transform="translate(613,593)"/>
<path d="M0 0 C2.66666667 0 5.33333333 0 8 0 C9.04994141 -0.01740234 9.04994141 -0.01740234 10.12109375 -0.03515625 C10.88550781 -0.04417969 11.64992188 -0.05320312 12.4375 -0.0625 C13.19933594 -0.07410156 13.96117187 -0.08570313 14.74609375 -0.09765625 C17 0 17 0 19.16015625 0.56640625 C21.08095965 1.22637729 21.08095965 1.22637729 23 0 C29.09510323 -0.56436141 29.09510323 -0.56436141 32.2109375 1.37890625 C34.9974676 5.46135537 34.4253483 9.43466604 34.25 14.25 C34.23195313 15.18585937 34.21390625 16.12171875 34.1953125 17.0859375 C34.14825673 19.39167015 34.08253713 21.69530945 34 24 C32.02 24 30.04 24 28 24 C27.505 14.595 27.505 14.595 27 5 C25.02 5.33 23.04 5.66 21 6 C20.67 11.94 20.34 17.88 20 24 C18.02 24 16.04 24 14 24 C13.67 17.73 13.34 11.46 13 5 C11.02 5.33 9.04 5.66 7 6 C6.67 11.94 6.34 17.88 6 24 C4.02 24 2.04 24 0 24 C0 16.08 0 8.16 0 0 Z " fill="#D5E1E9" transform="translate(452,593)"/>
<path d="M0 0 C2.97 0.495 2.97 0.495 6 1 C8.60951604 0.81278728 11.14393026 0.44399196 13.73046875 0.05859375 C16 0 16 0 19 2 C19.99 1.34 20.98 0.68 22 0 C25.55447171 -0.32313379 28.03111472 -0.53512511 31.19824219 1.21411133 C33 3 33 3 33.45410156 5.26831055 C33.4331543 6.13238525 33.41220703 6.99645996 33.390625 7.88671875 C33.37773437 8.82451172 33.36484375 9.76230469 33.3515625 10.72851562 C33.31804687 11.70498047 33.28453125 12.68144531 33.25 13.6875 C33.23195312 14.67556641 33.21390625 15.66363281 33.1953125 16.68164062 C33.14815447 19.12206842 33.08236042 21.56054769 33 24 C31.02 24 29.04 24 27 24 C26.505 14.595 26.505 14.595 26 5 C24.02 5.33 22.04 5.66 20 6 C19.67 11.94 19.34 17.88 19 24 C17.02 24 15.04 24 13 24 C12.67 17.73 12.34 11.46 12 5 C10.02 5.33 8.04 5.66 6 6 C5.67 11.94 5.34 17.88 5 24 C3.35 24 1.7 24 0 24 C0 16.08 0 8.16 0 0 Z " fill="#DCE6ED" transform="translate(219,593)"/>
<path d="M0 0 C2.31 0.33 4.62 0.66 7 1 C9.37410345 0.82157812 11.63937618 0.45625963 13.984375 0.05859375 C16 0 16 0 19 2 C19.66 1.34 20.32 0.68 21 0 C23.05859375 -0.3359375 23.05859375 -0.3359375 25.4375 -0.375 C26.61119141 -0.41753906 26.61119141 -0.41753906 27.80859375 -0.4609375 C30 0 30 0 31.61865234 1.73095703 C33.21249655 4.34905319 33.35134315 5.73015621 33.29296875 8.765625 C33.2784668 10.09980469 33.2784668 10.09980469 33.26367188 11.4609375 C33.23853516 12.38132812 33.21339844 13.30171875 33.1875 14.25 C33.16719727 15.65378906 33.16719727 15.65378906 33.14648438 17.0859375 C33.11119954 19.39121327 33.06190281 21.6953106 33 24 C31.02 24 29.04 24 27 24 C26.505 14.595 26.505 14.595 26 5 C24.02 5.33 22.04 5.66 20 6 C19.67 11.94 19.34 17.88 19 24 C17.02 24 15.04 24 13 24 C13 17.4 13 10.8 13 4 C10.69 4.66 8.38 5.32 6 6 C5.67 11.94 5.34 17.88 5 24 C3.35 24 1.7 24 0 24 C0 16.08 0 8.16 0 0 Z " fill="#C8D6E0" transform="translate(415,593)"/>
<path d="M0 0 C3.70390021 2.02666238 5.65363011 3.48044516 8 7 C8.7625943 11.65537221 8.39395811 15.19749274 6.3125 19.4375 C3.04040559 23.06333435 0.74193619 23.85780113 -4.0625 24.25 C-8.63615605 23.86075268 -10.20807365 22.90191612 -13.25 19.4375 C-15.45161583 15.11289748 -16.00365392 11.76310335 -15 7 C-11.52533746 0.63420603 -6.95769757 -0.58963539 0 0 Z " fill="#DAE6EE" transform="translate(191,593)"/>
<path d="M0 0 C3.33923588 0.76921684 5.60255718 2.30670485 8.1875 4.50390625 C10.28428541 8.69747706 9.74020329 13.94865934 9.1875 18.50390625 C6.66103559 21.98633016 5.23069535 23.15617447 1.1875 24.50390625 C-2.90949372 24.88325752 -5.09043017 24.95319414 -8.625 22.75390625 C-11.7769877 19.51186176 -13.11950232 16.7188101 -13.3125 12.19140625 C-13.18506979 7.66388598 -11.88823388 4.97968182 -8.72265625 1.76171875 C-5.80593467 -0.15890364 -3.42852129 -0.27219679 0 0 Z " fill="#E3EEF5" transform="translate(561.8125,592.49609375)"/>
<path d="M0 0 C3.76752213 0.0540534 6.05866112 0.37586409 8.9375 2.875 C11.68151662 6.16315589 12.01373603 9.06456364 11.703125 13.2578125 C10.9153383 17.65366227 9.49025446 20.45603795 6.0625 23.3125 C2.47177487 24.78143301 0.16478124 24.97817105 -3.6875 24.4375 C-6.65672861 22.64400621 -9.11202071 20.58845858 -10.6875 17.4375 C-11.30915748 11.92251005 -11.75154786 7.80166392 -8.25 3.3125 C-7.404375 2.69375 -6.55875 2.075 -5.6875 1.4375 C-4.05408269 -0.19591731 -2.25045139 0.11100881 0 0 Z " fill="#E2EDF4" transform="translate(313.6875,592.5625)"/>
<path d="M0 0 C2.85951513 1.86620988 4.51223632 3.93759594 6 7 C6.99287768 11.9185633 6.79077086 15.64439281 4.25 20 C0.94287852 22.93966354 -0.90501676 23.83471951 -5.3125 24.5 C-9.52786222 23.92842546 -11.60579776 23.00955585 -14.66796875 20.11328125 C-17.40861098 15.76522422 -16.99208977 10.88518685 -16 6 C-12.04036871 0.54212984 -6.68269866 -1.48504415 0 0 Z " fill="#E7F1F7" transform="translate(405,593)"/>
<path d="M0 0 C1.15628906 0.00386719 2.31257812 0.00773438 3.50390625 0.01171875 C6.4375 0.3125 6.4375 0.3125 8.4375 2.3125 C9.35890852 6.33312708 9.5151141 10.04180851 9.31640625 14.1484375 C9.26806641 15.21191406 9.21972656 16.27539062 9.16992188 17.37109375 C9.11384766 18.46550781 9.05777344 19.55992187 9 20.6875 C8.94779297 21.80511719 8.89558594 22.92273438 8.84179688 24.07421875 C8.71269184 26.82063492 8.57775096 29.56663422 8.4375 32.3125 C6.4575 32.3125 4.4775 32.3125 2.4375 32.3125 C2.1075 24.7225 1.7775 17.1325 1.4375 9.3125 C1.1075 10.3025 0.7775 11.2925 0.4375 12.3125 C-1.2125 12.3125 -2.8625 12.3125 -4.5625 12.3125 C-4.5625 18.9125 -4.5625 25.5125 -4.5625 32.3125 C-6.2125 32.3125 -7.8625 32.3125 -9.5625 32.3125 C-9.5625 25.7125 -9.5625 19.1125 -9.5625 12.3125 C-10.5525 12.3125 -11.5425 12.3125 -12.5625 12.3125 C-12.5625 10.9925 -12.5625 9.6725 -12.5625 8.3125 C-11.5725 8.3125 -10.5825 8.3125 -9.5625 8.3125 C-9.624375 7.549375 -9.68625 6.78625 -9.75 6 C-9.5625 3.3125 -9.5625 3.3125 -8.4609375 1.6640625 C-5.66152529 -0.32893467 -3.39354241 -0.04929168 0 0 Z " fill="#627F9B" transform="translate(731.5625,584.6875)"/>
<path d="M0 0 C0.9590625 -0.02578125 1.918125 -0.0515625 2.90625 -0.078125 C5.5 0.25 5.5 0.25 7.14379883 1.46508789 C8.92946598 3.81522516 8.84623091 5.20730001 8.79296875 8.13671875 C8.78330078 9.07451172 8.77363281 10.01230469 8.76367188 10.97851562 C8.73853516 11.95498047 8.71339844 12.93144531 8.6875 13.9375 C8.66719727 15.41959961 8.66719727 15.41959961 8.64648438 16.93164062 C8.61112203 19.37164231 8.56177033 21.81054719 8.5 24.25 C7.55125 24.064375 6.6025 23.87875 5.625 23.6875 C2.60131207 22.96313368 2.60131207 22.96313368 0.5 24.25 C-2.875 24.625 -2.875 24.625 -6.5 24.25 C-9.49980859 21.63478226 -10.38569598 20.06645726 -10.9375 16.125 C-10.5 13.25 -10.5 13.25 -9.1875 11.4375 C-5.46791703 8.82001569 -1.88234788 9.16731419 2.5 9.25 C2.17 7.93 1.84 6.61 1.5 5.25 C-2.0219721 5.16995518 -5.11981469 5.20994298 -8.5 6.25 C-8.5 4.6 -8.5 2.95 -8.5 1.25 C-5.45059327 0.23353109 -3.19630097 0.05155324 0 0 Z " fill="#D1DFEA" transform="translate(265.5,592.75)"/>
<path d="M0 0 C2.0625 1.5625 2.0625 1.5625 3 4 C3.21844466 6.72015615 3.13697992 9.26040166 3 12 C-1.95 12 -6.9 12 -12 12 C-10.66436384 16.94463635 -10.66436384 16.94463635 -8 18 C-4.16411738 18.17048367 -0.7348373 17.87878525 3 17 C3 18.32 3 19.64 3 21 C-1.19959737 23.09979869 -5.37224542 23.90385832 -10 23 C-13.52270578 21.02607004 -15.70015869 18.89952392 -17 15 C-17.41622299 10.72571011 -17.43314233 7.07145734 -15.8125 3.0625 C-11.4621262 -1.88792536 -6.0101899 -1.56334419 0 0 Z " fill="#E1EDF3" transform="translate(782,594)"/>
<path d="M0 0 C2.6875 -0.375 2.6875 -0.375 6 0 C9.58027373 2.80195335 10.75173082 4.40028291 11.44921875 8.89453125 C11.61479385 13.52492461 11.45451925 17.0152083 9.5 21.25 C6.45916405 23.37858517 4.55574616 23.66100162 0.90234375 23.4296875 C-2.014161 22.77092873 -3.29386686 21.38858639 -5 19 C-6.35038407 14.9488478 -6.55636904 11.23582292 -6 7 C-4.125 3.9375 -4.125 3.9375 -2 2 C-1.34 2 -0.68 2 0 2 C0 1.34 0 0.68 0 0 Z " fill="#0D3C69" transform="translate(686,589)"/>
<path d="M0 0 C1.98 0 3.96 0 6 0 C6 0.66 6 1.32 6 2 C6.99 1.34 7.98 0.68 9 0 C11.6875 -0.125 11.6875 -0.125 14 0 C14 1.65 14 3.3 14 5 C12.02 5.33 10.04 5.66 8 6 C7.67 11.94 7.34 17.88 7 24 C4.69 24 2.38 24 0 24 C-0.495 21.525 -0.495 21.525 -1 19 C-1.99 19.99 -2.98 20.98 -4 22 C-4 20.68 -4 19.36 -4 18 C-4.70125 18.33 -5.4025 18.66 -6.125 19 C-9.36560143 20.12716572 -11.59573648 20.44403437 -15 20 C-16.875 18.1875 -16.875 18.1875 -18 16 C-18 15.01 -18 14.02 -18 13 C-12.72 13 -7.44 13 -2 13 C-2 10.69 -2 8.38 -2 6 C-1 2.5625 -1 2.5625 0 0 Z " fill="#274E74" transform="translate(622,593)"/>
<path d="M0 0 C0.66 0.33 1.32 0.66 2 1 C2 2.65 2 4.3 2 6 C1.319375 5.835 0.63875 5.67 -0.0625 5.5 C-4.30198749 4.77838511 -8.25701917 4.40371708 -12.375 5.8125 C-14.31945624 6.99273731 -14.31945624 6.99273731 -15 10 C-15.40131619 14.55339523 -15.38035057 18.73216477 -14.0625 23.125 C-11.16449237 25.75955239 -8.86205121 25.4772658 -5.05859375 25.37109375 C-2.78259097 25.16288784 -2.78259097 25.16288784 -1 23 C-0.01 23 0.98 23 2 23 C2 24.65 2 26.3 2 28 C-2.72990797 30.83794478 -6.58588324 31.96371278 -12 31 C-16.80748493 28.59625754 -19.73349826 25.88169605 -22 21 C-22.76420174 15.32307279 -22.79775329 10.62399778 -20.25 5.4375 C-14.52525042 -0.76431205 -8.15252427 -2.71750809 0 0 Z " fill="#DEE7F0" transform="translate(384,586)"/>
<path d="M0 0 C2.31 0.33 4.62 0.66 7 1 C7.99 0.67 8.98 0.34 10 0 C16.36153635 -0.45439545 16.36153635 -0.45439545 18.70043945 1.21020508 C20.4107593 3.5657104 20.34555618 4.99441022 20.29296875 7.88671875 C20.28330078 8.82451172 20.27363281 9.76230469 20.26367188 10.72851562 C20.23853516 11.70498047 20.21339844 12.68144531 20.1875 13.6875 C20.16719727 15.16959961 20.16719727 15.16959961 20.14648438 16.68164062 C20.11112203 19.12164231 20.06177033 21.56054719 20 24 C18.02 24 16.04 24 14 24 C13.67 17.73 13.34 11.46 13 5 C10.69 5.33 8.38 5.66 6 6 C5.67 11.94 5.34 17.88 5 24 C3.35 24 1.7 24 0 24 C0 16.08 0 8.16 0 0 Z " fill="#C4D4E0" transform="translate(140,593)"/>
<path d="M0 0 C2.31 0.33 4.62 0.66 7 1 C9.34439868 0.78853013 11.57567541 0.39605401 13.88671875 -0.0390625 C16.82651833 0.0152776 17.89364719 0.99310857 20 3 C20.45410156 5.26831055 20.45410156 5.26831055 20.390625 7.88671875 C20.37128906 9.2934082 20.37128906 9.2934082 20.3515625 10.72851562 C20.31804687 11.70498047 20.28453125 12.68144531 20.25 13.6875 C20.23195313 14.67556641 20.21390625 15.66363281 20.1953125 16.68164062 C20.14815447 19.12206842 20.08236042 21.56054769 20 24 C18.02 24 16.04 24 14 24 C13.67 17.73 13.34 11.46 13 5 C10.36 5.33 7.72 5.66 5 6 C5 11.94 5 17.88 5 24 C3.35 24 1.7 24 0 24 C0 16.08 0 8.16 0 0 Z " fill="#D1DFEB" transform="translate(329,593)"/>
<path d="M0 0 C1.65 0 3.3 0 5 0 C5 0.66 5 1.32 5 2 C5.495 1.67 5.99 1.34 6.5 1 C10.21669939 -0.48667975 12.9941956 -0.31792098 17 0 C18.7277832 1.2277832 18.7277832 1.2277832 20 3 C20.34057617 5.17651367 20.34057617 5.17651367 20.29296875 7.66796875 C20.28330078 8.56064453 20.27363281 9.45332031 20.26367188 10.37304688 C20.23853516 11.30181641 20.21339844 12.23058594 20.1875 13.1875 C20.16719727 14.59805664 20.16719727 14.59805664 20.14648438 16.03710938 C20.11113096 18.35865038 20.06178674 20.67903653 20 23 C18.35 23 16.7 23 15 23 C14.67 17.06 14.34 11.12 14 5 C11.69 5.33 9.38 5.66 7 6 C6.67 11.94 6.34 17.88 6 24 C4.02 24 2.04 24 0 24 C0 16.08 0 8.16 0 0 Z " fill="#CEDDE9" transform="translate(575,593)"/>
<path d="M0 0 C0.99 0.33 1.98 0.66 3 1 C3 2.65 3 4.3 3 6 C-0.3 5.67 -3.6 5.34 -7 5 C-7 5.99 -7 6.98 -7 8 C-5.741875 8.268125 -4.48375 8.53625 -3.1875 8.8125 C-0.84890779 9.41680878 0.91617348 9.950228 3 11.1875 C4.64712284 14.17291014 4.35601078 16.67723268 4 20 C2.43732301 22.0851971 1.43452782 22.87875535 -1.0859375 23.58203125 C-5.60633676 24.03715677 -8.87132425 24.26411251 -13 22 C-13 20.68 -13 19.36 -13 18 C-9.37 18 -5.74 18 -2 18 C-2 17.01 -2 16.02 -2 15 C-3.258125 14.7525 -4.51625 14.505 -5.8125 14.25 C-8.59789831 13.54502308 -9.83387533 13.15055048 -12 11.1875 C-13.23928648 8.47656082 -13.51578265 6.94732944 -13 4 C-9.84668147 -1.07272981 -5.39656952 -0.60624446 0 0 Z " fill="#DAE5EE" transform="translate(532,593)"/>
<path d="M0 0 C0.87785156 0.01546875 1.75570313 0.0309375 2.66015625 0.046875 C4.9375 0.25 4.9375 0.25 6.9375 1.25 C6.9375 2.9 6.9375 4.55 6.9375 6.25 C3.6375 5.59 0.3375 4.93 -3.0625 4.25 C-2.7325 5.57 -2.4025 6.89 -2.0625 8.25 C-0.969375 8.53875 0.12375 8.8275 1.25 9.125 C4.9375 10.25 4.9375 10.25 7.9375 12.25 C8.42256208 16.54626414 8.65653764 18.99949976 6.5 22.75 C2.7701877 24.93330476 -0.83264599 24.91992163 -5.0625 24.25 C-6.0525 23.59 -7.0425 22.93 -8.0625 22.25 C-8.0625 20.93 -8.0625 19.61 -8.0625 18.25 C-4.7625 18.58 -1.4625 18.91 1.9375 19.25 C1.9375 17.93 1.9375 16.61 1.9375 15.25 C1.38320313 15.05664062 0.82890625 14.86328125 0.2578125 14.6640625 C-0.46664063 14.40367187 -1.19109375 14.14328125 -1.9375 13.875 C-3.01644531 13.49214844 -3.01644531 13.49214844 -4.1171875 13.1015625 C-6.0625 12.25 -6.0625 12.25 -8.0625 10.25 C-8.62616013 4.04973856 -8.62616013 4.04973856 -6.859375 1.54296875 C-4.46409124 -0.18059413 -2.92364721 -0.08611627 0 0 Z " fill="#E7EFF5" transform="translate(508.0625,592.75)"/>
<path d="M0 0 C2.01822917 0.06510417 4.03645833 0.13020833 6.0546875 0.1953125 C6.0546875 1.5153125 6.0546875 2.8353125 6.0546875 4.1953125 C4.4046875 4.1953125 2.7546875 4.1953125 1.0546875 4.1953125 C1.0546875 5.5153125 1.0546875 6.8353125 1.0546875 8.1953125 C2.3746875 8.1953125 3.6946875 8.1953125 5.0546875 8.1953125 C5.0546875 9.5153125 5.0546875 10.8353125 5.0546875 12.1953125 C3.7346875 12.1953125 2.4146875 12.1953125 1.0546875 12.1953125 C1.0546875 18.7953125 1.0546875 25.3953125 1.0546875 32.1953125 C-0.9253125 32.1953125 -2.9053125 32.1953125 -4.9453125 32.1953125 C-4.9453125 25.5953125 -4.9453125 18.9953125 -4.9453125 12.1953125 C-5.6053125 12.1953125 -6.2653125 12.1953125 -6.9453125 12.1953125 C-6.9453125 10.8753125 -6.9453125 9.5553125 -6.9453125 8.1953125 C-6.2853125 8.1953125 -5.6253125 8.1953125 -4.9453125 8.1953125 C-4.8215625 7.2465625 -4.6978125 6.2978125 -4.5703125 5.3203125 C-3.91580551 2.04777754 -3.54432152 0.35585557 0 0 Z " fill="#D9E5ED" transform="translate(169.9453125,584.8046875)"/>
<path d="M0 0 C0.66 0.33 1.32 0.66 2 1 C2 2.32 2 3.64 2 5 C-0.97 5 -3.94 5 -7 5 C-7 5.99 -7 6.98 -7 8 C-4.98177083 8.45572917 -2.96354167 8.91145833 -0.9453125 9.3671875 C1 10 1 10 3 12 C3.57105775 19.19532771 3.57105775 19.19532771 1.625 21.9375 C-2.07047379 24.35377132 -5.67549599 24.50523908 -10 24 C-10.99 23.34 -11.98 22.68 -13 22 C-13 20.68 -13 19.36 -13 18 C-9.7 18.33 -6.4 18.66 -3 19 C-2.67 17.68 -2.34 16.36 -2 15 C-2.62648438 14.80664062 -3.25296875 14.61328125 -3.8984375 14.4140625 C-4.71570313 14.15367187 -5.53296875 13.89328125 -6.375 13.625 C-7.59316406 13.24214844 -7.59316406 13.24214844 -8.8359375 12.8515625 C-11 12 -11 12 -13 10 C-13.4375 6.5625 -13.4375 6.5625 -13 3 C-9.12835818 -0.75065301 -5.07468945 -0.33276652 0 0 Z " fill="#E8F0F6" transform="translate(659,593)"/>
<path d="M0 0 C0.97066406 -0.00515625 1.94132813 -0.0103125 2.94140625 -0.015625 C5.4375 0.25 5.4375 0.25 7.4375 2.25 C7.4375 3.57 7.4375 4.89 7.4375 6.25 C3.8075 5.92 0.1775 5.59 -3.5625 5.25 C-6.01660358 8.93115537 -5.79537843 10.90293598 -5.5625 15.25 C-5.2325 16.24 -4.9025 17.23 -4.5625 18.25 C-1.15929066 18.92673447 -1.15929066 18.92673447 2.4375 19.25 C3.0975 18.59 3.7575 17.93 4.4375 17.25 C5.4275 17.25 6.4175 17.25 7.4375 17.25 C7.4375 18.9 7.4375 20.55 7.4375 22.25 C3.29413672 24.25890341 0.0228527 24.81311349 -4.5625 24.25 C-8.03699022 22.22904372 -10.26644549 20.13816354 -11.5625 16.25 C-11.93178024 10.61847628 -11.70569824 7.13941949 -8.5625 2.25 C-5.19898987 0.00765991 -3.93939944 -0.02098215 0 0 Z " fill="#EEF6FA" transform="translate(755.5625,592.75)"/>
<path d="M0 0 C0 1.32 0 2.64 0 4 C-0.639375 4.103125 -1.27875 4.20625 -1.9375 4.3125 C-2.618125 4.539375 -3.29875 4.76625 -4 5 C-4.33 5.99 -4.66 6.98 -5 8 C-3.35 8 -1.7 8 0 8 C0 9.32 0 10.64 0 12 C-1.65 12 -3.3 12 -5 12 C-5 18.6 -5 25.2 -5 32 C-6.65 32 -8.3 32 -10 32 C-10 25.4 -10 18.8 -10 12 C-10.99 12 -11.98 12 -13 12 C-13 10.68 -13 9.36 -13 8 C-12.01 8 -11.02 8 -10 8 C-10.061875 7.236875 -10.12375 6.47375 -10.1875 5.6875 C-10 3 -10 3 -8.9375 1.1875 C-6.00731249 -0.60842137 -3.3527047 -0.18977574 0 0 Z " fill="#DAE7F2" transform="translate(732,585)"/>
<path d="M0 0 C0 1.32 0 2.64 0 4 C-0.639375 4.103125 -1.27875 4.20625 -1.9375 4.3125 C-2.618125 4.539375 -3.29875 4.76625 -4 5 C-4.33 5.99 -4.66 6.98 -5 8 C-3.35 8 -1.7 8 0 8 C0 9.32 0 10.64 0 12 C-1.65 12 -3.3 12 -5 12 C-5 18.6 -5 25.2 -5 32 C-6.65 32 -8.3 32 -10 32 C-10 25.4 -10 18.8 -10 12 C-10.99 12 -11.98 12 -13 12 C-13 10.68 -13 9.36 -13 8 C-12.01 8 -11.02 8 -10 8 C-10.061875 7.236875 -10.12375 6.47375 -10.1875 5.6875 C-10 3 -10 3 -8.9375 1.1875 C-6.00731249 -0.60842137 -3.3527047 -0.18977574 0 0 Z " fill="#E7F1F6" transform="translate(718,585)"/>
<path d="M0 0 C1.65 0 3.3 0 5 0 C5 1.98 5 3.96 5 6 C6.65 6 8.3 6 10 6 C10 7.32 10 8.64 10 10 C8.35 10 6.7 10 5 10 C5.33 14.95 5.66 19.9 6 25 C7.32 25.33 8.64 25.66 10 26 C10 27.32 10 28.64 10 30 C3.49959631 30.36794738 3.49959631 30.36794738 1.2878418 28.73901367 C-0.27556408 26.62789707 -0.35164149 25.58943959 -0.29296875 22.98828125 C-0.28330078 22.23095703 -0.27363281 21.47363281 -0.26367188 20.69335938 C-0.23853516 19.90767578 -0.21339844 19.12199219 -0.1875 18.3125 C-0.16719727 17.11657227 -0.16719727 17.11657227 -0.14648438 15.89648438 C-0.11117089 13.93070033 -0.05736447 11.96526418 0 10 C-0.99 10 -1.98 10 -3 10 C-3 8.68 -3 7.36 -3 6 C-2.01 6 -1.02 6 0 6 C0 4.02 0 2.04 0 0 Z " fill="#F5FBFC" transform="translate(280,587)"/>
<path d="M0 0 C3.27115359 0.47704323 3.95824544 0.98739453 6 3.4375 C6.66 3.4375 7.32 3.4375 8 3.4375 C8 6.4075 8 9.3775 8 12.4375 C7.01 12.4375 6.02 12.4375 5 12.4375 C4.34 13.7575 3.68 15.0775 3 16.4375 C-3.54420732 15.9527439 -3.54420732 15.9527439 -5.4375 13.8125 C-6.43485482 9.60144632 -6.71496021 5.98658046 -4.875 2 C-3 0.4375 -3 0.4375 0 0 Z " fill="#0C3C69" transform="translate(755,596.5625)"/>
<path d="M0 0 C1.65 0 3.3 0 5 0 C5 0.66 5 1.32 5 2 C5.99 1.34 6.98 0.68 8 0 C10.6875 -0.125 10.6875 -0.125 13 0 C13 1.32 13 2.64 13 4 C11.02 4.66 9.04 5.32 7 6 C6.67 11.94 6.34 17.88 6 24 C4.02 24 2.04 24 0 24 C0 16.08 0 8.16 0 0 Z " fill="#D3E0E9" transform="translate(202,593)"/>
<path d="M0 0 C5.66666667 0 11.33333333 0 17 0 C17 0.33 17 0.66 17 1 C14.69 1.33 12.38 1.66 10 2 C9.67 2.99 9.34 3.98 9 5 C8.01 5.495 8.01 5.495 7 6 C6.67 11.94 6.34 17.88 6 24 C4.02 24 2.04 24 0 24 C0 16.08 0 8.16 0 0 Z " fill="#BDCEDB" transform="translate(452,593)"/>
<path d="M0 0 C2.20214844 1.21020508 2.20214844 1.21020508 4 3 C4.45410156 5.26831055 4.45410156 5.26831055 4.390625 7.88671875 C4.37773437 8.82451172 4.36484375 9.76230469 4.3515625 10.72851562 C4.31804687 11.70498047 4.28453125 12.68144531 4.25 13.6875 C4.23195312 14.67556641 4.21390625 15.66363281 4.1953125 16.68164062 C4.14815447 19.12206842 4.08236042 21.56054769 4 24 C2.02 24 0.04 24 -2 24 C-2.33 17.73 -2.66 11.46 -3 5 C-4.98 4.34 -6.96 3.68 -9 3 C-9 2.34 -9 1.68 -9 1 C-5.94306678 -0.52846661 -3.37015453 -0.23242445 0 0 Z " fill="#D6E2EA" transform="translate(248,593)"/>
<path d="M0 0 C3.4375 0.875 3.4375 0.875 5.4375 3.875 C6.10519706 10.88581917 6.10519706 10.88581917 3.75 14.375 C0.9741313 16.17556348 -0.32064065 16.53999679 -3.5625 15.875 C-5.86006777 14.05279108 -6.46728417 12.59759682 -6.84765625 9.7109375 C-7.07726261 3.58144598 -7.07726261 3.58144598 -5.26171875 1.08984375 C-3.5625 -0.125 -3.5625 -0.125 0 0 Z " fill="#113E69" transform="translate(400.5625,597.125)"/>
<path d="M0 0 C3 0.4375 3 0.4375 4.875 2 C6.44271513 5.39671611 6.4548598 7.73364162 6 11.4375 C4 14.375 4 14.375 2 16.4375 C-0.875 16.125 -0.875 16.125 -4 15.4375 C-6.06520632 12.33969052 -6.29477024 11.4834519 -6.3125 7.9375 C-6.32925781 7.1640625 -6.34601563 6.390625 -6.36328125 5.59375 C-5.69575952 1.63168551 -3.83072377 0.55864722 0 0 Z " fill="#133F6A" transform="translate(314,596.5625)"/>
<path d="M0 0 C1.65 0 3.3 0 5 0 C5 10.23 5 20.46 5 31 C3.35 31 1.7 31 0 31 C0 20.77 0 10.54 0 0 Z " fill="#F6FBFD" transform="translate(129,585)"/>
<path d="M0 0 C1.65 0 3.3 0 5 0 C5 0.66 5 1.32 5 2 C5.99 1.34 6.98 0.68 8 0 C10.6875 -0.125 10.6875 -0.125 13 0 C13 1.65 13 3.3 13 5 C10.36 5.33 7.72 5.66 5 6 C5 11.61 5 17.22 5 23 C3.35 23 1.7 23 0 23 C0 15.41 0 7.82 0 0 Z " fill="#F4F9FC" transform="translate(623,593)"/>
<path d="M0 0 C5.50203134 -0.36680209 5.50203134 -0.36680209 7.67578125 1.234375 C10.08977779 4.45303705 9.50593592 8.16043149 9 12 C7.8125 14.5625 7.8125 14.5625 6 16 C3.5 16.4375 3.5 16.4375 1 16 C-1.10982265 14.3886796 -1.91030501 13.523703 -2.36328125 10.87890625 C-2.34652344 10.11449219 -2.32976563 9.35007812 -2.3125 8.5625 C-2.30863281 7.80066406 -2.30476562 7.03882813 -2.30078125 6.25390625 C-1.9739386 3.80470873 -1.21954601 2.13299083 0 0 Z " fill="#0E3B67" transform="translate(557,597)"/>
<path d="M0 0 C2.98509538 0.44776431 3.67138645 1.02915005 5.5 3.375 C6.25976917 7.4196535 6.04211675 11.20516911 4.3125 14.9375 C2.5 16.375 2.5 16.375 0 16.875 C-2.5 16.375 -2.5 16.375 -4.3125 14.9375 C-6.04211675 11.20516911 -6.25976917 7.4196535 -5.5 3.375 C-3.67138645 1.02915005 -2.98509538 0.44776431 0 0 Z " fill="#073663" transform="translate(187.5,596.625)"/>
<path d="M0 0 C2.38447665 1.44879594 4.00436396 3.00436396 6 5 C5.67 6.65 5.34 8.3 5 10 C0.38 10 -4.24 10 -9 10 C-9 9.01 -9 8.02 -9 7 C-10.65 7.33 -12.3 7.66 -14 8 C-13.12269491 5.29497597 -12.28331029 3.31599994 -10.375 1.1875 C-6.92204511 -0.53897745 -3.72506743 -0.79924818 0 0 Z " fill="#DBE7EE" transform="translate(613,593)"/>
<path d="M0 0 C5.32468076 2.66234038 7.41755658 5.83511316 10 11 C10.06996014 12.70702735 10.08440154 14.41668003 10.0625 16.125 C10.05347656 17.03507813 10.04445313 17.94515625 10.03515625 18.8828125 C10.02355469 19.58148437 10.01195312 20.28015625 10 21 C9.67 21 9.34 21 9 21 C9 18.03 9 15.06 9 12 C8.01 12.33 7.02 12.66 6 13 C5.67 15.31 5.34 17.62 5 20 C4.67 20 4.34 20 4 20 C3.97421875 19.33613281 3.9484375 18.67226563 3.921875 17.98828125 C3.65077857 13.76780274 3.37634892 10.68300359 1.3125 6.9375 C-1.4684894 4.60748185 -3.42132745 4.2440004 -7 4 C-7 4.66 -7 5.32 -7 6 C-8.98 6.99 -8.98 6.99 -11 8 C-11.66 7.34 -12.32 6.68 -13 6 C-13.99 7.485 -13.99 7.485 -15 9 C-15.66 8.67 -16.32 8.34 -17 8 C-16.04578192 6.85073734 -15.08647955 5.70569459 -14.125 4.5625 C-13.59132813 3.92441406 -13.05765625 3.28632812 -12.5078125 2.62890625 C-9.1226746 -1.02809506 -4.65892537 -0.56471823 0 0 Z " fill="#D7E5EF" transform="translate(693,585)"/>
<path d="M0 0 C1.65 0 3.3 0 5 0 C6 1 6 1 6.11352539 3.22485352 C6.10828857 4.18319092 6.10305176 5.14152832 6.09765625 6.12890625 C6.09282227 7.68061523 6.09282227 7.68061523 6.08789062 9.26367188 C6.07951172 10.35228516 6.07113281 11.44089844 6.0625 12.5625 C6.05798828 13.65498047 6.05347656 14.74746094 6.04882812 15.87304688 C6.03699826 18.58208495 6.02051543 21.29101599 6 24 C4.02 24 2.04 24 0 24 C0 16.08 0 8.16 0 0 Z " fill="#CFDCE6" transform="translate(490,593)"/>
<path d="M0 0 C1.4662333 2.93246659 0.97087389 5.67766743 0.83984375 8.90625 C0.78848226 11.22255979 0.78848226 11.22255979 3 13 C5.37124598 13.58488562 5.37124598 13.58488562 8 13 C10.66666667 10.66666667 10.66666667 10.66666667 13 8 C13.99 7.34 14.98 6.68 16 6 C16.3125 8.6875 16.3125 8.6875 16 12 C13.44975635 15.10164769 11.82300753 16.72566416 8 18 C3.90300628 18.37935127 1.72206983 18.44928789 -1.8125 16.25 C-4.47563292 13.51077756 -5.87649013 11.49199919 -6.1953125 7.640625 C-6.17210937 6.85171875 -6.14890625 6.0628125 -6.125 5.25 C-6.10695313 4.45078125 -6.08890625 3.6515625 -6.0703125 2.828125 C-6.04710937 2.22484375 -6.02390625 1.6215625 -6 1 C-5.67 1 -5.34 1 -5 1 C-5 3.31 -5 5.62 -5 8 C-4.01 8 -3.02 8 -2 8 C-1.855625 6.865625 -1.71125 5.73125 -1.5625 4.5625 C-1 1 -1 1 0 0 Z " fill="#E9F2F8" transform="translate(555,599)"/>
<path d="M0 0 C2.97 0.33 5.94 0.66 9 1 C9 1.66 9 2.32 9 3 C9.99 3.33 10.98 3.66 12 4 C10.02 4.66 8.04 5.32 6 6 C5.67 11.94 5.34 17.88 5 24 C3.35 24 1.7 24 0 24 C0 16.08 0 8.16 0 0 Z " fill="#EAF3F9" transform="translate(219,593)"/>
<path d="M0 0 C0.99 0.33 1.98 0.66 3 1 C3 2.65 3 4.3 3 6 C3.53625 5.67 4.0725 5.34 4.625 5 C7.5391061 3.77300796 9.86867708 3.85766714 13 4 C13.33 5.65 13.66 7.3 14 9 C13.30132812 9.12117187 12.60265625 9.24234375 11.8828125 9.3671875 C10.97273438 9.53476562 10.06265625 9.70234375 9.125 9.875 C7.76761719 10.11863281 7.76761719 10.11863281 6.3828125 10.3671875 C3.83494012 10.83044703 3.83494012 10.83044703 2 13 C1.78323592 16.39597063 1.91926148 18.75778445 3 22 C1.02 22.99 1.02 22.99 -1 24 C-1.02901394 20.5625177 -1.04680335 17.12506688 -1.0625 13.6875 C-1.07087891 12.71103516 -1.07925781 11.73457031 -1.08789062 10.72851562 C-1.09111328 9.79072266 -1.09433594 8.85292969 -1.09765625 7.88671875 C-1.10551147 6.59060669 -1.10551147 6.59060669 -1.11352539 5.26831055 C-1 3 -1 3 0 0 Z " fill="#0A3862" transform="translate(254,593)"/>
<path d="M0 0 C2.475 0.495 2.475 0.495 5 1 C5 8.59 5 16.18 5 24 C3.35 24 1.7 24 0 24 C0 16.08 0 8.16 0 0 Z " fill="#F7FBFD" transform="translate(294,593)"/>
<path d="M0 0 C2.475 0.495 2.475 0.495 5 1 C5 8.59 5 16.18 5 24 C3.35 24 1.7 24 0 24 C0 16.08 0 8.16 0 0 Z " fill="#EFF9FB" transform="translate(540,593)"/>
<path d="M0 0 C0.97066406 -0.01417969 1.94132812 -0.02835938 2.94140625 -0.04296875 C5.4375 0.1875 5.4375 0.1875 7.4375 2.1875 C7.6328125 5.4453125 7.6328125 5.4453125 7.5625 9.3125 C7.54445313 10.59382812 7.52640625 11.87515625 7.5078125 13.1953125 C7.48460937 14.18273437 7.46140625 15.17015625 7.4375 16.1875 C6.4475 16.5175 5.4575 16.8475 4.4375 17.1875 C4.4375 15.8675 4.4375 14.5475 4.4375 13.1875 C3.4475 13.1875 2.4575 13.1875 1.4375 13.1875 C1.4375 12.5275 1.4375 11.8675 1.4375 11.1875 C2.0975 11.1875 2.7575 11.1875 3.4375 11.1875 C2.7775 9.2075 2.1175 7.2275 1.4375 5.1875 C-2.0844721 5.10745518 -5.18231469 5.14744298 -8.5625 6.1875 C-8.5625 4.5375 -8.5625 2.8875 -8.5625 1.1875 C-5.47951949 0.15983983 -3.23119574 0.02151262 0 0 Z " fill="#F8FBFD" transform="translate(265.5625,592.8125)"/>
<path d="M0 0 C2.49931612 3.79856379 2.2973378 7.67980838 2.25 12.0625 C2.25773437 12.78244141 2.26546875 13.50238281 2.2734375 14.24414062 C2.25937918 18.02934363 2.1475969 19.77860465 0 23 C0 22.01 0 21.02 0 20 C-1.65 19.67 -3.3 19.34 -5 19 C-5 14.05 -5 9.1 -5 4 C-3.35 4 -1.7 4 0 4 C0 2.68 0 1.36 0 0 Z " fill="#103C68" transform="translate(290,593)"/>
<path d="M0 0 C1.32 0 2.64 0 4 0 C4.98043964 2.94131891 5.11621202 4.82501665 5.09765625 7.88671875 C5.09282227 9.2934082 5.09282227 9.2934082 5.08789062 10.72851562 C5.07951172 11.70498047 5.07113281 12.68144531 5.0625 13.6875 C5.05798828 14.67556641 5.05347656 15.66363281 5.04882812 16.68164062 C5.03704303 19.12115474 5.02059011 21.56054689 5 24 C3.35 24 1.7 24 0 24 C0 16.08 0 8.16 0 0 Z " fill="#E5EFF7" transform="translate(415,593)"/>
<path d="M0 0 C1.32 0 2.64 0 4 0 C4.98043964 2.94131891 5.11621202 4.82501665 5.09765625 7.88671875 C5.09282227 9.2934082 5.09282227 9.2934082 5.08789062 10.72851562 C5.07951172 11.70498047 5.07113281 12.68144531 5.0625 13.6875 C5.05798828 14.67556641 5.05347656 15.66363281 5.04882812 16.68164062 C5.03704303 19.12115474 5.02059011 21.56054689 5 24 C3.35 24 1.7 24 0 24 C0 16.08 0 8.16 0 0 Z " fill="#E3EDF5" transform="translate(140,593)"/>
<path d="M0 0 C0.33 0 0.66 0 1 0 C1 1.65 1 3.3 1 5 C0.34 5 -0.32 5 -1 5 C-1 5.66 -1 6.32 -1 7 C-0.34 7 0.32 7 1 7 C1.125 9.375 1.125 9.375 1 12 C-1 14 -1 14 -3.4375 14.25 C-6 14 -6 14 -9 12 C-9.66 11.01 -10.32 10.02 -11 9 C-11.66 10.32 -12.32 11.64 -13 13 C-13.36627907 7.50581395 -13.36627907 7.50581395 -11.6875 5.1875 C-7.96791703 2.57001569 -4.38234788 2.91731419 0 3 C0 2.01 0 1.02 0 0 Z " fill="#C9D6E1" transform="translate(268,599)"/>
<path d="M0 0 C0.33 0 0.66 0 1 0 C1.144375 1.0725 1.28875 2.145 1.4375 3.25 C2.17722894 5.99200276 2.69971506 6.80950845 5.13671875 8.35546875 C7.40118377 9.34017332 9.65644601 10.22363746 12 11 C11.67 12.65 11.34 14.3 11 16 C7.05272412 16.17942163 4.4019487 16.09350689 1 14 C0.67 15.32 0.34 16.64 0 18 C-0.66 18 -1.32 18 -2 18 C-2.23268915 11.71739294 -1.40454548 6.11980533 0 0 Z " fill="#1C466F" transform="translate(499,597)"/>
<path d="M0 0 C2.47923801 -0.02685095 4.9581884 -0.04676547 7.4375 -0.0625 C8.14455078 -0.07087891 8.85160156 -0.07925781 9.58007812 -0.08789062 C11.38693559 -0.09653588 13.19387603 -0.05220011 15 0 C16 1 16 1 16.0625 4.5625 C16.041875 5.696875 16.02125 6.83125 16 8 C15.67 7.01 15.34 6.02 15 5 C14.29875 5.33 13.5975 5.66 12.875 6 C9.617944 7.13288904 7.42302438 7.43698184 4 7 C1.625 5.1875 1.625 5.1875 0 3 C0 2.01 0 1.02 0 0 Z " fill="#022D58" transform="translate(770,606)"/>
<path d="M0 0 C0.99 0 1.98 0 3 0 C3.28875 0.804375 3.5775 1.60875 3.875 2.4375 C4.73262568 5.1326468 4.73262568 5.1326468 7 6 C10.83588262 6.17048367 14.2651627 5.87878525 18 5 C18 6.32 18 7.64 18 9 C13.78746574 11.10626713 9.64074179 11.87578201 5 11 C2.17450403 9.63414821 1.11347837 8.49282064 -1 6 C-0.875 2.6875 -0.875 2.6875 0 0 Z " fill="#E7F4FA" transform="translate(767,606)"/>
<path d="M0 0 C1.32 0 2.64 0 4 0 C4 7.59 4 15.18 4 23 C2.68 23 1.36 23 0 23 C0 15.41 0 7.82 0 0 Z " fill="#F0F9FC" transform="translate(735,593)"/>
<path d="M0 0 C0.66 1.32 1.32 2.64 2 4 C2.66 3.67 3.32 3.34 4 3 C4.99 5.64 5.98 8.28 7 11 C5.35 11.33 3.7 11.66 2 12 C2 13.65 2 15.3 2 17 C1.67 17 1.34 17 1 17 C0.896875 15.88625 0.79375 14.7725 0.6875 13.625 C0.460625 12.42875 0.23375 11.2325 0 10 C-3.28463659 7.81024227 -6.20696275 7.00193437 -10 6 C-10 4.68 -10 3.36 -10 2 C-6.05272412 1.82057837 -3.4019487 1.90649311 0 4 C0 2.68 0 1.36 0 0 Z " fill="#134066" transform="translate(515,595)"/>
<path d="M0 0 C1.32 0 2.64 0 4 0 C4 7.26 4 14.52 4 22 C2.68 22 1.36 22 0 22 C0 14.74 0 7.48 0 0 Z " fill="#F6FCFD" transform="translate(576,594)"/>
<path d="M0 0 C0.33 0 0.66 0 1 0 C1.36797303 6.50085678 1.36797303 6.50085678 -0.23828125 8.6796875 C-3.41630407 11.06144296 -7.12716078 11.02713022 -11 11 C-14.0625 10.0625 -14.0625 10.0625 -16 9 C-16 7.68 -16 6.36 -16 5 C-15.22914063 5.02320313 -14.45828125 5.04640625 -13.6640625 5.0703125 C-12.15972656 5.09738281 -12.15972656 5.09738281 -10.625 5.125 C-9.62726562 5.14820313 -8.62953125 5.17140625 -7.6015625 5.1953125 C-4.83737827 5.27216848 -4.83737827 5.27216848 -3 3 C-3 3.66 -3 4.32 -3 5 C-2.34 5 -1.68 5 -1 5 C-0.67 3.35 -0.34 1.7 0 0 Z " fill="#DCE8F1" transform="translate(535,606)"/>
<path d="M0 0 C0.66 0.33 1.32 0.66 2 1 C2 10.9 2 20.8 2 31 C1.01 30.67 0.02 30.34 -1 30 C-1.02898816 26.06251542 -1.04679464 22.12505821 -1.0625 18.1875 C-1.07087891 17.06794922 -1.07925781 15.94839844 -1.08789062 14.79492188 C-1.09111328 13.72177734 -1.09433594 12.64863281 -1.09765625 11.54296875 C-1.10289307 10.55321045 -1.10812988 9.56345215 -1.11352539 8.54370117 C-1 6 -1 6 0 3 C0 2.01 0 1.02 0 0 Z " fill="#D0DEE6" transform="translate(531,410)"/>
<path d="M0 0 C0.66 0 1.32 0 2 0 C2 11.55 2 23.1 2 35 C1.34 35 0.68 35 0 35 C-0.167247 30.176384 -0.32784308 25.35261089 -0.48217773 20.52856445 C-0.53566959 18.88625066 -0.59100431 17.24399584 -0.64819336 15.60180664 C-0.72990479 13.24638594 -0.80506639 10.89083518 -0.87890625 8.53515625 C-0.90594131 7.79660904 -0.93297638 7.05806183 -0.96083069 6.2971344 C-1.0129438 4.53214384 -1.0118612 2.7657199 -1 1 C-0.67 0.67 -0.34 0.34 0 0 Z " fill="#3A6285" transform="translate(126,504)"/>
<path d="M0 0 C0.66 0 1.32 0 2 0 C2 6.6 2 13.2 2 20 C0.68 20 -0.64 20 -2 20 C-2.05392397 17.22890693 -2.09363455 14.45886182 -2.125 11.6875 C-2.14175781 10.90181641 -2.15851563 10.11613281 -2.17578125 9.30664062 C-2.18544922 8.1706543 -2.18544922 8.1706543 -2.1953125 7.01171875 C-2.20578613 6.31522217 -2.21625977 5.61872559 -2.22705078 4.90112305 C-2 3 -2 3 0 0 Z " fill="#F6FCFD" transform="translate(157,596)"/>
<path d="M0 0 C1.32 0 2.64 0 4 0 C4.22151549 1.79008467 4.42682213 3.58218162 4.625 5.375 C4.74101563 6.37273438 4.85703125 7.37046875 4.9765625 8.3984375 C4.98429688 9.25695312 4.99203125 10.11546875 5 11 C4.34 11.66 3.68 12.32 3 13 C2.484375 12.54625 1.96875 12.0925 1.4375 11.625 C-1.57300574 9.61799617 -4.50927237 8.87268191 -8 8 C-7.67 6.68 -7.34 5.36 -7 4 C-3.05272412 3.82057837 -0.4019487 3.90649311 3 6 C3 4.35 3 2.7 3 1 C2.01 0.67 1.02 0.34 0 0 Z " fill="#133E69" transform="translate(532,593)"/>
<path d="M0 0 C1.37478516 0.01740234 1.37478516 0.01740234 2.77734375 0.03515625 C3.69644531 0.04417969 4.61554688 0.05320312 5.5625 0.0625 C6.27277344 0.07410156 6.98304688 0.08570313 7.71484375 0.09765625 C8.04484375 0.75765625 8.37484375 1.41765625 8.71484375 2.09765625 C7.39484375 2.09765625 6.07484375 2.09765625 4.71484375 2.09765625 C4.71484375 2.75765625 4.71484375 3.41765625 4.71484375 4.09765625 C3.82796875 4.38640625 2.94109375 4.67515625 2.02734375 4.97265625 C-0.78898049 5.92914373 -3.53598781 6.96564571 -6.28515625 8.09765625 C-6.61515625 11.06765625 -6.94515625 14.03765625 -7.28515625 17.09765625 C-7.61515625 17.09765625 -7.94515625 17.09765625 -8.28515625 17.09765625 C-9.07250484 7.10707752 -9.07250484 7.10707752 -5.84765625 2.97265625 C-5.00203125 2.35390625 -4.15640625 1.73515625 -3.28515625 1.09765625 C-2.28515625 0.09765625 -2.28515625 0.09765625 0 0 Z " fill="#DDEAF3" transform="translate(311.28515625,592.90234375)"/>
<path d="M0 0 C2.52775351 3.79163027 2.22443035 6.80874031 2.125 11.1875 C2.11597656 11.93708984 2.10695313 12.68667969 2.09765625 13.45898438 C2.07412578 15.30612654 2.03825561 17.15310412 2 19 C0.68 19 -0.64 19 -2 19 C-2.05380578 16.20807795 -2.09357669 13.4171859 -2.125 10.625 C-2.14175781 9.8309375 -2.15851563 9.036875 -2.17578125 8.21875 C-2.19335473 6.14507985 -2.10335168 4.07116759 -2 2 C-1.34 1.34 -0.68 0.68 0 0 Z " fill="#F4FCFD" transform="translate(445,597)"/>
<path d="M0 0 C0.66 0.33 1.32 0.66 2 1 C2 2.32 2 3.64 2 5 C1.06027344 4.94779297 1.06027344 4.94779297 0.1015625 4.89453125 C-0.71570313 4.86746094 -1.53296875 4.84039063 -2.375 4.8125 C-3.59316406 4.76029297 -3.59316406 4.76029297 -4.8359375 4.70703125 C-5.55007813 4.80371094 -6.26421875 4.90039062 -7 5 C-7.99 6.485 -7.99 6.485 -9 8 C-9.66 8 -10.32 8 -11 8 C-11.66 8.66 -12.32 9.32 -13 10 C-13.3125 6.6875 -13.3125 6.6875 -13 3 C-9.12835818 -0.75065301 -5.07468945 -0.33276652 0 0 Z " fill="#D9E6F0" transform="translate(659,593)"/>
<path d="M0 0 C0.66 0.33 1.32 0.66 2 1 C2 2.65 2 4.3 2 6 C1.0409375 5.7525 1.0409375 5.7525 0.0625 5.5 C-3.97586652 4.84067485 -7.91807258 4.91996221 -12 5 C-11.67 4.01 -11.34 3.02 -11 2 C-11.99 1.34 -12.98 0.68 -14 0 C-9.20863728 -1.59712091 -4.74150731 -1.58050244 0 0 Z " fill="#CAD8E4" transform="translate(384,586)"/>
<path d="M0 0 C1.65 0 3.3 0 5 0 C5 0.66 5 1.32 5 2 C5.99 1.34 6.98 0.68 8 0 C10.6875 -0.125 10.6875 -0.125 13 0 C13 1.65 13 3.3 13 5 C10.36 5.33 7.72 5.66 5 6 C4.67 4.35 4.34 2.7 4 1 C3.01 1 2.02 1 1 1 C1 8.26 1 15.52 1 23 C0.67 23 0.34 23 0 23 C0 15.41 0 7.82 0 0 Z " fill="#CDE3F6" transform="translate(623,593)"/>
<path d="M0 0 C0.625 1.875 0.625 1.875 1 4 C-1 6 -1 6 -3.875 6.3125 C-7.27610553 5.97238945 -8.60841421 5.39158579 -11 3 C-11 2.34 -11 1.68 -11 1 C-6.8204355 -1.78637633 -4.85331323 -0.79562512 0 0 Z " fill="#3F6284" transform="translate(657,607)"/>
<path d="M0 0 C1.18297571 2.36595143 1.10136311 3.80776319 1.0625 6.4375 C1.05347656 7.21996094 1.04445313 8.00242187 1.03515625 8.80859375 C1.02355469 9.53175781 1.01195312 10.25492188 1 11 C1 11.99 1 12.98 1 14 C0.01 15.485 0.01 15.485 -1 17 C-6.13858696 10.70108696 -6.13858696 10.70108696 -6.0625 5.375 C-6.05347656 4.55773437 -6.04445313 3.74046875 -6.03515625 2.8984375 C-6.02355469 2.27195312 -6.01195312 1.64546875 -6 1 C-5.67 1 -5.34 1 -5 1 C-5 3.31 -5 5.62 -5 8 C-4.01 8 -3.02 8 -2 8 C-1.855625 6.865625 -1.71125 5.73125 -1.5625 4.5625 C-1 1 -1 1 0 0 Z " fill="#CAD8E5" transform="translate(555,599)"/>
<path d="M0 0 C0.99 0.33 1.98 0.66 3 1 C3 3.64 3 6.28 3 9 C2.34 9 1.68 9 1 9 C1.14148989 10.6045556 1.28835686 12.20863767 1.4375 13.8125 C1.51871094 14.70582031 1.59992188 15.59914063 1.68359375 16.51953125 C1.93489767 19.12743559 1.93489767 19.12743559 3 22 C1.02 22.99 1.02 22.99 -1 24 C-1.02901394 20.5625177 -1.04680335 17.12506688 -1.0625 13.6875 C-1.07087891 12.71103516 -1.07925781 11.73457031 -1.08789062 10.72851562 C-1.09111328 9.79072266 -1.09433594 8.85292969 -1.09765625 7.88671875 C-1.10551147 6.59060669 -1.10551147 6.59060669 -1.11352539 5.26831055 C-1 3 -1 3 0 0 Z " fill="#17426D" transform="translate(254,593)"/>
<path d="M0 0 C2.64 0 5.28 0 8 0 C8.125 2.375 8.125 2.375 8 5 C6 7 6 7 3.5 7.25 C1 7 1 7 -1 5 C-0.625 2.375 -0.625 2.375 0 0 Z " fill="#23496E" transform="translate(261,606)"/>
<path d="M0 0 C1.33333333 0 2.66666667 0 4 0 C4 5.94 4 11.88 4 18 C2.68 18 1.36 18 0 18 C0 12.06 0 6.12 0 0 Z " fill="#F8FEFE" transform="translate(344,598)"/>
<path d="M0 0 C0 7.59 0 15.18 0 23 C-0.33 23 -0.66 23 -1 23 C-1.12375 22.030625 -1.2475 21.06125 -1.375 20.0625 C-1.684375 18.5465625 -1.684375 18.5465625 -2 17 C-2.66 16.67 -3.32 16.34 -4 16 C-4.0810206 13.89646505 -4.13919907 11.79204048 -4.1875 9.6875 C-4.22230469 8.51574219 -4.25710938 7.34398437 -4.29296875 6.13671875 C-4 3 -4 3 -2.55078125 1.08203125 C-1 0 -1 0 0 0 Z " fill="#08345F" transform="translate(414,594)"/>
<path d="M0 0 C2.475 0.495 2.475 0.495 5 1 C5 8.59 5 16.18 5 24 C3.35 24 1.7 24 0 24 C1.32 23.67 2.64 23.34 4 23 C3.91297874 20.72844502 3.80480478 18.45769257 3.6875 16.1875 C3.62949219 14.92292969 3.57148438 13.65835938 3.51171875 12.35546875 C2.97288745 8.82221616 2.58563211 8.20053796 0 6 C-0.1875 2.8125 -0.1875 2.8125 0 0 Z " fill="#D5E5F2" transform="translate(294,593)"/>
<path d="M0 0 C0.66 0.33 1.32 0.66 2 1 C2 6.94 2 12.88 2 19 C1.01 19 0.02 19 -1 19 C-1.02697137 16.39576408 -1.04682489 13.79180756 -1.0625 11.1875 C-1.07087891 10.44951172 -1.07925781 9.71152344 -1.08789062 8.95117188 C-1.10259828 5.70077932 -1.03531702 3.10595105 0 0 Z " fill="#F6FBFD" transform="translate(724,597)"/>
<path d="M0 0 C1.32 0.66 2.64 1.32 4 2 C4 2.66 4 3.32 4 4 C0.18791906 5.79392044 -2.78715363 6.45791808 -7 6 C-8.875 4.5 -8.875 4.5 -10 3 C-9.67 2.34 -9.34 1.68 -9 1 C-7.700625 1.020625 -6.40125 1.04125 -5.0625 1.0625 C-3.70834367 1.08399454 -2.35243917 1.07148199 -1 1 C-0.67 0.67 -0.34 0.34 0 0 Z " fill="#E5EFF7" transform="translate(191,611)"/>
<path d="M0 0 C0.33 0 0.66 0 1 0 C1.66 1.98 2.32 3.96 3 6 C3.33 6 3.66 6 4 6 C4 9.63 4 13.26 4 17 C2.68 17 1.36 17 0 17 C0 11.39 0 5.78 0 0 Z " fill="#F2FBFE" transform="translate(453,599)"/>
<path d="M0 0 C2.64 0.33 5.28 0.66 8 1 C8.5625 2.9375 8.5625 2.9375 9 5 C7.12356239 6.87643761 4.50194299 6.17984987 2.0078125 6.23046875 C0 6 0 6 -3 4 C-2.67 3.34 -2.34 2.68 -2 2 C-1.34 2 -0.68 2 0 2 C0 1.34 0 0.68 0 0 Z " fill="#1B456E" transform="translate(522,606)"/>
<path d="M0 0 C0.97066406 -0.02578125 1.94132812 -0.0515625 2.94140625 -0.078125 C4.17697266 0.08429687 4.17697266 0.08429687 5.4375 0.25 C6.0975 1.24 6.7575 2.23 7.4375 3.25 C6.4475 3.25 5.4575 3.25 4.4375 3.25 C4.4375 2.59 4.4375 1.93 4.4375 1.25 C3.4475 1.91 2.4575 2.57 1.4375 3.25 C1.4375 3.58 1.4375 3.91 1.4375 4.25 C-1.8625 4.91 -5.1625 5.57 -8.5625 6.25 C-8.5625 4.6 -8.5625 2.95 -8.5625 1.25 C-5.49668931 0.2280631 -3.21449926 0.0513635 0 0 Z " fill="#DDECF5" transform="translate(265.5625,592.75)"/>
<path d="M0 0 C0.66 0.33 1.32 0.66 2 1 C1.14277344 1.78503906 0.28554688 2.57007813 -0.59765625 3.37890625 C-6.51476738 8.81106495 -12.38405607 14.25345272 -18 20 C-18.66 19.67 -19.32 19.34 -20 19 C-13.82344391 11.85096487 -7.61678482 5.65586788 0 0 Z " fill="#E3EEF5" transform="translate(302,334)"/>
<path d="M0 0 C3 0.25 3 0.25 5 2.25 C5.125 5.875 5.125 5.875 5 9.25 C1.61981362 8.12327121 0.4427989 6.76913637 -2 4.25 C-2.99 3.59 -3.98 2.93 -5 2.25 C-3 0.25 -3 0.25 0 0 Z " fill="#F1F8FC" transform="translate(530,602.75)"/>
<path d="M0 0 C1.65 0 3.3 0 5 0 C5 1.98 5 3.96 5 6 C6.65 6 8.3 6 10 6 C10 7.32 10 8.64 10 10 C8.35 10 6.7 10 5 10 C5 14.29 5 18.58 5 23 C4.67 23 4.34 23 4 23 C4 15.74 4 8.48 4 1 C2.68 0.67 1.36 0.34 0 0 Z " fill="#CFE2F1" transform="translate(280,587)"/>
<path d="M0 0 C0.98871094 -0.01417969 1.97742188 -0.02835938 2.99609375 -0.04296875 C5.5625 0.1875 5.5625 0.1875 7.5625 2.1875 C7.5625 3.5075 7.5625 4.8275 7.5625 6.1875 C4.2625 5.5275 0.9625 4.8675 -2.4375 4.1875 C-2.4375 3.5275 -2.4375 2.8675 -2.4375 2.1875 C-3.7575 1.8575 -5.0775 1.5275 -6.4375 1.1875 C-4.69900372 -0.55099628 -2.3588363 0.01533704 0 0 Z " fill="#D1E2ED" transform="translate(755.4375,592.8125)"/>
<path d="M0 0 C1.65 0.33 3.3 0.66 5 1 C5.36521739 6.47826087 5.36521739 6.47826087 3.6875 8.875 C2 10 2 10 -1 10 C-1 9.01 -1 8.02 -1 7 C-0.34 7 0.32 7 1 7 C0.34 6.01 -0.32 5.02 -1 4 C-0.625 1.8125 -0.625 1.8125 0 0 Z " fill="#D6E6F1" transform="translate(640,585)"/>
<path d="M0 0 C0.99 0 1.98 0 3 0 C3 1.32 3 2.64 3 4 C4.98 4.66 6.96 5.32 9 6 C8.34 6.66 7.68 7.32 7 8 C7.99 8.66 8.98 9.32 10 10 C3.65492958 10.35915493 3.65492958 10.35915493 1.0625 8.9375 C-0.55479605 5.98831309 -0.18630138 3.29132441 0 0 Z " fill="#D4E2ED" transform="translate(256,607)"/>
<path d="M0 0 C0.66 0.99 1.32 1.98 2 3 C1.319375 3.5259375 1.319375 3.5259375 0.625 4.0625 C-1.64661334 6.77096206 -2.16798854 9.60795328 -3 13 C-3.99 13 -4.98 13 -6 13 C-6.7230444 6.97463002 -6.7230444 6.97463002 -4.6640625 4.19921875 C-3.17261584 2.73227943 -1.59067631 1.35870269 0 0 Z " fill="#F6FAFD" transform="translate(556,594)"/>
<path d="M0 0 C0.99 0 1.98 0 3 0 C3.28875 0.78375 3.5775 1.5675 3.875 2.375 C4.84912254 5.09671632 4.84912254 5.09671632 7 7 C6.01 8.485 6.01 8.485 5 10 C2.53199953 8.84826645 0.95216435 7.95216435 -1 6 C-0.625 2.875 -0.625 2.875 0 0 Z " fill="#EDF7FA" transform="translate(767,606)"/>
<path d="M0 0 C2.37919704 3.56879555 2.74318513 6.45911077 3.4375 10.625 C3.91284999 13.24628387 3.91284999 13.24628387 6 16 C5.01 16.33 4.02 16.66 3 17 C2.67 15.35 2.34 13.7 2 12 C1.01 12.33 0.02 12.66 -1 13 C-1.02696365 11.20841511 -1.04637917 9.41671527 -1.0625 7.625 C-1.07410156 6.62726562 -1.08570313 5.62953125 -1.09765625 4.6015625 C-1 2 -1 2 0 0 Z " fill="#164069" transform="translate(301,599)"/>
<path d="M0 0 C2.875 -0.125 2.875 -0.125 6 0 C8 2 8 2 8 5 C4.7 5 1.4 5 -2 5 C-1.34 3.35 -0.68 1.7 0 0 Z " fill="#143C61" transform="translate(606,597)"/>
<path d="M0 0 C0.33 1.32 0.66 2.64 1 4 C1.99 4 2.98 4 4 4 C4 5.32 4 6.64 4 8 C3.01 8 2.02 8 1 8 C0.67 9.32 0.34 10.64 0 12 C0 10.68 0 9.36 0 8 C-1.65 8 -3.3 8 -5 8 C-4.67 6.68 -4.34 5.36 -4 4 C-2.68 4 -1.36 4 0 4 C0 2.68 0 1.36 0 0 Z " fill="#294D70" transform="translate(718,585)"/>
<path d="M0 0 C0.33 1.65 0.66 3.3 1 5 C-1.97 5 -4.94 5 -8 5 C-8 3.68 -8 2.36 -8 1 C-5.29120665 -0.35439668 -2.99066732 -0.06501451 0 0 Z " fill="#143C64" transform="translate(779,597)"/>
<path d="M0 0 C0.99 0 1.98 0 3 0 C3 0.66 3 1.32 3 2 C3.66 2 4.32 2 5 2 C5 2.99 5 3.98 5 5 C4.34 5 3.68 5 3 5 C3.03480469 5.62648438 3.06960938 6.25296875 3.10546875 6.8984375 C3.13253906 7.71570313 3.15960938 8.53296875 3.1875 9.375 C3.22230469 10.18710937 3.25710938 10.99921875 3.29296875 11.8359375 C3.19628906 12.55007813 3.09960938 13.26421875 3 14 C2.01 14.66 1.02 15.32 0 16 C0 10.72 0 5.44 0 0 Z " fill="#F9FDFD" transform="translate(330,594)"/>
<path d="M0 0 C1.45792884 -0.05399736 2.91642712 -0.09279177 4.375 -0.125 C5.18710937 -0.14820313 5.99921875 -0.17140625 6.8359375 -0.1953125 C9 0 9 0 11 2 C11.125 4.625 11.125 4.625 11 7 C10.34 6.34 9.68 5.68 9 5 C7.68 5 6.36 5 5 5 C4.01 4.34 3.02 3.68 2 3 C2.66 2.67 3.32 2.34 4 2 C2.35 2 0.7 2 -1 2 C-0.67 1.34 -0.34 0.68 0 0 Z " fill="#DEEBF3" transform="translate(436,593)"/>
<path d="M0 0 C-0.69867187 0.25394531 -1.39734375 0.50789063 -2.1171875 0.76953125 C-3.48230469 1.28580078 -3.48230469 1.28580078 -4.875 1.8125 C-5.77992188 2.14894531 -6.68484375 2.48539062 -7.6171875 2.83203125 C-10.29425849 3.89649024 -10.29425849 3.89649024 -12 7 C-12.66 6.67 -13.32 6.34 -14 6 C-14.33 6.66 -14.66 7.32 -15 8 C-15.99 7.67 -16.98 7.34 -18 7 C-14.03439709 1.95286902 -6.37264477 -2.28648134 0 0 Z " fill="#21486D" transform="translate(575,358)"/>
<path d="M0 0 C0.33 0 0.66 0 1 0 C1.22655901 3.08227709 1.42803465 6.1657016 1.625 9.25 C1.68945312 10.12269531 1.75390625 10.99539063 1.8203125 11.89453125 C1.871875 12.73886719 1.9234375 13.58320312 1.9765625 14.453125 C2.02893066 15.22817383 2.08129883 16.00322266 2.13525391 16.80175781 C1.9810467 19.30804237 1.25581508 20.84839873 0 23 C-0.99 23 -1.98 23 -3 23 C-3 22.01 -3 21.02 -3 20 C-3.99 19.34 -4.98 18.68 -6 18 C-4.02 18 -2.04 18 0 18 C0 12.06 0 6.12 0 0 Z " fill="#022B55" transform="translate(238,599)"/>
<path d="M0 0 C1.9375 0.6875 1.9375 0.6875 4 2 C4.75 4.625 4.75 4.625 5 7 C4.01 7.495 4.01 7.495 3 8 C2.34444881 10.52733235 2.34444881 10.52733235 2 13 C1.67 13 1.34 13 1 13 C0.63901937 11.02206479 0.28638652 9.04260427 -0.0625 7.0625 C-0.25972656 5.96035156 -0.45695312 4.85820313 -0.66015625 3.72265625 C-0.77230469 2.82417969 -0.88445312 1.92570313 -1 1 C-0.67 0.67 -0.34 0.34 0 0 Z " fill="#F1F8FC" transform="translate(405,595)"/>
<path d="M0 0 C1.43739513 -0.02712066 2.87493863 -0.04645067 4.3125 -0.0625 C5.51326172 -0.07990234 5.51326172 -0.07990234 6.73828125 -0.09765625 C9 0 9 0 12 1 C12 2.65 12 4.3 12 6 C8.7 5.34 5.4 4.68 2 4 C2.99 3.34 3.98 2.68 5 2 C3.35 1.67 1.7 1.34 0 1 C0 0.67 0 0.34 0 0 Z " fill="#D2E5F0" transform="translate(523,593)"/>
<path d="M0 0 C0.66 0.33 1.32 0.66 2 1 C1.34 4.63 0.68 8.26 0 12 C-0.33 11.01 -0.66 10.02 -1 9 C-1.99 9.33 -2.98 9.66 -4 10 C-4 8.02 -4 6.04 -4 4 C-3.34 4 -2.68 4 -2 4 C-1.34 2.68 -0.68 1.36 0 0 Z " fill="#F7FCFD" transform="translate(680,590)"/>
<path d="M0 0 C2.64 0 5.28 0 8 0 C8 1.32 8 2.64 8 4 C6.35 4 4.7 4 3 4 C2.67 5.32 2.34 6.64 2 8 C1.67 6.35 1.34 4.7 1 3 C0.01 3.33 -0.98 3.66 -2 4 C-1.34 2.68 -0.68 1.36 0 0 Z " fill="#C9DAE8" transform="translate(168,585)"/>
<path d="M0 0 C2.97 0.495 2.97 0.495 6 1 C6.38218767 2.65614657 6.71395102 4.32457024 7 6 C6 7 6 7 2.9375 7.0625 C1.968125 7.041875 0.99875 7.02125 0 7 C0.33 6.34 0.66 5.68 1 5 C0.34 4.34 -0.32 3.68 -1 3 C-0.67 2.01 -0.34 1.02 0 0 Z " fill="#2E5478" transform="translate(504,606)"/>
<path d="M0 0 C0.99 0.495 0.99 0.495 2 1 C2 3.64 2 6.28 2 9 C3.65 9.33 5.3 9.66 7 10 C7.33 10.99 7.66 11.98 8 13 C5.04938857 13.31898502 3.55901674 13.4433581 1.1875 11.5625 C-0.57634638 7.75630517 -0.23816637 4.12821704 0 0 Z " fill="#103762" transform="translate(182,600)"/>
<path d="M0 0 C-0.66 1.65 -1.32 3.3 -2 5 C-8.52307692 5.36923077 -8.52307692 5.36923077 -10.9375 3.5 C-11.4634375 2.7575 -11.4634375 2.7575 -12 2 C-7.8794254 0.00214565 -4.54805635 -0.17835515 0 0 Z " fill="#E4EFF6" transform="translate(482,593)"/>
<path d="M0 0 C0.99 0 1.98 0 3 0 C3 1.65 3 3.3 3 5 C-1.1205746 6.99785435 -4.45194365 7.17835515 -9 7 C-9 6.67 -9 6.34 -9 6 C-8.071875 5.7525 -7.14375 5.505 -6.1875 5.25 C-2.74972473 3.90185284 -2.0396478 2.91378257 0 0 Z " fill="#C5D7E6" transform="translate(760,610)"/>
<path d="M0 0 C-0.33 1.65 -0.66 3.3 -1 5 C-3.75078884 5.91692961 -5.35948913 6.10886083 -8.1875 6.0625 C-10.0746875 6.0315625 -10.0746875 6.0315625 -12 6 C-11.34 5.01 -10.68 4.02 -10 3 C-7.375 2.8125 -7.375 2.8125 -5 3 C-5 2.34 -5 1.68 -5 1 C-3 0 -3 0 0 0 Z " fill="#D4E4EF" transform="translate(618,611)"/>
<path d="M0 0 C8.2173913 1.82608696 8.2173913 1.82608696 11 6 C9.741875 6.04125 8.48375 6.0825 7.1875 6.125 C6.47980469 6.14820313 5.77210938 6.17140625 5.04296875 6.1953125 C3 6 3 6 0 4 C0 2.68 0 1.36 0 0 Z " fill="#D6E4F0" transform="translate(646,611)"/>
<path d="M0 0 C0.66 0 1.32 0 2 0 C2 0.66 2 1.32 2 2 C4.64 2 7.28 2 10 2 C9.67 2.66 9.34 3.32 9 4 C7.02 4 5.04 4 3 4 C2.67 4.66 2.34 5.32 2 6 C-1.0625 6.625 -1.0625 6.625 -4 7 C-2.92598892 4.08482708 -2.22189824 2.22189824 0 0 Z " fill="#D7E3ED" transform="translate(603,594)"/>
<path d="M0 0 C0.66 0 1.32 0 2 0 C0.47987323 5.40489519 -3.27385218 8.98492628 -7 13 C-8 10 -8 10 -7 7 C-5.66666667 6.66666667 -4.33333333 6.33333333 -3 6 C-2.67 5.01 -2.34 4.02 -2 3 C-1.34 2.01 -0.68 1.02 0 0 Z " fill="#184166" transform="translate(622,475)"/>
<path d="M0 0 C0.33 0.99 0.66 1.98 1 3 C1.99 2.67 2.98 2.34 4 2 C4 3.98 4 5.96 4 8 C3.34 7.67 2.68 7.34 2 7 C1.67 11.95 1.34 16.9 1 22 C0.67 22 0.34 22 0 22 C0 14.74 0 7.48 0 0 Z " fill="#093256" transform="translate(299,594)"/>
<path d="M0 0 C1.62490954 -0.02698189 3.24994633 -0.04638757 4.875 -0.0625 C5.77992188 -0.07410156 6.68484375 -0.08570313 7.6171875 -0.09765625 C10 0 10 0 12 1 C12 2.65 12 4.3 12 6 C7.545 5.01 7.545 5.01 3 4 C3 3.67 3 3.34 3 3 C4.98 3 6.96 3 9 3 C9 2.34 9 1.68 9 1 C5.7 1.33 2.4 1.66 -1 2 C-0.67 1.34 -0.34 0.68 0 0 Z " fill="#CFE0ED" transform="translate(503,593)"/>
<path d="M0 0 C2.1385485 2.1385485 2.42655063 3.13275314 3 6 C1.68 6.99 0.36 7.98 -1 9 C-1.66 6.69 -2.32 4.38 -3 2 C-4.32 1.67 -5.64 1.34 -7 1 C-4.50935112 0.31292445 -2.62113708 0 0 0 Z " fill="#EFF6FA" transform="translate(270,594)"/>
<path d="M0 0 C0.99 0 1.98 0 3 0 C3.185625 0.9590625 3.185625 0.9590625 3.375 1.9375 C3.684375 2.9584375 3.684375 2.9584375 4 4 C4.66 4.33 5.32 4.66 6 5 C6.91535656 6.15667784 7.78653288 7.34892918 8.625 8.5625 C9.07101562 9.20316406 9.51703125 9.84382812 9.9765625 10.50390625 C10.31429687 10.99761719 10.65203125 11.49132812 11 12 C10.01 12 9.02 12 8 12 C5.95703125 9.8828125 5.95703125 9.8828125 3.8125 7.125 C3.09707031 6.22007812 2.38164063 5.31515625 1.64453125 4.3828125 C0 2 0 2 0 0 Z " fill="#DCEBF3" transform="translate(719,522)"/>
<path d="M0 0 C1.60372657 4.00931642 0.38691773 7.05823382 -1 11 C-1.66 11.66 -2.32 12.32 -3 13 C-3.08086147 11.20906809 -3.13912702 9.41710372 -3.1875 7.625 C-3.22230469 6.62726562 -3.25710938 5.62953125 -3.29296875 4.6015625 C-3.14794922 3.31378906 -3.14794922 3.31378906 -3 2 C-2.01 1.34 -1.02 0.68 0 0 Z " fill="#F5FAFC" transform="translate(307,599)"/>
<path d="M0 0 C2.375 -0.125 2.375 -0.125 5 0 C5.66 0.66 6.32 1.32 7 2 C6.625 5.625 6.625 5.625 6 9 C3.59927045 6.11912454 1.52708963 3.43595166 0 0 Z " fill="#F3F9FD" transform="translate(316,595)"/>
<path d="M0 0 C0.99 0.33 1.98 0.66 3 1 C3 4.3 3 7.6 3 11 C1.35 11.66 -0.3 12.32 -2 13 C-1.34 8.71 -0.68 4.42 0 0 Z " fill="#1E486F" transform="translate(703,597)"/>
<path d="M0 0 C-3.222107 3.8665284 -6.14922412 4.88059018 -11 6 C-11.33 4.35 -11.66 2.7 -12 1 C-7.93631321 0.22596442 -4.13574827 -0.0984702 0 0 Z " fill="#E5F3F8" transform="translate(431,593)"/>
<path d="M0 0 C0.33 0 0.66 0 1 0 C1 7.59 1 15.18 1 23 C0.67 23 0.34 23 0 23 C-0.66 19.37 -1.32 15.74 -2 12 C-1.34 12 -0.68 12 0 12 C0 8.04 0 4.08 0 0 Z " fill="#032E5D" transform="translate(538,593)"/>
<path d="M0 0 C0 2.31 0 4.62 0 7 C-1.98 7 -3.96 7 -6 7 C-5.39816251 4.97954558 -4.72693904 2.97888961 -4 1 C-2 0 -2 0 0 0 Z " fill="#F0F8FB" transform="translate(785,598)"/>
<path d="M0 0 C0.33 0 0.66 0 1 0 C1.06058594 0.65226563 1.12117187 1.30453125 1.18359375 1.9765625 C1.63519991 6.68716217 2.14195039 11.34201638 3 16 C2.67 16 2.34 16 2 16 C1.67 18.31 1.34 20.62 1 23 C0.67 23 0.34 23 0 23 C0 15.41 0 7.82 0 0 Z " fill="#04305A" transform="translate(546,594)"/>
<path d="M0 0 C4.92980953 2.00844092 8.09403383 5.64105074 11 10 C8 10 8 10 5.95703125 8.3203125 C5.24933594 7.59585937 4.54164063 6.87140625 3.8125 6.125 C2.73935547 5.04605469 2.73935547 5.04605469 1.64453125 3.9453125 C0 2 0 2 0 0 Z " fill="#1D436B" transform="translate(661,338)"/>
<path d="M0 0 C2.31 0 4.62 0 7 0 C6.375 1.875 6.375 1.875 5 4 C1.875 5.25 1.875 5.25 -1 6 C-0.67 4.02 -0.34 2.04 0 0 Z " fill="#E4F0F7" transform="translate(184,593)"/>
<path d="M0 0 C2.0625 0.4375 2.0625 0.4375 4 1 C3.67 2.65 3.34 4.3 3 6 C1.35 5.67 -0.3 5.34 -2 5 C-1.125 1.125 -1.125 1.125 0 0 Z " fill="#CFDFEC" transform="translate(295,585)"/>
<path d="M0 0 C1.33333333 2.66666667 2.66666667 5.33333333 4 8 C2.35 8.33 0.7 8.66 -1 9 C-1 10.65 -1 12.3 -1 14 C-1.33 14 -1.66 14 -2 14 C-2.1799928 8.78020872 -1.97094808 4.92737019 0 0 Z " fill="#244C74" transform="translate(518,598)"/>
<path d="M0 0 C2.875 -0.125 2.875 -0.125 6 0 C6.66 0.66 7.32 1.32 8 2 C3.56923077 5.07692308 3.56923077 5.07692308 0.6875 4.6875 C0.130625 4.460625 -0.42625 4.23375 -1 4 C-0.67 2.68 -0.34 1.36 0 0 Z " fill="#1E456A" transform="translate(525,597)"/>
<path d="M0 0 C2.0625 0.4375 2.0625 0.4375 4 1 C3.67 2.65 3.34 4.3 3 6 C1.35 5.67 -0.3 5.34 -2 5 C-1.125 1.125 -1.125 1.125 0 0 Z " fill="#D3E2EF" transform="translate(492,585)"/>
<path d="M0 0 C0 0.66 0 1.32 0 2 C-0.66 2 -1.32 2 -2 2 C-2.33 2.66 -2.66 3.32 -3 4 C-3.99 4 -4.98 4 -6 4 C-6.33 4.66 -6.66 5.32 -7 6 C-9.0625 7.125 -9.0625 7.125 -11 8 C-11.66 7.34 -12.32 6.68 -13 6 C-11.21118264 4.99491199 -9.41885304 3.99607264 -7.625 3 C-6.62726562 2.443125 -5.62953125 1.88625 -4.6015625 1.3125 C-2 0 -2 0 0 0 Z " fill="#D0DDE7" transform="translate(534,322)"/>
<path d="M0 0 C2.31 0 4.62 0 7 0 C7 0.66 7 1.32 7 2 C7.66 2.66 8.32 3.32 9 4 C5.7 3.67 2.4 3.34 -1 3 C-0.67 2.01 -0.34 1.02 0 0 Z " fill="#DBEAF1" transform="translate(521,613)"/>
<path d="M0 0 C2.00720923 0.28674418 4.0085944 0.61866701 6 1 C6.33 2.32 6.66 3.64 7 5 C4.69 5 2.38 5 0 5 C-0.5625 3.0625 -0.5625 3.0625 -1 1 C-0.67 0.67 -0.34 0.34 0 0 Z " fill="#DDEAF2" transform="translate(556,612)"/>
<path d="M0 0 C0 0.99 0 1.98 0 3 C-4.29 3 -8.58 3 -13 3 C-12.67 2.34 -12.34 1.68 -12 1 C-7.88769156 0.32585108 -4.16980357 0 0 0 Z " fill="#F7FDFE" transform="translate(619,602)"/>
<path d="M0 0 C1.32 0.66 2.64 1.32 4 2 C3.67 3.32 3.34 4.64 3 6 C1.35 5.67 -0.3 5.34 -2 5 C-1.125 1.125 -1.125 1.125 0 0 Z " fill="#D3E6F1" transform="translate(736,585)"/>
<path d="M0 0 C2.0625 0.4375 2.0625 0.4375 4 1 C4 2.65 4 4.3 4 6 C2.35 6 0.7 6 -1 6 C-1.042721 4.33388095 -1.04063832 2.66617115 -1 1 C-0.67 0.67 -0.34 0.34 0 0 Z " fill="#D5E5F0" transform="translate(541,585)"/>
<path d="M0 0 C0.66 0.99 1.32 1.98 2 3 C1.34 3.66 0.68 4.32 0 5 C-0.66 5.86625 -1.32 6.7325 -2 7.625 C-2.66 8.40875 -3.32 9.1925 -4 10 C-4.66 10 -5.32 10 -6 10 C-4.6302836 6.00499382 -2.74277578 3.19990508 0 0 Z " fill="#D9E5EE" transform="translate(160,241)"/>
<path d="M0 0 C1.07765625 0.00902344 2.1553125 0.01804688 3.265625 0.02734375 C4.08546875 0.03894531 4.9053125 0.05054688 5.75 0.0625 C5.75 0.3925 5.75 0.7225 5.75 1.0625 C5.03972656 1.11148438 4.32945312 1.16046875 3.59765625 1.2109375 C2.21900391 1.32308594 2.21900391 1.32308594 0.8125 1.4375 C-0.10402344 1.50710937 -1.02054688 1.57671875 -1.96484375 1.6484375 C-3.09599609 1.85339844 -3.09599609 1.85339844 -4.25 2.0625 C-4.58 2.7225 -4.91 3.3825 -5.25 4.0625 C-7.56 3.7325 -9.87 3.4025 -12.25 3.0625 C-8.68685008 -0.50064992 -4.85839412 -0.05280863 0 0 Z " fill="#ABBDD1" transform="translate(184.25,230.9375)"/>
<path d="M0 0 C1.65 0.33 3.3 0.66 5 1 C4.67 6.94 4.34 12.88 4 19 C3.67 19 3.34 19 3 19 C3 13.39 3 7.78 3 2 C1.68 1.67 0.36 1.34 -1 1 C-0.67 0.67 -0.34 0.34 0 0 Z " fill="#164169" transform="translate(338,597)"/>
<path d="M0 0 C2 2 2 2 2.1953125 3.9453125 C2.13020833 5.96354167 2.06510417 7.98177083 2 10 C1.01 10 0.02 10 -1 10 C-1.125 2.25 -1.125 2.25 0 0 Z " fill="#2F5176" transform="translate(404,599)"/>
<path d="M0 0 C6.0546875 -0.1953125 6.0546875 -0.1953125 8 0 C8.66 0.66 9.32 1.32 10 2 C9 3 9 3 6.93359375 3.09765625 C6.10988281 3.08605469 5.28617188 3.07445312 4.4375 3.0625 C3.61121094 3.05347656 2.78492188 3.04445313 1.93359375 3.03515625 C1.29550781 3.02355469 0.65742187 3.01195312 0 3 C0 2.01 0 1.02 0 0 Z " fill="#EAF4FA" transform="translate(605,593)"/>
<path d="M0 0 C0 0.66 0 1.32 0 2 C-3.87684087 3.19287411 -6.91621923 4 -11 4 C-10.67 3.01 -10.34 2.02 -10 1 C-6.78548731 -0.60725635 -3.56387464 -0.05748185 0 0 Z " fill="#F7FCFE" transform="translate(512,594)"/>
<path d="M0 0 C2.00720923 0.28674418 4.0085944 0.61866701 6 1 C4.35 2.98 2.7 4.96 1 7 C-0.32 6.34 -1.64 5.68 -3 5 C-1.125 1.125 -1.125 1.125 0 0 Z " fill="#0F3C65" transform="translate(303,592)"/>
<path d="M0 0 C4.95 0 9.9 0 15 0 C15 0.33 15 0.66 15 1 C9.06 1.495 9.06 1.495 3 2 C3.33 3.32 3.66 4.64 4 6 C3.01 5.67 2.02 5.34 1 5 C0.67 3.35 0.34 1.7 0 0 Z " fill="#36597B" transform="translate(770,606)"/>
<path d="M0 0 C0.33 0 0.66 0 1 0 C1.33 2.64 1.66 5.28 2 8 C-0.31 7.34 -2.62 6.68 -5 6 C-4.34 5.01 -3.68 4.02 -3 3 C-2.01 3 -1.02 3 0 3 C0 2.01 0 1.02 0 0 Z " fill="#023363" transform="translate(402,603)"/>
<path d="M0 0 C2 1 2 1 2.75 2.875 C3 5 3 5 1 8 C0.34 7.01 -0.32 6.02 -1 5 C-1.66 6.32 -2.32 7.64 -3 9 C-3.36923077 3.46153846 -3.36923077 3.46153846 -1.5 1.125 C-1.005 0.75375 -0.51 0.3825 0 0 Z " fill="#CFDEEB" transform="translate(258,603)"/>
<path d="M0 0 C2.475 0.495 2.475 0.495 5 1 C4.67 6.94 4.34 12.88 4 19 C3.67 19 3.34 19 3 19 C3 13.39 3 7.78 3 2 C2.01 2 1.02 2 0 2 C0 1.34 0 0.68 0 0 Z " fill="#1B4470" transform="translate(227,597)"/>
<path d="M0 0 C0 0.33 0 0.66 0 1 C-0.59167969 1.09796875 -1.18335938 1.1959375 -1.79296875 1.296875 C-6.87042139 2.25769801 -10.17513744 3.2985201 -14 7 C-14 5.35 -14 3.7 -14 2 C-9.126739 0.4087311 -5.19209404 -0.21192221 0 0 Z " fill="#31567A" transform="translate(403,592)"/>
<path d="M0 0 C0.33 0 0.66 0 1 0 C1.04254356 1.99954746 1.04080783 4.00041636 1 6 C0 7 0 7 -3.5625 7.0625 C-4.696875 7.041875 -5.83125 7.02125 -7 7 C-7 6.01 -7 5.02 -7 4 C-5.02 3.67 -3.04 3.34 -1 3 C-0.67 2.01 -0.34 1.02 0 0 Z " fill="#F6FBFE" transform="translate(659,609)"/>
<path d="M0 0 C0.33 0.66 0.66 1.32 1 2 C-3.12168689 3.62950412 -5.70700357 4.26264601 -10 3 C-6.70286397 -0.29713603 -4.54994912 -0.09891194 0 0 Z " fill="#F0F7FC" transform="translate(513,603)"/>
<path d="M0 0 C0.33 1.32 0.66 2.64 1 4 C1.66 4 2.32 4 3 4 C3.33 4.99 3.66 5.98 4 7 C2.34385343 7.38218767 0.67542976 7.71395102 -1 8 C-2 7 -2 7 -2.0625 3.9375 C-2.041875 2.968125 -2.02125 1.99875 -2 1 C-1.34 0.67 -0.68 0.34 0 0 Z " fill="#F4FBFD" transform="translate(649,597)"/>
<path d="M0 0 C-0.99 0.33 -1.98 0.66 -3 1 C-2.01 1.66 -1.02 2.32 0 3 C-2.64 3.66 -5.28 4.32 -8 5 C-8 3.68 -8 2.36 -8 1 C-4.93251126 -0.86240388 -3.40254489 -1.2151946 0 0 Z " fill="#DCEBF2" transform="translate(588,594)"/>
<path d="M0 0 C0 0.66 0 1.32 0 2 C-4.29299643 3.26264601 -6.87831311 2.62950412 -11 1 C-7.2297564 -1.56376565 -4.32597804 -0.83191885 0 0 Z " fill="#EDF4F9" transform="translate(697,587)"/>
<path d="M0 0 C2 2 2 2 2.1953125 4.8203125 C2.16050781 6.45613281 2.16050781 6.45613281 2.125 8.125 C2.10695312 9.22070312 2.08890625 10.31640625 2.0703125 11.4453125 C2.04710937 12.28835938 2.02390625 13.13140625 2 14 C1.01 14.495 1.01 14.495 0 15 C-0.14285714 7.57142857 -0.14285714 7.57142857 1 4 C0.34 4 -0.32 4 -1 4 C-0.67 2.68 -0.34 1.36 0 0 Z " fill="#E4EFF3" transform="translate(214,322)"/>
<path d="M0 0 C1.22589844 0.15275391 1.22589844 0.15275391 2.4765625 0.30859375 C3.41628906 0.43427734 3.41628906 0.43427734 4.375 0.5625 C1.28611478 2.62175681 0.66564073 2.8015374 -2.8125 2.6875 C-4.6996875 2.625625 -4.6996875 2.625625 -6.625 2.5625 C-6.625 1.9025 -6.625 1.2425 -6.625 0.5625 C-4.10446405 -0.69776798 -2.7707902 -0.35624445 0 0 Z " fill="#D3E3F0" transform="translate(778.625,614.4375)"/>
<path d="M0 0 C0 1.32 0 2.64 0 4 C-2.31 4 -4.62 4 -7 4 C-7.33 3.34 -7.66 2.68 -8 2 C-4.91190305 0.23537317 -3.76687864 0 0 0 Z " fill="#D5E8F3" transform="translate(290,613)"/>
<path d="M0 0 C0.99 0 1.98 0 3 0 C3 1.65 3 3.3 3 5 C1.35 5.66 -0.3 6.32 -2 7 C-2 4.06507894 -1.37115167 2.65660636 0 0 Z " fill="#C8D9E6" transform="translate(383,609)"/>
<path d="M0 0 C0.78375 0.04125 1.5675 0.0825 2.375 0.125 C2.375 1.115 2.375 2.105 2.375 3.125 C-1.45489106 4.92730168 -4.40621808 5.32122241 -8.625 5.125 C-8.00625 4.67125 -7.3875 4.2175 -6.75 3.75 C-1.96875 0.09375 -1.96875 0.09375 0 0 Z " fill="#33587C" transform="translate(782.625,607.875)"/>
<path d="M0 0 C2.14699969 3.44175522 2.09856795 5.7720292 1.625 9.75 C1.51414062 10.73484375 1.40328125 11.7196875 1.2890625 12.734375 C1.19367187 13.48203125 1.09828125 14.2296875 1 15 C0.67 15 0.34 15 0 15 C0 12.03 0 9.06 0 6 C-0.99 6.33 -1.98 6.66 -3 7 C-3 6.34 -3 5.68 -3 5 C-2.01 5 -1.02 5 0 5 C0 3.35 0 1.7 0 0 Z M-3 15 C0 16 0 16 0 16 Z " fill="#042D58" transform="translate(763,594)"/>
<path d="M0 0 C0.33 0 0.66 0 1 0 C0.67 5.28 0.34 10.56 0 16 C-0.33 16 -0.66 16 -1 16 C-1.03738281 15.30132813 -1.07476562 14.60265625 -1.11328125 13.8828125 C-1.17902344 12.97273437 -1.24476563 12.06265625 -1.3125 11.125 C-1.37050781 10.22007812 -1.42851562 9.31515625 -1.48828125 8.3828125 C-1.7882039 5.63778399 -1.7882039 5.63778399 -5 4 C-3.35 4 -1.7 4 0 4 C0 2.68 0 1.36 0 0 Z " fill="#062F55" transform="translate(176,593)"/>
<path d="M0 0 C1.134375 0.020625 2.26875 0.04125 3.4375 0.0625 C3.4375 1.3825 3.4375 2.7025 3.4375 4.0625 C0.06287285 3.51526317 -1.64485 3.0076 -4.5625 1.0625 C-3.5625 0.0625 -3.5625 0.0625 0 0 Z " fill="#D9EAF6" transform="translate(714.5625,584.9375)"/>
<path d="M0 0 C2.89933109 5.59156709 4.25166799 9.58246635 4 16 C1.19958943 10.99926683 -0.34821126 5.74548584 0 0 Z " fill="#CCDCEA" transform="translate(471,450)"/>
<path d="M0 0 C0.99 0.33 1.98 0.66 3 1 C2.67 1.66 2.34 2.32 2 3 C2.66 3 3.32 3 4 3 C4 3.66 4 4.32 4 5 C6.64 5 9.28 5 12 5 C12 5.33 12 5.66 12 6 C10.5629191 6.05422947 9.12524538 6.09289723 7.6875 6.125 C6.88699219 6.14820313 6.08648437 6.17140625 5.26171875 6.1953125 C3 6 3 6 0 4 C0 2.68 0 1.36 0 0 Z " fill="#C2D4E5" transform="translate(500,611)"/>
<path d="M0 0 C-0.99 0.33 -1.98 0.66 -3 1 C-3 1.66 -3 2.32 -3 3 C-4.65 3 -6.3 3 -8 3 C-8 2.34 -8 1.68 -8 1 C-8.66 0.67 -9.32 0.34 -10 0 C-6.30458414 -0.95024979 -3.69541586 -0.95024979 0 0 Z " fill="#F2FAFD" transform="translate(384,613)"/>
<path d="M0 0 C1.65 0.99 3.3 1.98 5 3 C4.42655063 5.86724686 4.1385485 6.8614515 2 9 C0.50178941 5.62902617 0 3.79557881 0 0 Z " fill="#F2F8FA" transform="translate(192,596)"/>
<path d="M0 0 C2.31 0 4.62 0 7 0 C6.67 1.32 6.34 2.64 6 4 C4.35 4 2.7 4 1 4 C0.67 2.68 0.34 1.36 0 0 Z " fill="#053464" transform="translate(773,608)"/>
<path d="M0 0 C2.31 0.33 4.62 0.66 7 1 C6.01 1.495 6.01 1.495 5 2 C5 2.99 5 3.98 5 5 C3.35 4.67 1.7 4.34 0 4 C0 2.68 0 1.36 0 0 Z " fill="#05325E" transform="translate(650,607)"/>
<path d="M0 0 C1.4540625 0.0309375 1.4540625 0.0309375 2.9375 0.0625 C2.9375 2.3725 2.9375 4.6825 2.9375 7.0625 C2.6075 5.7425 2.2775 4.4225 1.9375 3.0625 C0.2875 3.3925 -1.3625 3.7225 -3.0625 4.0625 C-3.3925 3.0725 -3.7225 2.0825 -4.0625 1.0625 C-3.0625 0.0625 -3.0625 0.0625 0 0 Z " fill="#2A557B" transform="translate(616.0625,607.9375)"/>
<path d="M0 0 C0.66 0 1.32 0 2 0 C1.67 0.99 1.34 1.98 1 3 C0.77281504 5.56634861 0.58391816 8.11678107 0.4375 10.6875 C0.39431641 11.38939453 0.35113281 12.09128906 0.30664062 12.81445312 C0.2008264 14.54275206 0.09993419 16.2713511 0 18 C-0.33 18 -0.66 18 -1 18 C-1.02684312 15.18743719 -1.04676188 12.37512759 -1.0625 9.5625 C-1.07087891 8.76005859 -1.07925781 7.95761719 -1.08789062 7.13085938 C-1.0965143 5.08704779 -1.0522815 3.04316098 -1 1 C-0.67 0.67 -0.34 0.34 0 0 Z " fill="#184068" transform="translate(209,598)"/>
<path d="M0 0 C0.99 0 1.98 0 3 0 C2.34 3.3 1.68 6.6 1 10 C-1 8 -1 8 -1.1875 5 C-1 2 -1 2 0 0 Z " fill="#103A65" transform="translate(548,596)"/>
<path d="M0 0 C1.65 0 3.3 0 5 0 C5 1.32 5 2.64 5 4 C3.35 4 1.7 4 0 4 C0 2.68 0 1.36 0 0 Z " fill="#E3F1F9" transform="translate(631,593)"/>
<path d="M0 0 C1.79093191 -0.08086147 3.58289628 -0.13912702 5.375 -0.1875 C6.87160156 -0.23970703 6.87160156 -0.23970703 8.3984375 -0.29296875 C9.25695312 -0.19628906 10.11546875 -0.09960938 11 0 C11.66 0.99 12.32 1.98 13 3 C12.01 3 11.02 3 10 3 C10 2.34 10 1.68 10 1 C8.72125 1.20625 7.4425 1.4125 6.125 1.625 C3.9453125 1.9765625 3.9453125 1.9765625 2 2 C1.34 1.34 0.68 0.68 0 0 Z " fill="#D2E3EE" transform="translate(260,593)"/>
<path d="M0 0 C1.32 0.33 2.64 0.66 4 1 C4 2.32 4 3.64 4 5 C2.02 5 0.04 5 -2 5 C-1.34 4.67 -0.68 4.34 0 4 C0 2.68 0 1.36 0 0 Z " fill="#09325B" transform="translate(264,597)"/>
<path d="M0 0 C1.65 0 3.3 0 5 0 C5 0.66 5 1.32 5 2 C7.64 2.66 10.28 3.32 13 4 C13 4.33 13 4.66 13 5 C10.36 5.33 7.72 5.66 5 6 C4.67 4.35 4.34 2.7 4 1 C2.68 0.67 1.36 0.34 0 0 Z " fill="#BDD1DF" transform="translate(623,593)"/>
<path d="M0 0 C0.66 0 1.32 0 2 0 C1.979375 0.78375 1.95875 1.5675 1.9375 2.375 C1.81315937 4.98114961 1.81315937 4.98114961 3 7 C0.07120629 6.37240135 -2.36095629 5.41377341 -5 4 C-3.68 4 -2.36 4 -1 4 C-0.67 2.68 -0.34 1.36 0 0 Z " fill="#174066" transform="translate(733,585)"/>
<path d="M0 0 C1.60226148 4.00565371 0.47694566 7.08609399 -1 11 C-1.99 11.33 -2.98 11.66 -4 12 C-2.66666667 8 -1.33333333 4 0 0 Z " fill="#254B70" transform="translate(691,470)"/>
<path d="M0 0 C0.268125 0.556875 0.53625 1.11375 0.8125 1.6875 C2.00329541 4.09821537 2.00329541 4.09821537 3.6875 6.625 C4.120625 7.40875 4.55375 8.1925 5 9 C4.67 9.66 4.34 10.32 4 11 C1.13940856 9.56970428 0.36286195 7.85552027 -1 5 C-0.6875 2.1875 -0.6875 2.1875 0 0 Z " fill="#C9D7E3" transform="translate(326,462)"/>
<path d="M0 0 C0 3.58912412 -0.66436554 4.10857029 -3 6.6875 C-3.556875 7.31011719 -4.11375 7.93273437 -4.6875 8.57421875 C-5.120625 9.04472656 -5.55375 9.51523437 -6 10 C-6.66 9.67 -7.32 9.34 -8 9 C-5.36 6.03 -2.72 3.06 0 0 Z " fill="#D1E1EC" transform="translate(501,344)"/>
<path d="M0 0 C0.33 0.66 0.66 1.32 1 2 C-1.31 4.64 -3.62 7.28 -6 10 C-6.66 9.67 -7.32 9.34 -8 9 C-5.36 6.03 -2.72 3.06 0 0 Z " fill="#D0DFEA" transform="translate(290,344)"/>
<path d="M0 0 C0 1.32 0 2.64 0 4 C-0.99 4.33 -1.98 4.66 -3 5 C-3.66 5.66 -4.32 6.32 -5 7 C-5 5.02 -5 3.04 -5 1 C-3 0 -3 0 0 0 Z " fill="#042F59" transform="translate(522,606)"/>
<path d="M0 0 C1.98 0 3.96 0 6 0 C4.68 1.65 3.36 3.3 2 5 C1.01 4.67 0.02 4.34 -1 4 C-0.67 2.68 -0.34 1.36 0 0 Z " fill="#1E4365" transform="translate(652,597)"/>
<path d="M0 0 C1.4540625 0.0309375 1.4540625 0.0309375 2.9375 0.0625 C2.9375 1.3825 2.9375 2.7025 2.9375 4.0625 C-0.02425123 3.44972388 -1.44308783 2.80877478 -4.0625 1.0625 C-3.0625 0.0625 -3.0625 0.0625 0 0 Z " fill="#EEF9FD" transform="translate(658.0625,593.9375)"/>
<path d="M0 0 C2 3.75 2 3.75 2 6 C3.32 6.33 4.64 6.66 6 7 C4.35 7.66 2.7 8.32 1 9 C1 8.34 1 7.68 1 7 C0.01 6.67 -0.98 6.34 -2 6 C-1.34 4.02 -0.68 2.04 0 0 Z " fill="#294F73" transform="translate(645,587)"/>
<path d="M0 0 C1.52519276 0.08937803 3.04681929 0.24537146 4.5625 0.4375 C5.80193359 0.59025391 5.80193359 0.59025391 7.06640625 0.74609375 C7.70449219 0.82988281 8.34257812 0.91367187 9 1 C9 1.33 9 1.66 9 2 C7.88625 2.309375 6.7725 2.61875 5.625 2.9375 C2.2054845 3.82326483 2.2054845 3.82326483 0 5 C-0.5625 3.0625 -0.5625 3.0625 -1 1 C-0.67 0.67 -0.34 0.34 0 0 Z " fill="#F2F9FC" transform="translate(370,587)"/>
<path d="M0 0 C1.38111722 2.2747813 2.05694702 3.50171361 1.75 6.1875 C1 8 1 8 -1 9 C-1.33 6.36 -1.66 3.72 -2 1 C-1.34 0.67 -0.68 0.34 0 0 Z " fill="#2F567B" transform="translate(631,397)"/>
<path d="M0 0 C0.99 1.32 1.98 2.64 3 4 C2.01 4.66 1.02 5.32 0 6 C-1.19232613 8.05003955 -1.19232613 8.05003955 -2 10 C-3 8 -3 8 -2.44140625 6.0546875 C-2.15136719 5.33539063 -1.86132812 4.61609375 -1.5625 3.875 C-1.27503906 3.15054687 -0.98757813 2.42609375 -0.69140625 1.6796875 C-0.46324219 1.12539063 -0.23507812 0.57109375 0 0 Z " fill="#38597C" transform="translate(328,389)"/>
<path d="M0 0 C0 1.98 0 3.96 0 6 C-0.99 6 -1.98 6 -3 6 C-3 5.34 -3 4.68 -3 4 C-3.66 3.67 -4.32 3.34 -5 3 C-1.125 0 -1.125 0 0 0 Z " fill="#F5FBFE" transform="translate(273,610)"/>
<path d="M0 0 C0.33 0 0.66 0 1 0 C1.22142255 1.95689659 1.4267568 3.91561952 1.625 5.875 C1.74101563 6.96554687 1.85703125 8.05609375 1.9765625 9.1796875 C1.98429688 10.11039063 1.99203125 11.04109375 2 12 C1.34 12.66 0.68 13.32 0 14 C-1.39151652 9.20699867 -0.68662689 4.84864218 0 0 Z " fill="#264C6F" transform="translate(764,600)"/>
<path d="M0 0 C-1.39332574 3.36720387 -2.9789286 4.9859524 -6 7 C-6.66 6.67 -7.32 6.34 -8 6 C-7.0479279 4.99403703 -6.08812654 3.99538437 -5.125 3 C-4.59132812 2.443125 -4.05765625 1.88625 -3.5078125 1.3125 C-2 0 -2 0 0 0 Z " fill="#1C456B" transform="translate(214,284)"/>
<path d="M0 0 C2.31 0 4.62 0 7 0 C6.67 1.32 6.34 2.64 6 4 C1.125 2.25 1.125 2.25 0 0 Z " fill="#063160" transform="translate(397,617)"/>
<path d="M0 0 C2.31 1.98 4.62 3.96 7 6 C5.68 6.33 4.36 6.66 3 7 C1.25 5.8125 1.25 5.8125 0 4 C0 2.68 0 1.36 0 0 Z " fill="#25496C" transform="translate(363,609)"/>
<path d="M0 0 C0.99 0 1.98 0 3 0 C3.33 1.65 3.66 3.3 4 5 C2.02 5.99 2.02 5.99 0 7 C0 4.69 0 2.38 0 0 Z " fill="#F6FAFB" transform="translate(256,607)"/>
<path d="M0 0 C1.32 0 2.64 0 4 0 C3.67 1.32 3.34 2.64 3 4 C1.35 4 -0.3 4 -2 4 C-1.34 2.68 -0.68 1.36 0 0 Z " fill="#10375F" transform="translate(527,608)"/>
<path d="M0 0 C1.65 0 3.3 0 5 0 C5.66 1.32 6.32 2.64 7 4 C5.35 4 3.7 4 2 4 C1.34 2.68 0.68 1.36 0 0 Z " fill="#2A4F73" transform="translate(183,609)"/>
<path d="M0 0 C1.98 0.495 1.98 0.495 4 1 C4 1.99 4 2.98 4 4 C2.35 4 0.7 4 -1 4 C-0.67 2.68 -0.34 1.36 0 0 Z " fill="#073463" transform="translate(609,608)"/>
<path d="M0 0 C0.99 0.33 1.98 0.66 3 1 C2.34 2.32 1.68 3.64 1 5 C-1.97 4.505 -1.97 4.505 -5 4 C-2.6875 1.9375 -2.6875 1.9375 0 0 Z " fill="#D5E2EC" transform="translate(403,593)"/>
<path d="M0 0 C3.125 -0.1875 3.125 -0.1875 6 0 C5.67 0.66 5.34 1.32 5 2 C4.01 2 3.02 2 2 2 C2 2.66 2 3.32 2 4 C0.68 3.67 -0.64 3.34 -2 3 C-1.34 2.01 -0.68 1.02 0 0 Z " fill="#F3FAFC" transform="translate(523,594)"/>
<path d="M0 0 C0 0.99 0 1.98 0 3 C-0.99 3.66 -1.98 4.32 -3 5 C-3.66 4.67 -4.32 4.34 -5 4 C-5.33 4.66 -5.66 5.32 -6 6 C-6.66 5.34 -7.32 4.68 -8 4 C-5.36 2.68 -2.72 1.36 0 0 Z " fill="#19426A" transform="translate(445,523)"/>
<path d="M0 0 C1.65 0.33 3.3 0.66 5 1 C3.35 2.65 1.7 4.3 0 6 C-1.125 2.25 -1.125 2.25 0 0 Z " fill="#264F75" transform="translate(723,480)"/>
<path d="M0 0 C3.82097239 0.53069061 6.06171403 1.49701566 9 4 C8.01 4.33 7.02 4.66 6 5 C2.8125 3.125 2.8125 3.125 0 1 C0 0.67 0 0.34 0 0 Z " fill="#DDEBF3" transform="translate(758,474)"/>
<path d="M0 0 C0.66 0.33 1.32 0.66 2 1 C0.515 4.96 0.515 4.96 -1 9 C-1.66 9 -2.32 9 -3 9 C-2.44271087 5.65626525 -1.64826111 2.96687001 0 0 Z " fill="#20466A" transform="translate(541,383)"/>
<path d="M0 0 C1.00000429 4.00001715 0.80688405 6.05523353 0 10 C-0.99 10.33 -1.98 10.66 -3 11 C-2.01 7.37 -1.02 3.74 0 0 Z " fill="#B9CADB" transform="translate(477,380)"/>
<path d="M0 0 C3 1 3 1 4.75 3.4375 C5.36875 4.7059375 5.36875 4.7059375 6 6 C5.67 6.66 5.34 7.32 5 8 C2.20127563 5.47211993 0.54226981 3.79588866 0 0 Z " fill="#DBE7EF" transform="translate(679,363)"/>
<path d="M0 0 C3.63 0.33 7.26 0.66 11 1 C11 1.33 11 1.66 11 2 C10.06027344 2.09087891 10.06027344 2.09087891 9.1015625 2.18359375 C8.28429687 2.26738281 7.46703125 2.35117187 6.625 2.4375 C5.81289063 2.51871094 5.00078125 2.59992187 4.1640625 2.68359375 C1.95727195 2.89090114 1.95727195 2.89090114 0 4 C0 2.68 0 1.36 0 0 Z " fill="#B1C6D5" transform="translate(519,611)"/>
<path d="M0 0 C0.99 0.33 1.98 0.66 3 1 C2.67 1.99 2.34 2.98 2 4 C3.65 4 5.3 4 7 4 C7 4.33 7 4.66 7 5 C5.02 5 3.04 5 1 5 C0.34 3.68 -0.32 2.36 -1 1 C-0.67 0.67 -0.34 0.34 0 0 Z " fill="#385A7D" transform="translate(606,608)"/>
<path d="M0 0 C0.53625 0.226875 1.0725 0.45375 1.625 0.6875 C-3.79038462 3.76442308 -3.79038462 3.76442308 -6.75 3.375 C-7.554375 3.0346875 -7.554375 3.0346875 -8.375 2.6875 C-2.95961538 -0.38942308 -2.95961538 -0.38942308 0 0 Z " fill="#BDD0E0" transform="translate(741.375,474.3125)"/>
<path d="M0 0 C0.66 0 1.32 0 2 0 C1.67 2.64 1.34 5.28 1 8 C0.34 7.67 -0.32 7.34 -1 7 C-0.67 4.69 -0.34 2.38 0 0 Z " fill="#123963" transform="translate(535,403)"/>
<path d="M0 0 C2.6855594 2.6855594 3.06049974 5.37621328 4 9 C2.68 8.34 1.36 7.68 0 7 C0.33 6.01 0.66 5.02 1 4 C0.34 3.67 -0.32 3.34 -1 3 C-0.67 2.01 -0.34 1.02 0 0 Z " fill="#CFDEE8" transform="translate(686,373)"/>
<path d="M0 0 C0.33 0.99 0.66 1.98 1 3 C-0.65 4.32 -2.3 5.64 -4 7 C-4.66 6.67 -5.32 6.34 -6 6 C-4.02 4.02 -2.04 2.04 0 0 Z " fill="#153A64" transform="translate(554,366)"/>
</svg>
