<?xml version="1.0" encoding="UTF-8"?>
<svg version="1.1" xmlns="http://www.w3.org/2000/svg" width="1080" height="1080">
<path d="M0 0 C356.4 0 712.8 0 1080 0 C1080 356.4 1080 712.8 1080 1080 C723.6 1080 367.2 1080 0 1080 C0 723.6 0 367.2 0 0 Z " fill="#F6166A" transform="translate(0,0)"/>
<path d="M0 0 C1.74391174 1.4697113 1.74391174 1.4697113 3.32250977 3.50170898 C6.92642527 7.92915781 10.79922131 11.94401821 14.83984375 15.97265625 C15.56563126 16.69940048 16.29141876 17.42614471 17.03919983 18.1749115 C18.56323556 19.69962296 20.08851569 21.2230915 21.61499023 22.74536133 C23.93132463 25.05633891 26.24227078 27.37260771 28.55273438 29.68945312 C30.04395034 31.1800082 31.53547653 32.670253 33.02734375 34.16015625 C33.70780258 34.84263931 34.38826141 35.52512238 35.08934021 36.22828674 C38.99905041 40.11925337 43.0086839 43.83584749 47.19268799 47.43080139 C50.14502002 49.9941636 52.96895136 52.6924147 55.8125 55.375 C60.8334334 60.07829762 65.98339862 64.5218434 71.35546875 68.82421875 C74.15839248 71.130317 76.83003275 73.54151531 79.5 76 C84.8296789 80.8936826 90.36696488 85.46207844 96 90 C97.26506799 91.03294233 98.5293428 92.06685658 99.79296875 93.1015625 C107.45872414 99.37219493 115.18304555 105.53720943 123.07080078 111.52734375 C125.3245768 113.24776604 127.56637704 114.98329085 129.80859375 116.71875 C139.82731032 124.44795481 149.97430179 131.86632382 160.47265625 138.9296875 C164.0799971 141.35907427 167.62276311 143.86443708 171.1496582 146.40869141 C202.59873068 169.03755559 237.19786216 188.07207193 272 205 C269.75614092 213.37416453 266.56521892 221.27826124 263.1875 229.25 C262.90510468 229.91962769 262.62270935 230.58925537 262.33175659 231.2791748 C242.84806837 277.40504491 219.37129628 321.68970361 191 363 C190.47825195 363.76135254 189.95650391 364.52270508 189.41894531 365.30712891 C181.28390831 377.14353733 172.83353329 388.67699068 164 400 C163.04272365 401.2367895 162.08568521 402.47376318 161.12890625 403.7109375 C155.40742887 411.08121502 149.49396801 418.263594 143.41796875 425.34375 C141.95988526 427.04685578 140.51053148 428.75709274 139.0625 430.46875 C132.76364198 437.89600755 126.2989288 445.1369034 119.64208984 452.24462891 C117.86734734 454.14180384 116.09956704 456.04532888 114.33203125 457.94921875 C94.97884673 478.75203361 94.97884673 478.75203361 84.79296875 487.42578125 C82.94570371 489.0476719 81.22243286 490.74660205 79.5 492.5 C75.836967 496.21209147 71.95192652 499.60022648 68 503 C66.84708877 504.00455742 65.69479865 505.00982791 64.54296875 506.015625 C45.46609321 522.65537748 25.5701957 538.24562406 5 553 C4.26458984 553.52770996 3.52917969 554.05541992 2.77148438 554.59912109 C0.71337226 556.06276045 -1.35791635 557.50458317 -3.4375 558.9375 C-4.3505188 559.58477051 -4.3505188 559.58477051 -5.28198242 560.24511719 C-9.4609196 563.06639083 -9.4609196 563.06639083 -12.00219727 562.75341797 C-15.4613185 561.44890274 -17.8781896 558.71245237 -20.5 556.1875 C-21.14146973 555.57801514 -21.78293945 554.96853027 -22.44384766 554.34057617 C-24.6414914 552.23937504 -26.82266457 550.12223626 -29 548 C-29.82854492 547.19336914 -30.65708984 546.38673828 -31.51074219 545.55566406 C-49.41879915 528.05018612 -49.41879915 528.05018612 -56.01953125 519.5390625 C-57.89460334 517.13512392 -59.86001115 514.83348792 -61.86303711 512.53588867 C-98.15542207 470.71116691 -122.53866963 418.72952981 -141 367 C-138.3126243 363.81979643 -134.86371983 362.20267186 -131.2109375 360.3671875 C-130.52845947 360.01834 -129.84598145 359.66949249 -129.14282227 359.31007385 C-126.88954225 358.15974326 -124.63227225 357.0174739 -122.375 355.875 C-120.7895583 355.06711138 -119.20443905 354.25858971 -117.61962891 353.44946289 C-114.34915281 351.78024105 -111.07738107 350.11360019 -107.8046875 348.44873047 C-101.32380258 345.14910259 -94.86021115 341.81610218 -88.39752197 338.48101807 C-84.99235147 336.72412396 -81.58592961 334.96965904 -78.1796875 333.21484375 C-76.81737652 332.51287029 -75.45507183 331.81088462 -74.09277344 331.10888672 C-66.54050903 327.21732197 -58.98766765 323.32687709 -51.43493652 319.43621826 C-49.37068334 318.37285024 -47.30643391 317.30947492 -45.2421875 316.24609375 C-44.56115967 315.89526733 -43.88013184 315.54444092 -43.1784668 315.1829834 C-39.07352146 313.06830723 -34.96870167 310.95338761 -30.86399841 308.83824158 C-28.81732456 307.7836166 -26.77060225 306.72908568 -24.72387695 305.67456055 C-21.99564135 304.26887694 -19.26764412 302.86273213 -16.53979492 301.45629883 C-9.33795328 297.74403968 -2.13134642 294.04135984 5.08203125 290.3515625 C13.73372715 285.92484669 22.37275946 281.47418364 31 277 C31.60487244 276.68701965 32.20974487 276.37403931 32.83294678 276.05157471 C36.52548791 274.13961539 40.20405216 272.20305824 43.875 270.25 C44.74793701 269.79713623 45.62087402 269.34427246 46.52026367 268.87768555 C52.34550236 265.73575166 55.93793714 262.5349649 59.3125 256.75 C61.0125165 249.94993398 60.70724605 243.82215208 57.20703125 237.6875 C54.58756341 234.02533137 51.10716419 231.70472567 47 230 C36.24161501 228.48164746 28.62519639 231.2548721 19.3125 236.375 C18.19939453 236.95894531 17.08628906 237.54289063 15.93945312 238.14453125 C13.58206177 239.38526354 11.23251118 240.63471568 8.88964844 241.90209961 C-4.40190751 249.08808543 -17.83844865 256.00068353 -31.29534912 262.87045288 C-35.78161731 265.16092817 -40.26582287 267.45543429 -44.75 269.75 C-45.63710663 270.20388596 -46.52421326 270.65777191 -47.4382019 271.12541199 C-56.06984924 275.5438201 -64.68331821 279.99671193 -73.29248047 284.45874023 C-79.79621527 287.82843892 -86.30484691 291.18820479 -92.8203125 294.53515625 C-93.95411598 295.11762871 -93.95411598 295.11762871 -95.11082458 295.71186829 C-98.15915062 297.27769534 -101.20756918 298.84334081 -104.25650024 300.4079895 C-114.25363548 305.53881755 -124.23288031 310.69901341 -134.13867188 316.00488281 C-139.78414456 319 -139.78414456 319 -142 319 C-142.4532666 318.08822998 -142.9065332 317.17645996 -143.37353516 316.23706055 C-145.08234973 312.80110531 -146.79396002 309.36654877 -148.50634766 305.93237305 C-149.2421175 304.45585544 -149.97716423 302.97897723 -150.71142578 301.50170898 C-151.77699209 299.35821986 -152.84521786 297.21607474 -153.9140625 295.07421875 C-154.26366531 294.37030502 -154.61326813 293.6663913 -154.97346497 292.94114685 C-156.97054113 288.94860386 -159.09915763 285.08411473 -161.36328125 281.234375 C-164.49299641 275.53047445 -165.61446389 269.95766523 -166.5625 263.5625 C-166.75811523 262.32113281 -166.95373047 261.07976562 -167.15527344 259.80078125 C-169.18099337 246.43054553 -170.44408458 232.95541962 -171.75 219.5 C-171.85700226 218.40237335 -171.96400452 217.3047467 -172.07424927 216.17385864 C-178.4131448 150.31414192 -174.90473751 84.44432395 -166 19 C-153.98276464 17.85578779 -141.96248718 16.83434514 -129.92431641 15.93896484 C-112.24058097 14.62318385 -94.61146557 13.09689163 -77 11 C-76.35697937 10.92352234 -75.71395874 10.84704468 -75.05145264 10.76824951 C-43.1365922 6.99832063 -43.1365922 6.99832063 -11.53027344 1.26953125 C-10.74813477 1.10453125 -9.96599609 0.93953125 -9.16015625 0.76953125 C-8.47574463 0.62104736 -7.79133301 0.47256348 -7.08618164 0.31958008 C-4.60728336 -0.06015987 -2.5076172 -0.23237593 0 0 Z " fill="#F61067" transform="translate(807,473)"/>
<path d="M0 0 C2.5 2.25 2.5 2.25 5 5 C6.12138308 6.1078398 7.24666252 7.2117441 8.375 8.3125 C10.77563567 10.70976923 13.04486529 13.16849405 15.25024414 15.74584961 C18.880862 19.91721183 22.70590155 23.85071094 26.62109375 27.75390625 C27.32468521 28.45845444 28.02827667 29.16300262 28.75318909 29.88890076 C30.23014648 31.36653367 31.70834742 32.84292457 33.18774414 34.31811523 C35.43165085 36.55666481 37.67016704 38.80050473 39.90820312 41.04492188 C41.35384618 42.48990404 42.79979945 43.93457592 44.24609375 45.37890625 C44.9046788 46.03951553 45.56326385 46.70012482 46.24180603 47.38075256 C50.09803857 51.21791731 54.05947063 54.87658864 58.18499756 58.42311096 C61.13925194 60.98979145 63.9662955 63.68993244 66.8125 66.375 C71.85565818 71.09873109 77.02690976 75.56834291 82.421875 79.890625 C85.0242629 82.01985146 87.51575502 84.23449357 90 86.5 C95.17514816 91.20468015 100.5620284 95.60436343 106 100 C107.23120087 101.01082767 108.46162618 102.02260049 109.69140625 103.03515625 C118.2409832 110.05840158 126.95039223 116.80743856 135.84130859 123.39160156 C138.11935721 125.08893071 140.38305412 126.8040985 142.64453125 128.5234375 C160.56215553 142.12132929 178.96366878 155.01462843 198 167 C198.81678223 167.5165918 199.63356445 168.03318359 200.47509766 168.56542969 C212.44974867 176.12388144 224.57162009 183.21287055 237 190 C242.94 193.3 248.88 196.6 255 200 C255 347.84 255 495.68 255 648 C136.53 648 18.06 648 -104 648 C-100.95344084 645.71508063 -98.43515811 644.09764996 -95.08984375 642.42578125 C-94.11378174 641.93150635 -93.13771973 641.43723145 -92.13208008 640.92797852 C-91.07786865 640.39487061 -90.02365723 639.8617627 -88.9375 639.3125 C-55.77936359 622.29124254 -24.48581498 601.93559736 5.16259766 579.39648438 C6.86980566 578.09895185 8.58106985 576.80695718 10.29296875 575.515625 C29.42990563 560.96679846 47.62968566 545.27288527 65.10742188 528.77929688 C67.02724929 526.97438173 68.95713654 525.18089209 70.890625 523.390625 C80.42793919 514.55564324 89.93849362 505.72919319 98.390625 495.828125 C100.02586434 493.97062012 101.73481793 492.23393991 103.5 490.5 C107.21199457 486.83717092 110.60846641 482.95893845 114 479 C115.29550781 477.50339844 115.29550781 477.50339844 116.6171875 475.9765625 C128.36691273 462.37905808 139.7955939 448.58326711 150.44628906 434.10400391 C152.07533984 431.89797631 153.72006506 429.7042802 155.3671875 427.51171875 C164.01585585 415.95512044 172.13996378 404.10538321 180 392 C180.51272461 391.21157715 181.02544922 390.4231543 181.55371094 389.61083984 C207.15078573 350.0827611 228.7492065 308.24352954 246.4375 264.625 C246.7712262 263.80238678 247.10495239 262.97977356 247.4487915 262.13223267 C248.38678566 259.81169032 249.31823725 257.48867468 250.24609375 255.1640625 C250.5265303 254.46670486 250.80696686 253.76934723 251.09590149 253.05085754 C252.52224144 249.63038569 252.52224144 249.63038569 253 246 C252.47905762 245.75991211 251.95811523 245.51982422 251.42138672 245.27246094 C214.51662053 228.18260406 178.48072167 207.32655969 145.68408203 183.22167969 C143.84519935 181.88770332 141.98624552 180.5860435 140.12109375 179.2890625 C113.94420487 161.07757284 88.86569846 141.10633491 64.62841797 120.39013672 C62.92346004 118.93465989 61.2138767 117.48473947 59.50390625 116.03515625 C52.75791983 110.3019919 46.15072912 104.4494858 39.65234375 98.4375 C37.52509466 96.48256122 35.37727748 94.57117955 33.1875 92.6875 C21.38951678 82.42929452 10.24599222 71.43257339 -0.8034668 60.38183594 C-2.9827351 58.20481147 -5.16997356 56.03598935 -7.35742188 53.8671875 C-8.74788129 52.47965297 -10.13787426 51.09165083 -11.52734375 49.703125 C-12.50670143 48.73454559 -12.50670143 48.73454559 -13.50584412 47.74639893 C-18 43.22889668 -18 43.22889668 -18 41 C-18.80252197 41.18248291 -19.60504395 41.36496582 -20.43188477 41.55297852 C-30.21861495 43.72049075 -40.03574001 45.39837734 -49.9375 46.9375 C-50.76259064 47.06661774 -51.58768127 47.19573547 -52.43777466 47.32876587 C-83.90449499 52.24210126 -115.47022826 55.9390347 -147.25 58.125 C-148.33482666 58.20057129 -149.41965332 58.27614258 -150.53735352 58.35400391 C-154.35688987 58.60038972 -158.17729863 58.81059372 -162 59 C-162.86554504 59.04310303 -163.73109009 59.08620605 -164.62286377 59.13061523 C-184.56647322 60.08178438 -204.50363304 60.21956734 -224.46582031 60.24023438 C-228.05414074 60.24460317 -231.6422186 60.25847162 -235.23046875 60.28125 C-259.98154949 60.43499111 -284.36886994 59.45540394 -309 57 C-310.27065308 56.87487534 -311.54130615 56.74975067 -312.85046387 56.62083435 C-329.41736888 54.97230042 -345.67360792 52.25100102 -362 49 C-362.16435547 50.90072266 -362.16435547 50.90072266 -362.33203125 52.83984375 C-362.93439675 58.23800578 -364.279159 63.32725202 -365.6875 68.5625 C-369.39625057 82.90562853 -372.09153587 97.4084299 -374.64715576 111.99090576 C-374.98968455 113.94126385 -375.33681225 115.89081252 -375.68408203 117.84033203 C-388.34581502 189.5342506 -389.3005162 262.7904288 -380.25457764 334.95751953 C-380.01155428 336.90729985 -379.77538099 338.85793033 -379.53955078 340.80859375 C-374.73261325 380.28390836 -366.7807973 420.29465718 -354 458 C-353.36746013 460.06020013 -352.74206246 462.12261134 -352.125 464.1875 C-332.63080917 527.70607178 -304.18501547 589.06671151 -264.94384766 642.8527832 C-262 646.90011623 -262 646.90011623 -262 648 C-269.13423315 648.25413339 -276.26729578 648.42890117 -283.4050293 648.54931641 C-285.83125416 648.59952198 -288.25717769 648.66770447 -290.68237305 648.75439453 C-294.17572288 648.87611404 -297.66506879 648.93248984 -301.16015625 648.9765625 C-302.23959 649.02817535 -303.31902374 649.07978821 -304.4311676 649.13296509 C-308.97117366 649.13632522 -311.82728423 649.13822534 -315.18058777 645.88354492 C-316.99369736 643.32607335 -318.51854698 640.76071005 -320 638 C-321.02860801 636.3240883 -322.06288207 634.65162648 -323.10546875 632.984375 C-324.13834693 631.24285388 -325.16550341 629.49792909 -326.1875 627.75 C-327.02486694 626.32228271 -327.02486694 626.32228271 -327.87915039 624.86572266 C-360.54016123 568.85303383 -385.69112382 508.79805983 -402 446 C-402.38756627 444.52661592 -402.77544389 443.05331372 -403.16357422 441.58007812 C-409.12647349 418.87877495 -414.37626628 396.19585167 -418 373 C-418.16438568 371.94930328 -418.16438568 371.94930328 -418.33209229 370.87738037 C-421.15730906 352.68595446 -423.38314882 334.43843033 -425.25 316.125 C-425.33308411 315.32303192 -425.41616821 314.52106384 -425.50177002 313.6947937 C-427.89677209 290.33374251 -428.24114552 266.96651173 -428.25 243.5 C-428.25058914 242.78119282 -428.25117828 242.06238564 -428.25178528 241.32179642 C-428.27327491 204.00563629 -426.37845839 166.95444129 -421 130 C-420.89665344 129.28426819 -420.79330688 128.56853638 -420.68682861 127.83111572 C-418.02321761 109.46865548 -414.80279503 91.26018548 -410.875 73.125 C-410.71100708 72.3666687 -410.54701416 71.6083374 -410.37805176 70.82702637 C-408.45703976 62.00386888 -406.33709171 53.26329499 -403.96435547 44.54980469 C-403.04242312 41.15616004 -402.1613576 37.7543429 -401.2890625 34.34765625 C-400.73515825 32.25239695 -400.18048031 30.15734202 -399.625 28.0625 C-399.35945313 27.00482422 -399.09390625 25.94714844 -398.8203125 24.85742188 C-396.69154498 16.94845922 -393.69770519 10.36208345 -386.8125 5.5625 C-379.41756536 1.45420298 -372.48429925 2.73066419 -364.625 4.6875 C-336.2191873 11.74872287 -307.17453665 15.1858626 -278 17 C-276.96658478 17.06515305 -276.96658478 17.06515305 -275.91229248 17.13162231 C-259.32535914 18.1427592 -242.73695021 18.20163873 -226.125 18.1875 C-225.420798 18.18723312 -224.71659599 18.18696625 -223.99105453 18.18669128 C-200.6106502 18.17559339 -177.31927735 17.80655363 -154 16 C-153.11820068 15.9321228 -152.23640137 15.86424561 -151.32788086 15.79431152 C-108.86033549 12.4943306 -66.13614061 8.16858897 -24.58007812 -1.52709961 C-16.00332968 -3.45942632 -7.91875766 -4.50282298 0 0 Z " fill="#F96FA3" transform="translate(825,432)"/>
<path d="M0 0 C0.33 0 0.66 0 1 0 C1 99 1 198 1 300 C-89.42 300 -179.84 300 -273 300 C-269.59122165 297.27297732 -266.31726015 294.79498858 -262.7109375 292.3828125 C-261.69612305 291.70033447 -260.68130859 291.01785645 -259.63574219 290.31469727 C-258.0216748 289.23079712 -258.0216748 289.23079712 -256.375 288.125 C-245.36921768 280.69784026 -234.59449848 273.00450311 -224 265 C-223.10498779 264.32662598 -223.10498779 264.32662598 -222.19189453 263.63964844 C-204.96327453 250.65214953 -188.34991073 236.82808423 -172.45703125 222.23828125 C-170.27094931 220.24682664 -168.05417394 218.30327487 -165.8125 216.375 C-162.36699105 213.38561749 -159.17600652 210.19416878 -155.9765625 206.9453125 C-154.1674851 205.16483712 -152.31118051 203.51457414 -150.375 201.875 C-141.85475464 194.53577875 -133.8349524 186.36790861 -126.5703125 177.7890625 C-124.79534619 175.7668372 -122.91700977 173.88785373 -121 172 C-117.11960889 168.16395621 -113.55276463 164.13823895 -110 160 C-109.0555218 158.91854164 -108.11013021 157.83788062 -107.1640625 156.7578125 C-95.77962666 143.73721625 -84.67983863 130.48318006 -74.26269531 116.671875 C-72.91793622 114.89134324 -71.56451017 113.11758889 -70.2109375 111.34375 C-57.35619707 94.42916659 -45.39105045 76.9289449 -34 59 C-33.47051758 58.16919922 -32.94103516 57.33839844 -32.39550781 56.48242188 C-20.75005899 38.14703437 -10.15246169 19.19807605 0 0 Z " fill="#F61067" transform="translate(1079,780)"/>
<path d="M0 0 C7.50935857 3.90289031 11.14483814 11.56256974 14.74609375 18.78125 C15.21210999 19.69943512 15.67812622 20.61762024 16.15826416 21.56362915 C17.66462108 24.53501594 19.16039484 27.51159609 20.65625 30.48828125 C21.69029655 32.53193233 22.72521226 34.57514385 23.76098633 36.61791992 C25.30704521 39.6673485 26.85257952 42.71702774 28.39518738 45.76820374 C32.51258935 53.91115089 36.68953576 62.02140255 40.90625 70.11328125 C42.84825901 73.84013417 44.78763107 77.56827308 46.71875 81.30078125 C47.12947754 82.0901709 47.54020508 82.87956055 47.96337891 83.69287109 C50.71875 89.0677089 50.71875 89.0677089 50.71875 91.30078125 C80.40255616 76.11795626 80.40255616 76.11795626 110.03295898 60.83129883 C119.33601032 56.01211822 128.65042485 51.21534842 137.96875 46.42578125 C140.94010881 44.89844652 143.91146576 43.3711082 146.8828125 41.84375 C147.61854492 41.46557129 148.35427734 41.08739258 149.11230469 40.69775391 C156.85840558 36.7156994 164.60134779 32.72752125 172.34375 28.73828125 C173.34436966 28.22275192 173.34436966 28.22275192 174.36520386 27.69680786 C181.45743519 24.0428176 188.54931935 20.38815396 195.64099121 16.733078 C198.70051484 15.15624199 201.76013213 13.57958776 204.81976318 12.00296021 C206.98426695 10.88749374 209.14862959 9.77175378 211.31298828 8.65600586 C212.63182849 7.9763853 213.95067577 7.29677843 215.26953125 6.6171875 C216.42106689 6.02365479 217.57260254 5.43012207 218.7590332 4.81860352 C219.73573975 4.31772217 220.71244629 3.81684082 221.71875 3.30078125 C222.44634521 2.91003418 223.17394043 2.51928711 223.92358398 2.11669922 C229.14717546 -0.25746679 236.99807783 0.29404935 242.2734375 2.24609375 C247.75160858 5.5329964 252.04634679 10.0292692 253.71875 16.30078125 C254.51408453 23.26598364 253.72775647 28.51277816 249.71875 34.30078125 C243.24768671 40.90487668 235.00818882 44.52625048 226.84375 48.61328125 C225.27486772 49.40782249 223.70651695 50.20341403 222.13867188 51 C218.91116267 52.63888291 215.68149427 54.2733879 212.45019531 55.90478516 C206.02581384 59.15257437 199.6298912 62.45510229 193.23455811 65.75961304 C189.83482649 67.51558003 186.43297858 69.26743687 183.03125 71.01953125 C182.35226654 71.36932541 181.67328308 71.71911957 180.97372437 72.07951355 C173.0575178 76.15738763 165.13809158 80.22899989 157.21875 84.30078125 C144.48099326 90.85010207 131.74586212 97.40449229 119.01416016 103.96557617 C117.65527407 104.6658541 116.29638735 105.36613079 114.9375 106.06640625 C114.26520355 106.41286697 113.5929071 106.7593277 112.90023804 107.11628723 C108.69558638 109.28287232 104.49014667 111.4479198 100.28411865 113.61183167 C97.42384965 115.08338448 94.56375982 116.55528522 91.70373535 118.02731323 C90.3065615 118.74641117 88.90934529 119.4654268 87.51208496 120.18435669 C77.47755762 125.34832833 67.46128922 130.54541465 57.47998047 135.81176758 C56.62291504 136.26189209 55.76584961 136.7120166 54.8828125 137.17578125 C54.14498535 137.56507813 53.4071582 137.954375 52.64697266 138.35546875 C47.14022778 141.05515426 41.58217382 140.82671624 35.65625 139.73828125 C26.329154 135.17395768 22.23798623 127.58108859 17.84375 118.55078125 C17.20485054 117.27281725 16.56400911 115.99582255 15.92138672 114.71972656 C14.55331609 111.99913868 13.19386963 109.27447832 11.83984375 106.546875 C8.6193199 100.0774855 5.29104927 93.66339711 1.97485352 87.2427063 C0.08258168 83.57574038 -1.80198934 79.90482057 -3.6875 76.234375 C-6.8083886 70.16194023 -9.93380667 64.09185452 -13.0625 58.0234375 C-13.45075958 57.27027252 -13.83901917 56.51710754 -14.23904419 55.74111938 C-16.43219026 51.48691112 -18.62613098 47.23311449 -20.82118225 42.97988892 C-21.7673753 41.14275797 -22.7087039 39.30319693 -23.6496582 37.46337891 C-24.61996325 35.58258711 -25.60523861 33.70921144 -26.62182617 31.85302734 C-30.13127098 25.34782893 -30.23397416 19.52630869 -29.28125 12.30078125 C-27.45208549 6.89758102 -23.74213526 2.9263015 -18.7890625 0.1484375 C-12.86287708 -1.85465009 -5.97748533 -1.8321402 0 0 Z " fill="#F96FA3" transform="translate(614.28125,700.69921875)"/>
<path d="M0 0 C10.1475 -0.061875 10.1475 -0.061875 20.5 -0.125 C22.61986328 -0.14320801 24.73972656 -0.16141602 26.92382812 -0.18017578 C28.62629952 -0.18602348 30.32877373 -0.19111838 32.03125 -0.1953125 C32.89717773 -0.20554443 33.76310547 -0.21577637 34.65527344 -0.22631836 C44.17878328 -0.22902083 52.5010063 1.70982884 59.54296875 8.484375 C65.21591946 14.93922801 65.45326908 21.05844109 65.2421875 29.33203125 C64.72279766 37.19827413 62.2546424 41.32240904 56.62109375 46.75 C55 48 55 48 53 48 C58.13480663 55.82511755 63.43120815 63.47620676 69 71 C69.29132813 69.97003906 69.58265625 68.94007813 69.8828125 67.87890625 C72.0441444 60.33571478 74.32678508 52.87872876 77 45.5 C79.01225242 39.94222897 80.82221381 34.37328076 82.4375 28.6875 C85.19909345 18.9707823 88.60698522 9.51374732 92 0 C102.56 0 113.12 0 124 0 C125.4025 4.186875 126.805 8.37375 128.25 12.6875 C128.68344727 13.97873779 129.11689453 15.26997559 129.56347656 16.6003418 C131.82181664 23.35949427 133.98050835 30.13991472 136.05761719 36.95678711 C137.45771245 41.4780792 138.9774998 45.95628447 140.5 50.4375 C143.24072173 58.57146819 145.7262877 66.72368722 148 75 C139.75 75 131.5 75 123 75 C120 65 120 65 120 62 C111.75 62 103.5 62 95 62 C94.01 66.29 93.02 70.58 92 75 C75.83 75 59.66 75 43 75 C31 54 31 54 31 52 C28.36 52 25.72 52 23 52 C23 59.59 23 67.18 23 75 C15.41 75 7.82 75 0 75 C0 50.25 0 25.5 0 0 Z " fill="#FEFCFD" transform="translate(367,326)"/>
<path d="M0 0 C13.2 0 26.4 0 40 0 C41.36125 5.4759375 41.36125 5.4759375 42.75 11.0625 C45.07788488 20.40004588 47.47043514 29.71500899 50 39 C52.55046724 33.38429231 53.62063428 27.34997933 54.96875 21.36328125 C56.65037286 14.07270111 58.78105107 7.21158403 61 0 C73.21 0 85.42 0 98 0 C98 26.07 98 52.14 98 79 C89.09 79 80.18 79 71 79 C70.67 66.46 70.34 53.92 70 41 C67.83097445 48.44786808 67.83097445 48.44786808 65.6628418 55.89599609 C65.38609619 56.84555176 65.10935059 57.79510742 64.82421875 58.7734375 C64.54666748 59.72653809 64.26911621 60.67963867 63.9831543 61.66162109 C62.67229539 66.11274717 61.33333365 70.5555545 60 75 C52.08 75 44.16 75 36 75 C34.906875 71.2875 33.81375 67.575 32.6875 63.75 C32.34936279 62.6062793 32.01122559 61.46255859 31.6628418 60.28417969 C31.24772339 58.86733887 31.24772339 58.86733887 30.82421875 57.421875 C30.54666748 56.47924805 30.26911621 55.53662109 29.9831543 54.56542969 C28.55948336 49.40245715 27.29893903 44.19575613 26 39 C25.67 52.2 25.34 65.4 25 79 C16.75 79 8.5 79 0 79 C0 52.93 0 26.86 0 0 Z " fill="#F61469" transform="translate(362,212)"/>
<path d="M0 0 C30.03 0 60.06 0 91 0 C99.125 22.05357143 99.125 22.05357143 101 31 C101.66 31 102.32 31 103 31 C103.09796875 30.40574219 103.1959375 29.81148437 103.296875 29.19921875 C105.15601435 18.89381702 109.11422001 9.71444996 113 0 C122.24 0 131.48 0 141 0 C140.16259445 5.86183882 139.55375 8.48250177 136.9375 13.4296875 C136.47617172 14.31083977 136.47617172 14.31083977 136.00552368 15.20979309 C135.35025062 16.45818653 134.69036192 17.70416673 134.02618408 18.94784546 C132.98564724 20.90195421 131.96432708 22.86513404 130.94677734 24.83129883 C128.13381559 30.2425298 125.31987471 35.62205003 122.0390625 40.76953125 C114.30468638 53.13944562 114.92394355 64.47321889 115 79 C106.09 79 97.18 79 88 79 C88.04125 75.1225 88.0825 71.245 88.125 67.25 C87.8749674 54.73661301 84.81328337 46.05013361 78.43896484 35.44384766 C75.90571483 31.14153469 73.66795623 26.68343649 71.375 22.25 C69.92259065 19.49681381 68.46129809 16.74848408 67 14 C66.67 17.63 66.34 21.26 66 25 C59.4 25 52.8 25 46 25 C46 42.82 46 60.64 46 79 C37.09 79 28.18 79 19 79 C19 61.18 19 43.36 19 25 C12.73 25 6.46 25 0 25 C0 16.75 0 8.5 0 0 Z " fill="#FEEDF4" transform="translate(577,212)"/>
<path d="M0 0 C7.13625 -0.0825 14.2725 -0.165 21.625 -0.25 C23.84686035 -0.28641602 26.0687207 -0.32283203 28.35791016 -0.36035156 C41.30333965 -0.4841262 54.87411984 -0.56163662 65.3203125 8.29296875 C74.03687267 17.15142641 76.17734975 25.71500043 76.1875 37.875 C76.19974609 38.63941406 76.21199219 39.40382812 76.22460938 40.19140625 C76.24977398 50.07270754 73.63876193 59.65189017 67.05859375 67.23828125 C57.05860722 76.737374 46.37134882 79.1738103 33.0078125 79.09765625 C32.16855225 79.09664917 31.32929199 79.09564209 30.46459961 79.09460449 C27.35138569 79.08940127 24.23819137 79.07544014 21.125 79.0625 C14.15375 79.041875 7.1825 79.02125 0 79 C0 52.93 0 26.86 0 0 Z " fill="#F61469" transform="translate(213,212)"/>
<path d="M0 0 C11.55 0 23.1 0 35 0 C36.7325 3.75375 38.465 7.5075 40.25 11.375 C40.78786133 12.53692871 41.32572266 13.69885742 41.87988281 14.89599609 C42.31655273 15.84555176 42.75322266 16.79510742 43.203125 17.7734375 C43.64301758 18.72653809 44.08291016 19.67963867 44.53613281 20.66162109 C46.4656261 25.06186979 48.21557957 29.53894893 50 34 C50.33 22.78 50.66 11.56 51 0 C59.25 0 67.5 0 76 0 C76 26.07 76 52.14 76 79 C65.11 79 54.22 79 43 79 C36.24453694 65.48907388 36.24453694 65.48907388 34.296875 60.7890625 C33.8740625 59.77199219 33.45125 58.75492187 33.015625 57.70703125 C32.59796875 56.68996094 32.1803125 55.67289062 31.75 54.625 C31.316875 53.58472656 30.88375 52.54445313 30.4375 51.47265625 C28.45076453 46.67137887 26.64639676 41.93919028 25 37 C25 50.86 25 64.72 25 79 C16.75 79 8.5 79 0 79 C0 52.93 0 26.86 0 0 Z " fill="#F61369" transform="translate(466,212)"/>
<path d="M0 0 C11.55 0 23.1 0 35 0 C39.31022901 8.62045802 43.39571439 16.97030037 46.9375 25.875 C48.278125 29.21625 49.61875 32.5575 51 36 C51.33 24.12 51.66 12.24 52 0 C59.92 0 67.84 0 76 0 C76 26.07 76 52.14 76 79 C65.11 79 54.22 79 43 79 C40.958125 74.50375 38.91625 70.0075 36.8125 65.375 C36.17932861 63.98845215 35.54615723 62.6019043 34.89379883 61.17333984 C34.37841553 60.03074707 33.86303223 58.8881543 33.33203125 57.7109375 C32.81358643 56.56931152 32.2951416 55.42768555 31.76098633 54.25146484 C29.27823682 48.25748176 27.18209182 42.10985709 25 36 C25 50.19 25 64.38 25 79 C16.75 79 8.5 79 0 79 C0 52.93 0 26.86 0 0 Z " fill="#F61469" transform="translate(131,212)"/>
<path d="M0 0 C9.86466057 7.53595381 16.15770309 17.62555701 18.3828125 29.8203125 C18.66368269 32.78531314 18.71763388 35.71827808 18.6953125 38.6953125 C18.68967285 39.48615234 18.6840332 40.27699219 18.67822266 41.09179688 C18.41608417 53.72635265 13.70251781 63.58006132 4.9453125 72.6953125 C1.30957036 76.1474313 -2.00441301 78.83048821 -6.6171875 80.8203125 C-9.93354342 80.42784434 -11.69034556 79.16991761 -14.1171875 76.9453125 C-14.81328125 76.31367188 -15.509375 75.68203125 -16.2265625 75.03125 C-17.01546875 74.30164063 -17.804375 73.57203125 -18.6171875 72.8203125 C-19.52984375 71.98757813 -20.4425 71.15484375 -21.3828125 70.296875 C-23.82600744 68.0668608 -26.26251008 65.82974221 -28.69238281 63.58520508 C-30.16375987 62.23606952 -31.64392301 60.89651012 -33.12792969 59.5612793 C-41.82239264 51.69447644 -50.10401932 43.44872008 -58.3671875 35.1328125 C-59.75757545 33.73739397 -61.14819907 32.34221023 -62.5390625 30.94726562 C-65.90115211 27.57430664 -69.26006609 24.19821609 -72.6171875 20.8203125 C-71.53598145 18.90803438 -70.44726681 17.00000054 -69.35546875 15.09375 C-68.75001221 14.03075684 -68.14455566 12.96776367 -67.52075195 11.87255859 C-61.28665506 1.87657561 -51.23446031 -5.00154011 -39.796875 -7.70703125 C-25.37008069 -9.85155473 -12.46512238 -7.97607509 0 0 Z " fill="#F7357E" transform="translate(911.6171875,427.1796875)"/>
<path d="M0 0 C8.64026341 6.33049002 13.2079333 13.90572346 15.3671875 24.421875 C16.52302122 36.35041806 15.72359601 48.03405304 9.3671875 58.421875 C9.00367188 59.01871094 8.64015625 59.61554688 8.265625 60.23046875 C3.39260772 66.94207844 -5.67775279 71.30278188 -13.625 73.09765625 C-26.31056229 74.46506102 -37.82780769 73.82627839 -48.5078125 66.296875 C-56.06657932 59.87466189 -60.95884029 50.37916001 -61.796875 40.48486328 C-62.52340586 27.33162757 -60.8516601 16.16959878 -52.6328125 5.421875 C-39.51904333 -8.43368314 -15.9363006 -9.55232262 0 0 Z " fill="#FEFBFC" transform="translate(696.6328125,105.578125)"/>
<path d="M0 0 C8.6527296 6.22630278 11.94195634 13.32586901 15.25 23.25 C16.54600366 37.82922088 16.00922485 50.42220779 6.5625 62.1875 C-1.32525529 70.38720042 -11.47150942 73.27285498 -22.5625 73.5625 C-33.28795184 73.37896286 -42.76771296 70.96259377 -50.65625 63.4296875 C-61.27087522 51.960495 -61.47811442 39.63587188 -60.93798828 24.66162109 C-60.57326877 19.98279084 -59.15762177 16.22926375 -56.75 12.25 C-56.1725 11.198125 -55.595 10.14625 -55 9.0625 C-41.77763719 -7.46545351 -18.00959524 -11.15163679 0 0 Z " fill="#FEFCFD" transform="translate(302.75,105.75)"/>
<path d="M0 0 C10.56 0 21.12 0 32 0 C36.78746111 9.13969849 41.05516726 18.26392515 44.8125 27.875 C45.37118774 29.29921265 45.37118774 29.29921265 45.94116211 30.75219727 C48.26960619 36.80341066 50.12206558 42.74021861 52 49 C52 32.83 52 16.66 52 0 C58.6 0 65.2 0 72 0 C72 24.75 72 49.5 72 75 C62.1 75 52.2 75 42 75 C40.02 70.524375 38.04 66.04875 36 61.4375 C35.39414062 60.08068115 34.78828125 58.7238623 34.1640625 57.32592773 C29.06462373 45.67180109 25.22630257 34.15061988 21 22 C21 39.49 21 56.98 21 75 C14.07 75 7.14 75 0 75 C0 50.25 0 25.5 0 0 Z " fill="#FEFBFC" transform="translate(719,102)"/>
<path d="M0 0 C10.56 0 21.12 0 32 0 C46.72815534 33.04854369 46.72815534 33.04854369 51 48 C51 32.16 51 16.32 51 0 C57.93 0 64.86 0 72 0 C72 24.75 72 49.5 72 75 C62.1 75 52.2 75 42 75 C37.9518312 66.90366241 34.22888327 59.01196117 30.9375 50.625 C30.50775879 49.53880371 30.07801758 48.45260742 29.63525391 47.33349609 C21 25.39661103 21 25.39661103 21 21 C20.34 21 19.68 21 19 21 C19.24447876 22.89576782 19.24447876 22.89576782 19.49389648 24.82983398 C20.08121699 30.1390275 20.12702479 35.38603355 20.09765625 40.72265625 C20.0962413 41.70874374 20.09482635 42.69483124 20.09336853 43.71080017 C20.0878177 46.82806568 20.0752746 49.94525658 20.0625 53.0625 C20.05747864 55.18945208 20.05291685 57.3164053 20.04882812 59.44335938 C20.03871975 64.62895739 20.01913507 69.81439621 20 75 C13.4 75 6.8 75 0 75 C0 50.25 0 25.5 0 0 Z " fill="#FEFCFD" transform="translate(518,326)"/>
<path d="M0 0 C10.56 0 21.12 0 32 0 C33.71607709 3.66769417 35.43190574 7.33497419 37.13671875 11.0078125 C38.18474293 13.262093 39.245745 15.5059032 40.33203125 17.7421875 C43.22978806 23.80906297 45.55457174 30.04838024 47.8125 36.375 C48.12703125 37.24406982 48.4415625 38.11313965 48.765625 39.00854492 C49.05566406 39.83845947 49.34570312 40.66837402 49.64453125 41.5234375 C50.03668823 42.635979 50.03668823 42.635979 50.43676758 43.77099609 C51.06387041 46.25276845 51.09729004 48.45027186 51 51 C51.66 51 52.32 51 53 51 C52.83701416 50.05761475 52.67402832 49.11522949 52.50610352 48.14428711 C51.82198112 43.32888299 51.87529193 38.54650903 51.90234375 33.69140625 C51.9037587 32.72468491 51.90517365 31.75796356 51.90663147 30.76194763 C51.91219779 27.69543268 51.92474401 24.62899262 51.9375 21.5625 C51.94251935 19.47461043 51.9470815 17.38671972 51.95117188 15.29882812 C51.96130231 10.19916717 51.98088421 5.09966673 52 0 C58.6 0 65.2 0 72 0 C72 24.75 72 49.5 72 75 C62.1 75 52.2 75 42 75 C40.12683854 70.81201627 38.25920112 66.6222313 36.40307617 62.42675781 C35.7746901 61.0101484 35.14364252 59.59471561 34.50952148 58.18066406 C29.3227997 46.6067821 25.21299815 35.03713756 21 23 C21 40.16 21 57.32 21 75 C14.07 75 7.14 75 0 75 C0 50.25 0 25.5 0 0 Z " fill="#FEFCFD" transform="translate(133,326)"/>
<path d="M0 0 C10.5496875 -0.12375 10.5496875 -0.12375 21.3125 -0.25 C24.607948 -0.30462402 24.607948 -0.30462402 27.9699707 -0.36035156 C50.16830455 -0.57714794 50.16830455 -0.57714794 59 7.3125 C65.09337728 14.28262221 65.55996956 20.20576408 65.34375 29.33203125 C64.68410717 36.37072008 62.56293642 40.90694516 57.25 45.5625 C56.17975516 46.39216459 55.10088505 47.2114447 54 48 C55.29980249 51.5562408 56.84638624 54.4574098 59.0390625 57.5390625 C59.61914062 58.36664063 60.19921875 59.19421875 60.796875 60.046875 C62.02192565 61.77451053 63.24850455 63.50106335 64.4765625 65.2265625 C65.3428125 66.4640625 65.3428125 66.4640625 66.2265625 67.7265625 C66.75846191 68.47502441 67.29036133 69.22348633 67.83837891 69.99462891 C69 72 69 72 69 75 C60.42 75 51.84 75 43 75 C41.39125 72.133125 39.7825 69.26625 38.125 66.3125 C37.6211377 65.41829346 37.11727539 64.52408691 36.59814453 63.6027832 C34.48021843 59.80898107 32.45628859 56.10941206 31 52 C28.36 52 25.72 52 23 52 C23 59.59 23 67.18 23 75 C15.41 75 7.82 75 0 75 C0 50.25 0 25.5 0 0 Z " fill="#FEFCFD" transform="translate(171,102)"/>
<path d="M0 0 C19.8 0 39.6 0 60 0 C60 6.6 60 13.2 60 20 C47.79 20 35.58 20 23 20 C23 22.97 23 25.94 23 29 C24.53708618 28.99214478 24.53708618 28.99214478 26.10522461 28.98413086 C29.89395276 28.96608031 33.68267709 28.9545678 37.47143555 28.94506836 C39.11369464 28.94002826 40.75594923 28.93319622 42.39819336 28.92456055 C44.75375479 28.91248074 47.10925709 28.90676861 49.46484375 28.90234375 C50.20339096 28.89718246 50.94193817 28.89202118 51.7028656 28.88670349 C53.46898088 28.8865075 55.23497146 28.93805281 57 29 C58.75559942 30.75559942 58.13221919 33.03582442 58.13671875 35.37109375 C58.13285156 36.07363281 58.12898437 36.77617187 58.125 37.5 C58.13080078 38.55380859 58.13080078 38.55380859 58.13671875 39.62890625 C58.12661378 44.87338622 58.12661378 44.87338622 57 46 C54.47905924 46.08847743 51.98569107 46.11527301 49.46484375 46.09765625 C48.33496788 46.09553383 48.33496788 46.09553383 47.18226624 46.09336853 C44.7673044 46.08775376 42.35243399 46.07519883 39.9375 46.0625 C38.30403779 46.0574869 36.67057414 46.05292366 35.03710938 46.04882812 C31.02470415 46.03777954 27.01236759 46.02050506 23 46 C23 48.97 23 51.94 23 55 C35.21 55 47.42 55 60 55 C60 61.6 60 68.2 60 75 C40.2 75 20.4 75 0 75 C0 50.25 0 25.5 0 0 Z " fill="#FEF9FB" transform="translate(677,326)"/>
<path d="M0 0 C10.56 0 21.12 0 32 0 C34.43886722 6.09716806 36.53992328 11.47890056 38.25 17.6875 C40.55176215 25.82144862 43.3058106 33.76952728 46.11694336 41.73950195 C48.28513574 47.90072596 50.32807902 54.06734552 52.19140625 60.328125 C53.19685904 63.65049074 54.32405309 66.92419223 55.484375 70.1953125 C56 72 56 72 56 75 C48.08 75 40.16 75 32 75 C30.02 68.565 30.02 68.565 28 62 C19.75 61.67 11.5 61.34 3 61 C2.67 63.31 2.34 65.62 2 68 C1.34 70.31 0.68 72.62 0 75 C-7.59 75 -15.18 75 -23 75 C-21.88888889 67.22222222 -21.88888889 67.22222222 -20.25 63.125 C-18.46554276 58.4263572 -17.00027633 53.70382111 -15.625 48.875 C-13.9438091 43.00390488 -12.08026058 37.24165212 -10 31.5 C-7.39721592 24.31267171 -5.17392468 17.05668494 -3.078125 9.70703125 C-2.13018198 6.44761846 -1.07342292 3.22026877 0 0 Z " fill="#FEFCFD" transform="translate(818,102)"/>
<path d="M0 0 C10.3021875 -0.12375 10.3021875 -0.12375 20.8125 -0.25 C22.9572583 -0.28641602 25.1020166 -0.32283203 27.31176758 -0.36035156 C48.95396641 -0.57639157 48.95396641 -0.57639157 57.9375 7.125 C63.86751178 13.83902776 65.67394228 21.29183049 65.3125 30.11328125 C64.39214182 38.61508993 61.21055885 44.14774262 55 50 C47.78552614 55.59489809 41.45343911 56.28872284 32.625 56.125 C31.23474609 56.11146484 31.23474609 56.11146484 29.81640625 56.09765625 C27.54415841 56.07423101 25.2720447 56.03836473 23 56 C23 62.27 23 68.54 23 75 C15.41 75 7.82 75 0 75 C0 50.25 0 25.5 0 0 Z " fill="#FEFBFC" transform="translate(100,102)"/>
<path d="M0 0 C3.33702556 2.93007122 5.89617491 6.10630664 7.5625 10.25 C7.6953125 13.5078125 7.6953125 13.5078125 7.5625 16.25 C0.23348882 18.05110167 -6.91157567 19.6122098 -14.4375 20.25 C-14.89125 19.280625 -15.345 18.31125 -15.8125 17.3125 C-17.09536221 14.17920418 -17.09536221 14.17920418 -19.4375 13.25 C-21.45646864 13.1537238 -23.4787429 13.12018175 -25.5 13.125 C-26.58410156 13.12242188 -27.66820312 13.11984375 -28.78515625 13.1171875 C-31.35993398 12.94881436 -31.35993398 12.94881436 -32.4375 14.25 C-32.47813832 15.91617115 -32.480221 17.58388095 -32.4375 19.25 C-27.43933822 22.10724224 -22.82676887 23.08187804 -17.25 24.0625 C-7.6682638 25.94618327 0.87800498 28.33639328 7.25 36.25 C11.0087927 42.659502 10.72212794 50.45522634 9.01171875 57.52734375 C6.80002337 63.17396269 3.71594322 66.91332928 -1.75 69.4375 C-8.54288029 72.30343693 -14.80013968 73.61737961 -22.125 73.5625 C-22.91447021 73.55686035 -23.70394043 73.5512207 -24.51733398 73.54541016 C-34.96728211 73.33038627 -44.46760456 71.44316834 -52.4375 64.25 C-56.30671719 59.67142633 -56.81908001 54.99417033 -57.4375 49.25 C-54.31319239 48.58006007 -51.18794614 47.91460636 -48.0625 47.25 C-47.17304687 47.05921875 -46.28359375 46.8684375 -45.3671875 46.671875 C-44.51640625 46.49140625 -43.665625 46.3109375 -42.7890625 46.125 C-41.61077881 45.87363281 -41.61077881 45.87363281 -40.40869141 45.6171875 C-38.4375 45.25 -38.4375 45.25 -36.4375 45.25 C-35.11286185 46.9350839 -34.00382247 48.71699122 -32.8515625 50.5234375 C-31.15996706 52.58886618 -29.94812072 53.34725445 -27.4375 54.25 C-24.71942846 54.52803692 -24.71942846 54.52803692 -21.875 54.4375 C-20.92496094 54.43105469 -19.97492187 54.42460937 -18.99609375 54.41796875 C-16.3170058 54.35061434 -16.3170058 54.35061434 -13.4375 53.25 C-13.29718434 50.32797583 -13.29718434 50.32797583 -14.4375 47.25 C-18.87907733 44.80260025 -23.23480606 44.08375394 -28.21508789 43.23413086 C-38.12483603 41.53732728 -46.93834298 39.40743314 -53.3203125 30.98828125 C-57.02053681 25.23093923 -57.18523739 18.90391626 -56.4375 12.25 C-54.37105884 5.0360168 -49.5909324 0.59221582 -43.20703125 -3.0078125 C-29.36431412 -9.14582351 -13.06463989 -6.6510894 0 0 Z " fill="#FEFBFC" transform="translate(587.4375,105.75)"/>
<path d="M0 0 C6.23493053 3.24597147 11.20314955 7.56012917 13.55859375 14.33203125 C13.74609375 17.20703125 13.74609375 17.20703125 13.55859375 19.33203125 C6.89019198 21.8552103 -1.25634188 24.07615506 -8.44140625 23.33203125 C-10.69140625 20.39453125 -10.69140625 20.39453125 -12.44140625 17.33203125 C-13.52310271 16.0265537 -13.52310271 16.0265537 -16.12890625 16.19921875 C-17.22203125 16.20179688 -18.31515625 16.204375 -19.44140625 16.20703125 C-20.53453125 16.20445312 -21.62765625 16.201875 -22.75390625 16.19921875 C-25.35970979 16.0265537 -25.35970979 16.0265537 -26.44140625 17.33203125 C-26.48221408 19.33161489 -26.48394981 21.33248379 -26.44140625 23.33203125 C-21.3866265 25.17013298 -16.37744063 26.60943824 -11.13208008 27.76953125 C0.00580037 30.24112938 7.67768312 32.6189777 14.55859375 42.33203125 C16.87216533 49.27274599 16.54866766 57.15955089 13.55859375 63.83203125 C10.77346025 68.64555329 7.61070429 71.12845112 2.55859375 73.33203125 C1.8521875 73.64914062 1.14578125 73.96625 0.41796875 74.29296875 C-11.58063413 78.74143036 -26.27079377 77.1017304 -38.12890625 73.08203125 C-43.30974408 70.34498485 -47.82208037 67.25778382 -50.37890625 61.83203125 C-51.41751487 58.41073227 -51.52586164 55.86922178 -51.44140625 52.33203125 C-48.50474399 51.6614784 -45.56718266 50.99544072 -42.62890625 50.33203125 C-41.79552734 50.14125 -40.96214844 49.95046875 -40.10351562 49.75390625 C-39.30107422 49.5734375 -38.49863281 49.39296875 -37.671875 49.20703125 C-36.56428833 48.95566406 -36.56428833 48.95566406 -35.43432617 48.69921875 C-33.44140625 48.33203125 -33.44140625 48.33203125 -30.44140625 48.33203125 C-27.44140625 52.55425347 -27.44140625 52.55425347 -27.44140625 55.33203125 C-20.92436475 57.59882829 -14.10213483 58.55227411 -7.44140625 56.33203125 C-7.84145243 53.37224493 -7.84145243 53.37224493 -9.44140625 50.33203125 C-13.98646766 47.97533274 -18.15308303 47.18434825 -23.19140625 46.45703125 C-31.73647844 45.14657024 -41.0823502 42.53326281 -46.44140625 35.33203125 C-50.88078032 29.0195658 -51.26650952 22.89373716 -50.44140625 15.33203125 C-48.74003457 8.8455517 -44.91234819 4.97932588 -39.44140625 1.33203125 C-36.49723829 0.02879697 -33.55496249 -0.869621 -30.44140625 -1.66796875 C-21.29905314 -4.71541979 -8.83258065 -3.46687978 0 0 Z " fill="#FEFBFC" transform="translate(264.44140625,326.66796875)"/>
<path d="M0 0 C4.24216586 3.57708053 6.64777033 8.26372385 8.5 13.4375 C8.5 14.4275 8.5 15.4175 8.5 16.4375 C0.84458305 18.3453547 -6.6177798 19.92150816 -14.5 20.4375 C-14.95375 19.468125 -15.4075 18.49875 -15.875 17.5 C-17.15786221 14.36670418 -17.15786221 14.36670418 -19.5 13.4375 C-21.51896864 13.3412238 -23.5412429 13.30768175 -25.5625 13.3125 C-26.64660156 13.30992188 -27.73070312 13.30734375 -28.84765625 13.3046875 C-31.42243398 13.13631436 -31.42243398 13.13631436 -32.5 14.4375 C-32.54063832 16.10367115 -32.542721 17.77138095 -32.5 19.4375 C-27.62952561 22.17956931 -23.0975093 23.32267758 -17.6875 24.375 C-8.44202107 26.31371843 -0.27030733 28.50599487 6.5 35.4375 C10.59202018 41.84833161 10.24431449 49.03713184 9.5 56.4375 C8.05846702 62.17643318 4.72724902 65.91348552 -0.12890625 69.18359375 C-12.08651956 75.50714214 -28.32567664 75.09357619 -41.05078125 71.34375 C-48.18275237 68.70480694 -53.37723318 63.49005484 -56.875 56.8125 C-57.54730148 54.25775438 -57.54368663 52.06743541 -57.5 49.4375 C-54.77238489 48.76386628 -52.043201 48.09840556 -49.3125 47.4375 C-48.54357422 47.24671875 -47.77464844 47.0559375 -46.98242188 46.859375 C-43.07921747 45.92126579 -39.54770205 45.17792792 -35.5 45.4375 C-34.943125 46.8296875 -34.943125 46.8296875 -34.375 48.25 C-32.07588905 52.15848862 -30.79211292 53.0328085 -26.5 54.4375 C-21.48799529 54.92933224 -17.77292739 55.28611826 -13.5 52.4375 C-13.36559222 50.00830135 -13.36559222 50.00830135 -14.5 47.4375 C-20.34718138 44.456584 -26.70471402 43.50683041 -33.09375 42.17578125 C-42.34629878 40.17035497 -49.12289431 37.66656688 -54.4375 29.4375 C-56.77141688 22.9431226 -56.77141688 13.9318774 -54.4375 7.4375 C-49.91842804 0.44022729 -44.43913686 -2.5226848 -36.5 -4.5625 C-35.89414062 -4.74683594 -35.28828125 -4.93117188 -34.6640625 -5.12109375 C-23.775244 -7.34209825 -9.35949679 -6.17551844 0 0 Z " fill="#FEFBFC" transform="translate(514.5,105.5625)"/>
<path d="M0 0 C19.8 0 39.6 0 60 0 C60 6.27 60 12.54 60 19 C59 20 59 20 55.48999023 20.11352539 C53.92951578 20.11336626 52.36903607 20.10767142 50.80859375 20.09765625 C49.98875504 20.0962413 49.16891632 20.09482635 48.32423401 20.09336853 C45.69528618 20.08775289 43.06642227 20.07519779 40.4375 20.0625 C38.65950643 20.05748701 36.88151154 20.05292376 35.10351562 20.04882812 C30.73564455 20.03777839 26.36783652 20.02050331 22 20 C22 22.97 22 25.94 22 29 C33.55 29 45.1 29 57 29 C57 34.28 57 39.56 57 45 C45.45 45 33.9 45 22 45 C22 48.63 22 52.26 22 56 C34.54 56 47.08 56 60 56 C60 62.27 60 68.54 60 75 C40.2 75 20.4 75 0 75 C0 50.25 0 25.5 0 0 Z " fill="#FEFCFD" transform="translate(391,102)"/>
<path d="M0 0 C7.59 0 15.18 0 23 0 C23.03738281 3.63515625 23.07476562 7.2703125 23.11328125 11.015625 C23.15948359 14.53375287 23.21072208 18.05177379 23.26245117 21.56982422 C23.29571877 24.01604726 23.32374491 26.4623474 23.34643555 28.90869141 C23.37994708 32.42383705 23.43226276 35.93827495 23.48828125 39.453125 C23.49467117 40.5480426 23.5010611 41.64296021 23.50764465 42.77105713 C23.52743881 43.79181335 23.54723297 44.81256958 23.56762695 45.86425781 C23.57873001 46.76138489 23.58983307 47.65851196 23.60127258 48.58282471 C24.08250714 51.50017686 24.97085928 52.87182724 27 55 C32.17918395 56.72639465 36.44712666 56.62114934 41.4375 54.625 C44.08856572 53.25274335 44.08856572 53.25274335 45 51 C45.11872573 49.36664808 45.17709092 47.72872646 45.20532227 46.09130859 C45.22526749 45.07040131 45.24521271 44.04949402 45.26576233 42.99765015 C45.28247482 41.89240997 45.29918732 40.7871698 45.31640625 39.6484375 C45.33718735 38.5192691 45.35796844 37.39010071 45.37937927 36.22671509 C45.44491335 32.60954028 45.50377774 28.99229119 45.5625 25.375 C45.60568154 22.92707556 45.64929571 20.47915872 45.69335938 18.03125 C45.80141504 12.02090845 45.90046015 6.01051284 46 0 C53.59 0 61.18 0 69 0 C69.09219258 7.34723672 69.17172659 14.69243911 69.21972656 22.03979492 C69.23975138 24.53530709 69.26697941 27.03077288 69.30175781 29.52612305 C69.3506777 33.12820941 69.37306113 36.72967146 69.390625 40.33203125 C69.41127014 41.43456741 69.43191528 42.53710358 69.45318604 43.67304993 C69.4556278 52.24214783 67.73255239 59.51080679 63.25 66.875 C53.99274326 75.6179647 43.09251896 77.58414853 30.6484375 77.28125 C21.64816674 76.58743898 13.81430789 74.10134208 7 68 C0.36283272 59.86987578 -0.28660274 51.77378908 -0.1953125 41.6015625 C-0.1924826 40.41146576 -0.18965271 39.22136902 -0.18673706 37.99520874 C-0.17556817 34.20503563 -0.15046917 30.41510134 -0.125 26.625 C-0.11496597 24.05078467 -0.10584085 21.47656562 -0.09765625 18.90234375 C-0.07563954 12.60147089 -0.04113191 6.3007759 0 0 Z " fill="#FEFAFC" transform="translate(288,326)"/>
<path d="M0 0 C5.58459504 4.48855302 9.78023607 10.16622408 11.11328125 17.2890625 C11.36500331 19.69743031 11.53426669 22.07205918 11.58984375 24.4921875 C8.84108693 25.16437257 6.09103649 25.83011185 3.33984375 26.4921875 C2.56253906 26.68296875 1.78523437 26.87375 0.984375 27.0703125 C0.23027344 27.25078125 -0.52382813 27.43125 -1.30078125 27.6171875 C-2.3376709 27.86855469 -2.3376709 27.86855469 -3.39550781 28.125 C-5.41015625 28.4921875 -5.41015625 28.4921875 -9.41015625 28.4921875 C-9.66410156 27.87730469 -9.91804687 27.26242187 -10.1796875 26.62890625 C-10.52386719 25.82066406 -10.86804688 25.01242187 -11.22265625 24.1796875 C-11.55910156 23.37917969 -11.89554688 22.57867187 -12.2421875 21.75390625 C-13.79929413 18.73863956 -15.37867533 17.00792796 -18.41015625 15.4921875 C-23.95235993 15.12270725 -27.71425689 15.18371295 -32.41015625 18.4921875 C-37.36037983 24.09375629 -37.01958791 30.52681883 -36.7265625 37.66015625 C-36.21922806 43.80453997 -35.39168293 47.64890686 -30.72265625 51.9921875 C-26.68507473 53.8205263 -23.75994375 54.30994755 -19.41015625 53.4921875 C-15.73399316 51.93688773 -13.95915838 50.5799619 -12.15234375 47 C-11.15199912 44.53061779 -10.27255997 42.01305991 -9.41015625 39.4921875 C-2.48015625 40.4821875 4.44984375 41.4721875 11.58984375 42.4921875 C11.58984375 51.53573357 9.72495395 57.44151762 3.984375 64.453125 C-4.47857201 72.37331768 -15.746904 73.81891769 -26.83984375 73.703125 C-37.03754624 73.10063492 -44.8409496 68.85370293 -52.16015625 61.8671875 C-60.32108453 51.21264224 -61.24204728 38.32487697 -60.41015625 25.4921875 C-58.99279414 16.3033569 -54.38423568 7.64883288 -47.28515625 1.6171875 C-33.72251662 -7.94447344 -14.2180785 -8.89494052 0 0 Z " fill="#FEFBFC" transform="translate(657.41015625,329.5078125)"/>
<path d="M0 0 C18.81 0 37.62 0 57 0 C57 6.93 57 13.86 57 21 C45.78 21 34.56 21 23 21 C23 25.62 23 30.24 23 35 C33.56 35 44.12 35 55 35 C55.020625 38.114375 55.04125 41.22875 55.0625 44.4375 C55.071604 45.42032959 55.08070801 46.40315918 55.09008789 47.41577148 C55.09258545 48.18477783 55.09508301 48.95378418 55.09765625 49.74609375 C55.10289307 50.53685303 55.10812988 51.3276123 55.11352539 52.14233398 C55 54 55 54 54 55 C51.70848583 55.08790975 49.41427476 55.10694038 47.12109375 55.09765625 C46.09110008 55.09553383 46.09110008 55.09553383 45.04029846 55.09336853 C42.83932199 55.08775479 40.63844591 55.07520007 38.4375 55.0625 C36.94856917 55.05748676 35.45963676 55.05292355 33.97070312 55.04882812 C30.31373195 55.03863021 26.65697883 55.01905779 23 55 C23 61.6 23 68.2 23 75 C15.41 75 7.82 75 0 75 C0 50.25 0 25.5 0 0 Z " fill="#FEFBFC" transform="translate(326,102)"/>
<path d="M0 0 C13.2 0 26.4 0 40 0 C41.36125 5.4759375 41.36125 5.4759375 42.75 11.0625 C45.07788488 20.40004588 47.47043514 29.71500899 50 39 C52.55046724 33.38429231 53.62063428 27.34997933 54.96875 21.36328125 C56.65037286 14.07270111 58.78105107 7.21158403 61 0 C73.21 0 85.42 0 98 0 C98 26.07 98 52.14 98 79 C89.09 79 80.18 79 71 79 C70.67 66.46 70.34 53.92 70 41 C67.83097445 48.44786808 67.83097445 48.44786808 65.6628418 55.89599609 C65.38609619 56.84555176 65.10935059 57.79510742 64.82421875 58.7734375 C64.54666748 59.72653809 64.26911621 60.67963867 63.9831543 61.66162109 C62.67229539 66.11274717 61.33333365 70.5555545 60 75 C52.08 75 44.16 75 36 75 C34.906875 71.2875 33.81375 67.575 32.6875 63.75 C32.34936279 62.6062793 32.01122559 61.46255859 31.6628418 60.28417969 C31.24772339 58.86733887 31.24772339 58.86733887 30.82421875 57.421875 C30.54666748 56.47924805 30.26911621 55.53662109 29.9831543 54.56542969 C28.55948336 49.40245715 27.29893903 44.19575613 26 39 C25.67 52.2 25.34 65.4 25 79 C16.75 79 8.5 79 0 79 C0 52.93 0 26.86 0 0 Z M4 4 C4 27.43 4 50.86 4 75 C9.28 75 14.56 75 20 75 C20 56.19 20 37.38 20 18 C21.98 18 23.96 18 26 18 C26.02795654 18.55655273 26.05591309 19.11310547 26.0847168 19.68652344 C26.65582941 27.50407043 28.65437334 34.73768253 30.8125 42.25 C31.15603516 43.47074219 31.49957031 44.69148438 31.85351562 45.94921875 C32.89309068 49.6355168 33.94491939 53.31811245 35 57 C35.55738393 58.95128813 36.11433584 60.9026992 36.67123413 62.85412598 C37.44670097 65.5696426 38.22347653 68.28478534 39 71 C44.94 71 50.88 71 57 71 C61.12410808 58.71542275 64.79847836 46.38811896 67.9375 33.8125 C68.24373291 32.58950195 68.54996582 31.36650391 68.86547852 30.10644531 C70.43401457 24.11964471 70.43401457 24.11964471 71 18 C72.65 18 74.3 18 76 18 C75.9285376 18.98282959 75.8570752 19.96565918 75.78344727 20.97827148 C74.98537935 32.68299889 74.88108986 44.33451237 74.9375 56.0625 C74.94253273 57.91210814 74.94709245 59.76171763 74.95117188 61.61132812 C74.96115611 66.07428097 74.98075389 70.53703985 75 75 C81.27 75 87.54 75 94 75 C94 51.57 94 28.14 94 4 C84.1 4 74.2 4 64 4 C62.87136439 8.22193319 61.74405221 12.44417 60.62060547 16.66748047 C60.19817747 18.25515833 59.7753088 19.84271899 59.35205078 21.43017578 C58.69110783 23.91127647 58.03280022 26.39306445 57.375 28.875 C57.16915283 29.64626221 56.96330566 30.41752441 56.7512207 31.2121582 C53.75798791 41.4598254 53.75798791 41.4598254 53 52 C51.35 52 49.7 52 48 52 C47.85304688 51.08734375 47.85304688 51.08734375 47.703125 50.15625 C46.38794323 42.44656377 44.53651099 34.90592416 42.59277344 27.3359375 C41.93606862 24.74806612 41.29874328 22.15585848 40.6640625 19.5625 C40.43952393 18.64911865 40.21498535 17.7357373 39.98364258 16.79467773 C39.54099523 14.99268919 39.10067553 13.19012706 38.6628418 11.38696289 C38.35987183 10.1609436 38.35987183 10.1609436 38.05078125 8.91015625 C37.87200439 8.17933838 37.69322754 7.44852051 37.5090332 6.69555664 C37.14086074 4.98288562 37.14086074 4.98288562 36 4 C25.44 4 14.88 4 4 4 Z " fill="#FEEDF3" transform="translate(362,212)"/>
<path d="M0 0 C7.59 0 15.18 0 23 0 C23 18.15 23 36.3 23 55 C32.9 55 42.8 55 53 55 C53 61.6 53 68.2 53 75 C35.51 75 18.02 75 0 75 C0 50.25 0 25.5 0 0 Z " fill="#FEFDFD" transform="translate(877,102)"/>
<path d="M0 0 C6.6 0 13.2 0 20 0 C22.80662012 6.73588829 25.31647793 13.5598606 27.75 20.4375 C28.06783447 21.32598633 28.38566895 22.21447266 28.71313477 23.12988281 C29.00889404 23.97260742 29.30465332 24.81533203 29.609375 25.68359375 C30.0110791 26.82139282 30.0110791 26.82139282 30.42089844 27.98217773 C31 30 31 30 31 33 C33.42605319 33.01873529 33.42605319 33.01873529 36 32 C37.70457777 29.09431406 37.70457777 29.09431406 38.859375 25.41015625 C39.09408508 24.7504332 39.32879517 24.09071014 39.57061768 23.41099548 C40.31655898 21.30107527 41.03360601 19.18261299 41.75 17.0625 C42.24678566 15.63800354 42.74546212 14.21416499 43.24609375 12.79101562 C44.1615089 10.18609899 45.06309131 7.57793948 45.95605469 4.96508789 C47 2 47 2 48 0 C54.6 0 61.2 0 68 0 C65.73426845 5.66432887 63.05568605 11.03526807 60.32113647 16.48452759 C59.36485899 18.39526272 58.41684456 20.30993169 57.4699707 22.2253418 C52.19355609 32.8526012 52.19355609 32.8526012 49.33203125 37.37109375 C42.59162935 48.08461575 42.82786049 58.59519628 43 71 C37.06 71 31.12 71 25 71 C25.09023438 69.72511719 25.18046875 68.45023437 25.2734375 67.13671875 C25.81055788 50.64167414 19.9635298 39.22489424 11.83154297 25.18212891 C9.14558338 20.5155337 6.63239454 15.76409613 4.125 11 C3.4918689 9.83464722 3.4918689 9.83464722 2.84594727 8.64575195 C0 3.33851017 0 3.33851017 0 0 Z " fill="#F61469" transform="translate(645,216)"/>
<path d="M0 0 C19.14 0 38.28 0 58 0 C58 5.61 58 11.22 58 17 C51.4 17 44.8 17 38 17 C38 34.82 38 52.64 38 71 C32.06 71 26.12 71 20 71 C20 53.18 20 35.36 20 17 C13.4 17 6.8 17 0 17 C0 11.39 0 5.78 0 0 Z " fill="#F61369" transform="translate(581,216)"/>
<path d="M0 0 C11.55 0 23.1 0 35 0 C36.7325 3.75375 38.465 7.5075 40.25 11.375 C40.78786133 12.53692871 41.32572266 13.69885742 41.87988281 14.89599609 C42.31655273 15.84555176 42.75322266 16.79510742 43.203125 17.7734375 C43.64301758 18.72653809 44.08291016 19.67963867 44.53613281 20.66162109 C46.4656261 25.06186979 48.21557957 29.53894893 50 34 C50.33 22.78 50.66 11.56 51 0 C59.25 0 67.5 0 76 0 C76 26.07 76 52.14 76 79 C65.11 79 54.22 79 43 79 C36.24453694 65.48907388 36.24453694 65.48907388 34.296875 60.7890625 C33.8740625 59.77199219 33.45125 58.75492187 33.015625 57.70703125 C32.59796875 56.68996094 32.1803125 55.67289062 31.75 54.625 C31.316875 53.58472656 30.88375 52.54445313 30.4375 51.47265625 C28.45076453 46.67137887 26.64639676 41.93919028 25 37 C25 50.86 25 64.72 25 79 C16.75 79 8.5 79 0 79 C0 52.93 0 26.86 0 0 Z M4 4 C4 27.43 4 50.86 4 75 C9.28 75 14.56 75 20 75 C20.02497634 69.25659491 20.04298902 63.5132224 20.05493164 57.76977539 C20.05991766 55.82152759 20.06670888 53.87328345 20.07543945 51.92504883 C20.12210705 41.23267906 20.11012883 30.64697405 19 20 C20.65 20 22.3 20 24 20 C24.17015625 20.75023437 24.3403125 21.50046875 24.515625 22.2734375 C24.75796875 23.29695313 25.0003125 24.32046875 25.25 25.375 C25.48203125 26.37273437 25.7140625 27.37046875 25.953125 28.3984375 C28.62871762 37.60327481 32.82135399 46.37737882 36.5625 55.1875 C37.04396484 56.32380859 37.52542969 57.46011719 38.02148438 58.63085938 C40.33655055 64.09212277 42.66337759 69.54788105 45 75 C53.91 75 62.82 75 72 75 C72 51.57 72 28.14 72 4 C66.39 4 60.78 4 55 4 C54.88736223 21.03333368 55.06331224 37.99014887 56 55 C54.35 55 52.7 55 51 55 C50.89768066 54.32267822 50.79536133 53.64535645 50.68994141 52.94750977 C49.59073224 46.26132965 47.87496922 40.2245872 45.375 33.9375 C44.85474243 32.60090332 44.85474243 32.60090332 44.32397461 31.23730469 C39.63381292 16.70061238 39.63381292 16.70061238 32 4 C22.76 4 13.52 4 4 4 Z " fill="#FEF1F6" transform="translate(466,212)"/>
<path d="M0 0 C11.55 0 23.1 0 35 0 C39.31022901 8.62045802 43.39571439 16.97030037 46.9375 25.875 C48.278125 29.21625 49.61875 32.5575 51 36 C51.33 24.12 51.66 12.24 52 0 C59.92 0 67.84 0 76 0 C76 26.07 76 52.14 76 79 C65.11 79 54.22 79 43 79 C40.958125 74.50375 38.91625 70.0075 36.8125 65.375 C36.17932861 63.98845215 35.54615723 62.6019043 34.89379883 61.17333984 C34.37841553 60.03074707 33.86303223 58.8881543 33.33203125 57.7109375 C32.81358643 56.56931152 32.2951416 55.42768555 31.76098633 54.25146484 C29.27823682 48.25748176 27.18209182 42.10985709 25 36 C25 50.19 25 64.38 25 79 C16.75 79 8.5 79 0 79 C0 52.93 0 26.86 0 0 Z M4 4 C4 27.43 4 50.86 4 75 C9.61 75 15.22 75 21 75 C21.25683555 48.4791425 21.25683555 48.4791425 20 22 C21.32 21.67 22.64 21.34 24 21 C24.34289062 22.1446875 24.68578125 23.289375 25.0390625 24.46875 C28.75437026 36.40187709 33.34282493 47.82463681 38.375 59.25 C38.69317688 59.97388916 39.01135376 60.69777832 39.33917236 61.44360352 C41.97083285 68.72060934 41.97083285 68.72060934 46 75 C54.58 75 63.16 75 72 75 C72 51.57 72 28.14 72 4 C66.72 4 61.44 4 56 4 C55.97517068 9.97737327 55.95707891 15.95471611 55.94506836 21.93212891 C55.94005811 23.96305871 55.93324809 25.99398494 55.92456055 28.02490234 C55.91234953 30.95411057 55.90673847 33.88327085 55.90234375 36.8125 C55.89718246 37.71178223 55.89202118 38.61106445 55.88670349 39.53759766 C55.88624272 44.78569067 56.23729846 49.80624001 57 55 C55.35 55 53.7 55 52 55 C51.79697266 54.03126953 51.79697266 54.03126953 51.58984375 53.04296875 C47.66812109 35.87662584 40.34149349 19.92539358 33 4 C23.43 4 13.86 4 4 4 Z " fill="#FEF5F8" transform="translate(131,212)"/>
<path d="M0 0 C21.12 0 42.24 0 64 0 C64 7.59 64 15.18 64 23 C63 24 63 24 59.48999023 24.11352539 C57.92951578 24.11336626 56.36903607 24.10767142 54.80859375 24.09765625 C53.98875504 24.0962413 53.16891632 24.09482635 52.32423401 24.09336853 C49.69528618 24.08775289 47.06642227 24.07519779 44.4375 24.0625 C42.65950643 24.05748701 40.88151154 24.05292376 39.10351562 24.04882812 C34.73564455 24.03777839 30.36783652 24.02050331 26 24 C26 25.65 26 27.3 26 29 C37.55 29 49.1 29 61 29 C61 35.6 61 42.2 61 49 C49.45 49 37.9 49 26 49 C26 51.31 26 53.62 26 56 C38.54 56 51.08 56 64 56 C64 63.59 64 71.18 64 79 C42.88 79 21.76 79 0 79 C0 52.93 0 26.86 0 0 Z M4 4 C4 27.43 4 50.86 4 75 C22.15 75 40.3 75 59 75 C59 70.05 59 65.1 59 60 C46.79 60 34.58 60 22 60 C22 55.05 22 50.1 22 45 C33.55 45 45.1 45 57 45 C57 41.37 57 37.74 57 34 C45.45 34 33.9 34 22 34 C22 29.05 22 24.1 22 19 C34.54 19 47.08 19 60 19 C60 14.05 60 9.1 60 4 C41.52 4 23.04 4 4 4 Z " fill="#FEE7F0" transform="translate(293,212)"/>
<path d="M0 0 C7.59 0 15.18 0 23 0 C23 24.75 23 49.5 23 75 C15.41 75 7.82 75 0 75 C0 50.25 0 25.5 0 0 Z " fill="#FEF9FB" transform="translate(100,326)"/>
<path d="M0 0 C7.59 0 15.18 0 23 0 C23 24.75 23 49.5 23 75 C15.41 75 7.82 75 0 75 C0 50.25 0 25.5 0 0 Z " fill="#FEFCFD" transform="translate(605,102)"/>
<path d="M0 0 C6.71104757 3.87175821 12.00056484 8.2136885 14.25 15.875 C15.52431489 23.89356637 13.82630013 30.21527903 9.25 36.875 C5.16918201 41.55000303 -0.19598634 44.43872886 -6.359375 45.1953125 C-12.68646098 45.45748457 -17.63290566 44.73980965 -22.75 40.875 C-28.98919648 35.07969892 -31.73686541 30.05072269 -32.125 21.5 C-31.96605368 14.98320074 -30.3690479 10.64167691 -25.87890625 5.8984375 C-18.12167256 -1.228246 -10.22461862 -3.06738559 0 0 Z " fill="#F6357E" transform="translate(436.75,1002.125)"/>
<path d="M0 0 C4.93699866 4.50442354 8.53058002 9.04268042 9.3359375 15.83203125 C9.43943785 23.72910785 8.66094846 29.14033618 3.12890625 34.97265625 C-3.26391613 40.85791995 -8.32307018 42.49609036 -17 42.3046875 C-23.53023311 41.6414607 -27.46450398 38.85247212 -31.875 34.125 C-36.29298303 28.65032399 -37.54961096 23.62892226 -37.37109375 16.65625 C-36.4393066 9.98661567 -33.32345904 4.66029775 -28.0625 0.5 C-19.04551888 -5.455245 -9.16396509 -5.99246533 0 0 Z " fill="#F7357E" transform="translate(980,417)"/>
<path d="M0 0 C4.75389107 2.61604657 8.44795424 6.58340848 10.875 11.4375 C11.55634836 18.69776941 11.68394353 25.58548985 6.875 31.4375 C2.57387413 35.32113509 -2.0492754 37.24366692 -7.828125 37.5625 C-13.81698686 37.23657554 -18.47405741 35.60045536 -22.5625 31.125 C-26.38341389 26.05514473 -27.66967274 21.0412879 -27.5 14.7421875 C-26.5643715 8.99197069 -23.07534925 4.89022694 -18.5 1.5 C-12.44192372 -2.20215773 -6.5014187 -2.92002299 0 0 Z " fill="#F6357E" transform="translate(973.125,483.5625)"/>
<path d="M0 0 C7.13625 -0.0825 14.2725 -0.165 21.625 -0.25 C23.84686035 -0.28641602 26.0687207 -0.32283203 28.35791016 -0.36035156 C41.30333965 -0.4841262 54.87411984 -0.56163662 65.3203125 8.29296875 C74.03687267 17.15142641 76.17734975 25.71500043 76.1875 37.875 C76.19974609 38.63941406 76.21199219 39.40382812 76.22460938 40.19140625 C76.24977398 50.07270754 73.63876193 59.65189017 67.05859375 67.23828125 C57.05860722 76.737374 46.37134882 79.1738103 33.0078125 79.09765625 C32.16855225 79.09664917 31.32929199 79.09564209 30.46459961 79.09460449 C27.35138569 79.08940127 24.23819137 79.07544014 21.125 79.0625 C14.15375 79.041875 7.1825 79.02125 0 79 C0 52.93 0 26.86 0 0 Z M4 4 C4 27.43 4 50.86 4 75 C13.343125 75.0928125 13.343125 75.0928125 22.875 75.1875 C24.82003418 75.21481201 26.76506836 75.24212402 28.76904297 75.27026367 C41.75050071 75.37722914 53.03101379 74.45692284 62.9453125 65.1796875 C71.34170023 56.2211985 72.2653952 46.40977152 72.15234375 34.4765625 C71.74592412 25.20185806 69.22155119 17.8806548 62.5 11.3125 C51.22966559 2.37156393 37.85126398 3.51226716 24.25 3.75 C17.5675 3.8325 10.885 3.915 4 4 Z " fill="#FEF1F6" transform="translate(213,212)"/>
<path d="M0 0 C3.71722193 2.71991849 6.02223129 5.72814275 7.15625 10.234375 C8.40491137 18.35067391 8.35824996 26.68137506 3.6875 33.6875 C-0.15658228 37.64464353 -3.34847839 38.2042385 -8.8125 38.3125 C-15.99501534 38.1756135 -15.99501534 38.1756135 -19.0625 35.875 C-25.09307114 28.25743646 -25.4182805 20.33016482 -24.4375 10.875 C-23.19895985 6.32668872 -21.22748325 3.64571537 -17.875 0.375 C-11.93639453 -2.21639148 -6.11424983 -2.00102722 0 0 Z " fill="#F61469" transform="translate(288.4375,121.125)"/>
<path d="M0 0 C3.28679193 2.26945157 5.86457693 4.63769003 7.2109375 8.48828125 C8.47993037 15.61140159 9.01685073 24.98204579 5.9375 31.625 C2.96418113 35.72335844 0.57444163 37.49417346 -4.4609375 38.31640625 C-10.95352533 38.43206993 -15.29609951 38.31332123 -20.10546875 33.7109375 C-23.40249146 28.78062046 -23.71462568 23.58484395 -23.6875 17.8125 C-23.71166992 16.78382813 -23.71166992 16.78382813 -23.73632812 15.734375 C-23.74193767 9.85556952 -22.19459091 5.91640199 -18.375 1.5 C-13.3861623 -2.70933181 -5.83431948 -2.05281611 0 0 Z " fill="#F61268" transform="translate(681.375,121.1875)"/>
<path d="M0 0 C8.58 0 17.16 0 26 0 C26 26.07 26 52.14 26 79 C17.42 79 8.84 79 0 79 C0 52.93 0 26.86 0 0 Z M4 4 C4 27.43 4 50.86 4 75 C9.94 75 15.88 75 22 75 C22 51.57 22 28.14 22 4 C16.06 4 10.12 4 4 4 Z " fill="#FEF7FA" transform="translate(548,212)"/>
<path d="M0 0 C8.58 0 17.16 0 26 0 C26 26.07 26 52.14 26 79 C17.42 79 8.84 79 0 79 C0 52.93 0 26.86 0 0 Z M4 4 C4 27.43 4 50.86 4 75 C9.94 75 15.88 75 22 75 C22 51.57 22 28.14 22 4 C16.06 4 10.12 4 4 4 Z " fill="#FEF2F6" transform="translate(99,212)"/>
<path d="M0 0 C16 0 16 0 21 4 C24.70942573 9.3071603 23.42376627 17.09724938 22.7578125 23.23046875 C22.08282845 26.35054809 20.7106076 28.38861265 18.8125 30.9375 C15 33 15 33 0 33 C0 22.11 0 11.22 0 0 Z " fill="#F61268" transform="translate(240,235)"/>
<path d="M0 0 C4.03873187 2.01936594 6.63798318 4.17514321 9 8 C9.46875 10.8046875 9.46875 10.8046875 9.5 13.875 C9.5309375 14.88304687 9.561875 15.89109375 9.59375 16.9296875 C8.8185847 20.93810807 7.31897137 23.65150524 4 26 C0.96751475 26.85352864 -1.86695868 26.84154991 -5 26.75 C-6.19109375 26.78480469 -6.19109375 26.78480469 -7.40625 26.8203125 C-13.04939244 26.76388108 -13.04939244 26.76388108 -15.640625 24.68164062 C-19.57428292 20.04150679 -20.40063981 17.00959722 -20 11 C-16.41251244 1.03475677 -9.98620581 -1.61978636 0 0 Z " fill="#F6357E" transform="translate(458,1054)"/>
<path d="M0 0 C21.68067227 0 21.68067227 0 26.54296875 4.39453125 C31.98812256 10.41928127 31.41669719 17.39007194 31.28125 25.0625 C30.83305659 31.33720776 29.11523076 34.82760084 24.6875 39.375 C16.56065572 44.28890585 9.66139411 43 0 43 C0 28.81 0 14.62 0 0 Z M4 5 C4 15.89 4 26.78 4 38 C17.52358059 39.18954646 17.52358059 39.18954646 22.8125 35.9375 C27.87832965 29.13481448 27.87991661 21.24789303 27 13 C25.55961505 9.18262511 23.40281732 7.26854488 20 5 C14.72 5 9.44 5 4 5 Z " fill="#FEE8F0" transform="translate(236,230)"/>
<path d="M0 0 C13.48539786 -0.40864842 13.48539786 -0.40864842 18 3 C19.7196266 6.4392532 19.38219964 10.23164562 19 14 C17.27310955 17.28931514 16.5579199 17.8140267 13 19 C8.66328697 19.13501597 4.33988266 19.04296914 0 19 C0 12.73 0 6.46 0 0 Z " fill="#F6156A" transform="translate(123,121)"/>
<path d="M0 0 C2.371875 -0.103125 4.74375 -0.20625 7.1875 -0.3125 C7.92508545 -0.35802002 8.6626709 -0.40354004 9.42260742 -0.45043945 C13.29191095 -0.53143095 14.87661136 -0.09596894 17.953125 2.296875 C20 5 20 5 20.5625 8.5625 C19.8949566 12.64193188 19.31095374 13.59629973 16 16 C13.07545478 16.29362904 10.64493292 16.38195943 7.75 16.25 C5.1925 16.1675 2.635 16.085 0 16 C0 10.72 0 5.44 0 0 Z " fill="#F61469" transform="translate(390,345)"/>
<path d="M0 0 C2.371875 -0.103125 4.74375 -0.20625 7.1875 -0.3125 C7.92508545 -0.35802002 8.6626709 -0.40354004 9.42260742 -0.45043945 C13.31720881 -0.53196048 14.87233748 -0.10081286 17.953125 2.33203125 C20 5 20 5 20.5625 8 C19.84475988 11.82794733 18.84096995 13.32904085 16 16 C12.99011679 16.37774639 10.7166237 16.48153413 7.75 16.3125 C5.1925 16.209375 2.635 16.10625 0 16 C0 10.72 0 5.44 0 0 Z " fill="#F61369" transform="translate(194,121)"/>
<path d="M0 0 C0.99 0 1.98 0 3 0 C3.26554688 1.134375 3.53109375 2.26875 3.8046875 3.4375 C4.16142786 4.95834048 4.51820042 6.47917341 4.875 8 C5.04902344 8.74378906 5.22304688 9.48757812 5.40234375 10.25390625 C6.55902782 15.18052359 7.76213258 20.09313816 9 25 C3.72 25 -1.56 25 -7 25 C-5.1413291 16.45011388 -2.92653277 8.24480043 0 0 Z " fill="#F6196D" transform="translate(833,122)"/>
<path d="M0 0 C0.99 0 1.98 0 3 0 C4.00868917 3.41416247 5.00542321 6.83170229 6 10.25 C6.28617187 11.21808594 6.57234375 12.18617188 6.8671875 13.18359375 C7.13789063 14.11816406 7.40859375 15.05273438 7.6875 16.015625 C8.06455078 17.30388184 8.06455078 17.30388184 8.44921875 18.61816406 C9 21 9 21 9 25 C4.05 25 -0.9 25 -6 25 C-5.37940856 21.27645133 -4.77136692 17.86204026 -3.80859375 14.2578125 C-3.58623047 13.41992188 -3.36386719 12.58203125 -3.13476562 11.71875 C-2.90466797 10.8628125 -2.67457031 10.006875 -2.4375 9.125 C-2.20353516 8.24585938 -1.96957031 7.36671875 -1.72851562 6.4609375 C-1.15481145 4.30661979 -0.57857836 2.1530128 0 0 Z " fill="#F6176B" transform="translate(473,346)"/>
</svg>
