<?xml version="1.0" encoding="UTF-8"?>
<svg version="1.1" xmlns="http://www.w3.org/2000/svg" width="300" height="160">
<path d="M0 0 C14.6334375 -0.12375 14.6334375 -0.12375 29.5625 -0.25 C32.61056885 -0.28641602 35.6586377 -0.32283203 38.79907227 -0.36035156 C41.26317647 -0.37205339 43.72728852 -0.38224165 46.19140625 -0.390625 C48.05194641 -0.4213208 48.05194641 -0.4213208 49.95007324 -0.45263672 C61.96647474 -0.45733384 76.50366447 1.35418433 85.625 10 C92.45386419 17.29825397 93.62703256 26.08692472 93.54321289 35.71557617 C93.18573121 44.00265159 90.51725825 50.70542027 84.6875 56.6875 C83.3571875 57.8321875 83.3571875 57.8321875 82 59 C82.86625 59.639375 83.7325 60.27875 84.625 60.9375 C95.95438445 70.44561225 97.59688408 84.30150372 99.6875 98.0625 C99.91400526 99.51508458 100.14121339 100.96755974 100.36914062 102.41992188 C100.9208658 105.94539056 101.46307734 109.47224283 102 113 C96.74894558 113.02464928 91.49792455 113.04283568 86.24682617 113.05493164 C84.45905979 113.05997218 82.67129755 113.06680454 80.88354492 113.07543945 C78.31948832 113.0875173 75.75548603 113.09323094 73.19140625 113.09765625 C71.98515343 113.10539818 71.98515343 113.10539818 70.75453186 113.11329651 C68.83598285 113.11349215 66.91754632 113.06201983 65 113 C63.33371162 111.33371162 63.83199165 109.2931325 63.7890625 107.00390625 C63.76070312 105.96943359 63.73234375 104.93496094 63.703125 103.86914062 C63.65187592 101.70002343 63.60737374 99.53073411 63.5703125 97.36132812 C63.37439735 90.73694728 63.02791558 84.02337375 60 78 C55.45389583 73.9436631 50.91545015 73.78295372 45.0625 73.5 C40.90778642 73.29806073 37.06218323 73.01554581 33 72 C33 85.53 33 99.06 33 113 C22.11 113 11.22 113 0 113 C0 75.71 0 38.42 0 0 Z M33 24 C33 31.59 33 39.18 33 47 C37.7953125 47.0928125 37.7953125 47.0928125 42.6875 47.1875 C43.68612061 47.21481201 44.68474121 47.24212402 45.71362305 47.27026367 C50.63613361 47.31638896 54.01918729 47.24479764 58 44 C60.96543517 40.92865643 61.7402869 38.24198067 62 34 C60.94960638 29.98940618 59.14469805 27.66822865 56 25 C53.11734851 24.03911617 51.32337729 23.88329059 48.33203125 23.90234375 C47.1251062 23.90609009 47.1251062 23.90609009 45.89379883 23.90991211 C44.87697021 23.91901611 43.8601416 23.92812012 42.8125 23.9375 C39.574375 23.958125 36.33625 23.97875 33 24 Z " fill="#803E97" transform="translate(102,2)"/>
<path d="M0 0 C1.17691406 -0.02835937 2.35382813 -0.05671875 3.56640625 -0.0859375 C15.45642204 -0.11209815 26.30554649 3.3263646 35.125 11.5 C35.67800781 12.01175781 36.23101562 12.52351562 36.80078125 13.05078125 C43.23168488 19.73700611 45.125 27.41688486 45.125 36.5 C34.895 36.5 24.665 36.5 14.125 36.5 C13.135 34.19 12.145 31.88 11.125 29.5 C6.62317462 25.9885762 2.93882947 24.77262461 -2.78125 25.046875 C-6.35528356 25.82035988 -7.89703795 27.53305693 -9.875 30.5 C-10.52960868 33.14807135 -10.52960868 33.14807135 -8.875 35.5 C-3.16069093 38.88625723 2.99281422 40.30820614 9.375 41.9375 C36.08678405 48.77038525 36.08678405 48.77038525 43.81640625 59.9453125 C45.03095814 62.09759533 46.11883148 64.24431058 47.125 66.5 C47.455 67.16 47.785 67.82 48.125 68.5 C49.12340842 79.30808709 50.18802383 91.61746184 43.125 100.5 C42.48175781 101.36753906 41.83851563 102.23507813 41.17578125 103.12890625 C34.33955935 111.5606557 25.78676268 115.72866802 15.125 117.5 C10.85075541 117.80306644 6.59614859 117.82478815 2.3125 117.8125 C0.64477539 117.83666992 0.64477539 117.83666992 -1.05664062 117.86132812 C-12.38253158 117.86795533 -25.33478728 115.70873995 -33.87890625 107.59765625 C-41.21348714 98.8373469 -44.62957904 88.83398608 -44.875 77.5 C-34.15899677 77.37174996 -23.562163 77.70414744 -12.875 78.5 C-12.59269531 79.58667969 -12.31039062 80.67335938 -12.01953125 81.79296875 C-10.44168504 86.90346724 -8.29974415 90.01821191 -3.625 92.875 C1.43825643 94.0257401 6.15026854 94.31564995 11 92.3125 C13.50685822 90.1742974 14.84838897 88.54968191 16.125 85.5 C16.125 81.82102446 15.69177918 80.14234974 13.25 77.375 C5.96132385 73.00179431 -2.21200933 71.10078726 -10.375 69 C-33.9046228 62.90363649 -33.9046228 62.90363649 -40.18359375 53.55078125 C-45.42278934 43.7824642 -45.88128209 34.0592145 -43.05078125 23.39453125 C-40.54343531 16.05088166 -37.44233482 11.15168285 -30.8125 6.875 C-29.95527344 6.30523437 -29.09804687 5.73546875 -28.21484375 5.1484375 C-19.09325686 0.64632093 -10.0481209 -0.02186751 0 0 Z " fill="#949698" transform="translate(251.875,-0.5)"/>
<path d="M0 0 C9.85875 -0.061875 19.7175 -0.12375 29.875 -0.1875 C32.96858887 -0.21481201 36.06217773 -0.24212402 39.24951172 -0.27026367 C41.72623302 -0.27903292 44.20295867 -0.28667582 46.6796875 -0.29296875 C47.94562744 -0.30831665 49.21156738 -0.32366455 50.51586914 -0.33947754 C63.12889317 -0.34317348 73.04299064 3.00373831 83.6875 9.6875 C91.83562179 17.83562179 96.03479884 26.3481013 96.4375 37.8125 C96.15601717 48.27240193 93.27964568 56.82847088 86.40625 64.8046875 C75.3600106 74.88258773 62.0627788 75.29066868 48 75.125 C43.05 75.08375 38.1 75.0425 33 75 C33 86.88 33 98.76 33 111 C22.11 111 11.22 111 0 111 C0 74.37 0 37.74 0 0 Z M30 24 C30 31.59 30 39.18 30 47 C34.7953125 47.0928125 34.7953125 47.0928125 39.6875 47.1875 C40.68612061 47.21481201 41.68474121 47.24212402 42.71362305 47.27026367 C49.19979824 47.33104093 52.57549221 46.35898055 57.3125 41.75 C59.55701351 38.09227429 59.72952196 36.23122736 59 32 C56.58483937 28.18419763 54.33011002 25.44337001 50 24 C48.44578271 23.91893314 46.88832973 23.89243102 45.33203125 23.90234375 C44.1251062 23.90609009 44.1251062 23.90609009 42.89379883 23.90991211 C41.87697021 23.91901611 40.8601416 23.92812012 39.8125 23.9375 C36.574375 23.958125 33.33625 23.97875 30 24 Z " fill="#9E72B1" transform="translate(2,2)"/>
<path d="M0 0 C10.71600323 -0.12825004 21.312837 0.20414744 32 1 C32.28230469 2.08667969 32.56460938 3.17335938 32.85546875 4.29296875 C34.43331496 9.40346724 36.57525585 12.51821191 41.25 15.375 C46.31325643 16.5257401 51.02526854 16.81564995 55.875 14.8125 C59.16469438 12.00658421 60.64668008 9.05995977 62 5 C65.71710317 6.35643702 68.8054197 8.04660225 72.08203125 10.2578125 C73.01337891 10.88300781 73.94472656 11.50820312 74.90429688 12.15234375 C75.86400391 12.80332031 76.82371094 13.45429687 77.8125 14.125 C78.79154297 14.78371094 79.77058594 15.44242188 80.77929688 16.12109375 C83.18903347 17.74325789 85.59578494 19.36966846 88 21 C85.1539358 28.40750203 80.74476265 32.43085133 73.5625 35.8125 C64.70319754 39.68101807 56.74989393 40.33993085 47.1875 40.3125 C45.51977539 40.33666992 45.51977539 40.33666992 43.81835938 40.36132812 C32.49246842 40.36795533 19.54021272 38.20873995 10.99609375 30.09765625 C3.66151286 21.3373469 0.24542096 11.33398608 0 0 Z " fill="#767A7C" transform="translate(207,77)"/>
<path d="M0 0 C7.68792275 -0.08435392 15.37412702 -0.1644325 23.0621109 -0.20700073 C26.64374505 -0.2279478 30.22498805 -0.25583967 33.80639648 -0.30175781 C37.26888219 -0.34586321 40.73099356 -0.3692699 44.19373894 -0.37950897 C46.12933091 -0.39027958 48.06477646 -0.4213964 50.00013733 -0.45318604 C62.00005901 -0.4561574 76.5186003 1.36834152 85.625 10 C90.90479658 15.50222704 93.12658019 22.48223741 93 30 C85.42151693 25.207008 77.89241359 20.34153416 70.39135742 15.4284668 C68.67219838 14.30247798 66.95236366 13.17752711 65.23242188 12.05273438 C56.0913258 6.0707328 56.0913258 6.0707328 52.94458008 3.63354492 C50.17155628 1.67575555 50.17155628 1.67575555 47.4621582 2.52954102 C44.7845378 4.12867911 42.17670091 5.76053704 39.60546875 7.52734375 C38.57446045 8.23246094 37.54345215 8.93757812 36.48120117 9.6640625 C35.94288666 10.03563477 35.40457214 10.40720703 34.84994507 10.79003906 C33.17428744 11.94661964 31.49454057 13.09703079 29.8137207 14.24609375 C24.83805242 17.65155452 19.87791101 21.07868191 14.9375 24.53515625 C14.20764893 25.04377197 13.47779785 25.5523877 12.72583008 26.07641602 C11.4039738 26.99960969 10.08584652 27.92817481 8.7722168 28.86303711 C5.74113915 30.98197518 3.65455776 32.08636056 0 33 C0 22.11 0 11.22 0 0 Z " fill="#9E72B1" transform="translate(102,2)"/>
<path d="M0 0 C0.80852443 8.89376873 -2.31461977 17.21269356 -7.5 24.375 C-13.7137269 31.58570547 -22.68039122 35.51156163 -32 37 C-35.83871907 37.22082356 -39.65667608 37.19056852 -43.5 37.125 C-44.51320313 37.11597656 -45.52640625 37.10695312 -46.5703125 37.09765625 C-49.04712801 37.07429007 -51.52343379 37.04153168 -54 37 C-49.30093515 31.68399009 -43.47394927 28.16010278 -37.5625 24.3125 C-30.65455719 19.76656116 -23.76129981 15.22552481 -17.0625 10.375 C-13.31747399 7.66797265 -9.57081711 4.97435904 -5.75 2.375 C-5.06421875 1.90835938 -4.3784375 1.44171875 -3.671875 0.9609375 C-2 0 -2 0 0 0 Z " fill="#803F97" transform="translate(98,40)"/>
<path d="M0 0 C0 9.9 0 19.8 0 30 C-10.89 30 -21.78 30 -33 30 C-33 21 -33 21 -31.296875 19.08203125 C-30.45640625 18.66308594 -29.6159375 18.24414062 -28.75 17.8125 C-21.69240998 13.92758806 -15.27532644 9.31414261 -8.73144531 4.62231445 C-7.47025879 3.72838989 -7.47025879 3.72838989 -6.18359375 2.81640625 C-5.42618896 2.27443604 -4.66878418 1.73246582 -3.88842773 1.17407227 C-2 0 -2 0 0 0 Z " fill="#803F97" transform="translate(35,83)"/>
<path d="M0 0 C1.9375 1.6875 1.9375 1.6875 3 4 C3.1875 6.75 3.1875 6.75 3 9 C0.03 9 -2.94 9 -6 9 C-6 9.99 -6 10.98 -6 12 C-4.35 12 -2.7 12 -1 12 C-1 11.34 -1 10.68 -1 10 C0.258125 9.95875 1.51625 9.9175 2.8125 9.875 C3.52019531 9.85179687 4.22789062 9.82859375 4.95703125 9.8046875 C7 10 7 10 10 12 C10 11.34 10 10.68 10 10 C8.02 9.01 6.04 8.02 4 7 C3.875 4.625 3.875 4.625 4 2 C6 0 6 0 9.625 -0.125 C11.295625 -0.063125 11.295625 -0.063125 13 0 C13.66 1.65 14.32 3.3 15 5 C12.69 4.67 10.38 4.34 8 4 C9.4540625 4.6496875 9.4540625 4.6496875 10.9375 5.3125 C14 7 14 7 15 10 C17.76264289 10.59732819 20.16032769 11 23 11 C20.69 9.68 18.38 8.36 16 7 C15.875 4.625 15.875 4.625 16 2 C18 0 18 0 21.5 -0.25 C25 0 25 0 27 2 C27 2.99 27 3.98 27 5 C22.25 4.125 22.25 4.125 20 3 C20.33 3.66 20.66 4.32 21 5 C21.99 5.28875 22.98 5.5775 24 5.875 C27 7 27 7 28 8.875 C28 11.42047902 27.30913891 12.84377121 26 15 C24.741875 15.04125 23.48375 15.0825 22.1875 15.125 C21.47980469 15.14820313 20.77210938 15.17140625 20.04296875 15.1953125 C18 15 18 15 15 13 C14.34 13.66 13.68 14.32 13 15 C6.67741935 15.33870968 6.67741935 15.33870968 4 14 C4 13.34 4 12.68 4 12 C3.484375 12.495 2.96875 12.99 2.4375 13.5 C-0.88796936 15.54644269 -3.16306413 15.41857482 -7 15 C-9.1754786 13.4023044 -9.90443826 12.51715766 -10.3984375 9.84375 C-10.39070312 9.0703125 -10.38296875 8.296875 -10.375 7.5 C-10.38273438 6.7265625 -10.39046875 5.953125 -10.3984375 5.15625 C-9.33682057 -0.58897105 -5.09746756 -0.63718345 0 0 Z M-5 3 C-5.33 3.99 -5.66 4.98 -6 6 C-4.35 6 -2.7 6 -1 6 C-1.33 5.01 -1.66 4.02 -2 3 C-2.99 3 -3.98 3 -5 3 Z " fill="#803E97" transform="translate(170,140)"/>
<path d="M0 0 C3.16374746 0.62397757 5.35964239 1.69867221 8.03417969 3.484375 C8.81468689 4.00161133 9.59519409 4.51884766 10.39935303 5.05175781 C11.23178528 5.61217773 12.06421753 6.17259766 12.921875 6.75 C13.78186096 7.32331055 14.64184692 7.89662109 15.52789307 8.48730469 C17.34188756 9.69841993 19.15400023 10.91235782 20.96435547 12.12890625 C23.74891368 13.99927033 26.539943 15.85965059 29.33203125 17.71875 C31.09153651 18.89524927 32.85066444 20.07231309 34.609375 21.25 C35.44990417 21.81041992 36.29043335 22.37083984 37.15643311 22.94824219 C37.92433167 23.46547852 38.69223022 23.98271484 39.48339844 24.515625 C40.16416443 24.97227539 40.84493042 25.42892578 41.54632568 25.89941406 C42.26589447 26.4442041 42.26589447 26.4442041 43 27 C43 27.33 43 27.66 43 28 C36.10690713 27.45304044 29.99458997 26.04012167 23.4375 23.875 C22.54353516 23.60429688 21.64957031 23.33359375 20.72851562 23.0546875 C12.80265605 20.45718561 6.57360191 16.35533856 2.5625 8.875 C1.27836729 5.96731625 0.39644778 3.17158228 0 0 Z " fill="#777B7D" transform="translate(208,42)"/>
<path d="M0 0 C3.3 0 6.6 0 10 0 C10.99 1.32 11.98 2.64 13 4 C13.33 3.34 13.66 2.68 14 2 C16.28514912 -0.28514912 16.88929768 -0.36276313 20 -0.5 C22.89384978 -0.34573227 23.72872554 -0.22888783 26 1.6875 C27.13489245 4.3119388 27.23590819 6.16910178 27 9 C22.545 9.495 22.545 9.495 18 10 C18 10.66 18 11.32 18 12 C18.7425 11.67 19.485 11.34 20.25 11 C23 10 23 10 27 10 C25.125 13.875 25.125 13.875 24 15 C16.63366337 15.47524752 16.63366337 15.47524752 14 13.5 C13.67 13.005 13.34 12.51 13 12 C12.649375 12.495 12.29875 12.99 11.9375 13.5 C9.05625711 15.73063966 6.52990974 15.19980621 3 15 C3 16.65 3 18.3 3 20 C2.01 20 1.02 20 0 20 C0 13.4 0 6.8 0 0 Z M5 3 C2.78103864 4.82471891 2.78103864 4.82471891 2.625 7.4375 C2.74530409 10.15526007 2.74530409 10.15526007 5 11.8125 C5.66 12.204375 6.32 12.59625 7 13 C9.34973818 11.10244856 9.34973818 11.10244856 9.125 7.875 C9.08375 6.92625 9.0425 5.9775 9 5 C7.68 4.34 6.36 3.68 5 3 Z M19 3 C18.01 4.485 18.01 4.485 17 6 C18.98 6 20.96 6 23 6 C22.34 5.01 21.68 4.02 21 3 C20.34 3 19.68 3 19 3 Z " fill="#803E97" transform="translate(41,140)"/>
<path d="M0 0 C0.66 0 1.32 0 2 0 C2 1.32 2 2.64 2 4 C3.98 4 5.96 4 8 4 C8.99 6.31 9.98 8.62 11 11 C12.32 8.69 13.64 6.38 15 4 C15.99 4 16.98 4 18 4 C14.88 20.12 14.88 20.12 11 24 C9.00041636 24.04080783 6.99954746 24.04254356 5 24 C5.33 23.01 5.66 22.02 6 21 C6.99 21 7.98 21 9 21 C8.41091199 18.84997829 7.8032758 16.7050308 7.1875 14.5625 C6.85105469 13.36753906 6.51460937 12.17257813 6.16796875 10.94140625 C5.78253906 9.97074219 5.39710937 9.00007812 5 8 C4.01 7.67 3.02 7.34 2 7 C2 9.97 2 12.94 2 16 C2.99 16 3.98 16 5 16 C5 16.99 5 17.98 5 19 C3.33388095 19.042721 1.66617115 19.04063832 0 19 C-1 18 -1 18 -1.09765625 15.49609375 C-1.08605469 14.48675781 -1.07445313 13.47742188 -1.0625 12.4375 C-1.05347656 11.42558594 -1.04445313 10.41367188 -1.03515625 9.37109375 C-1.02355469 8.58863281 -1.01195313 7.80617187 -1 7 C-2.98 7.33 -4.96 7.66 -7 8 C-7 11.63 -7 15.26 -7 19 C-8.32 19 -9.64 19 -11 19 C-11 14.05 -11 9.1 -11 4 C-7.7 4 -4.4 4 -1 4 C-0.67 2.68 -0.34 1.36 0 0 Z " fill="#803E97" transform="translate(80,136)"/>
<path d="M0 0 C2.95887459 -0.08069658 5.9155659 -0.14034665 8.875 -0.1875 C9.71675781 -0.21263672 10.55851562 -0.23777344 11.42578125 -0.26367188 C12.23144531 -0.27333984 13.03710938 -0.28300781 13.8671875 -0.29296875 C14.98262939 -0.31653442 14.98262939 -0.31653442 16.12060547 -0.34057617 C17.05090576 -0.17199097 17.05090576 -0.17199097 18 0 C20.35119399 3.52679099 20.21443452 5.02879485 20.125 9.1875 C20.10695313 10.27417969 20.08890625 11.36085937 20.0703125 12.48046875 C20.04710937 13.31191406 20.02390625 14.14335937 20 15 C18.68 15 17.36 15 16 15 C15.67 11.37 15.34 7.74 15 4 C14.34 4 13.68 4 13 4 C12.67 7.63 12.34 11.26 12 15 C10.68 15 9.36 15 8 15 C8 11.04 8 7.08 8 3 C7.01 3.33 6.02 3.66 5 4 C4.67 7.63 4.34 11.26 4 15 C2.68 15 1.36 15 0 15 C0 10.05 0 5.1 0 0 Z " fill="#767A7C" transform="translate(264,140)"/>
<path d="M0 0 C10.17966102 -0.48474576 10.17966102 -0.48474576 13.75 1.625 C15.41401228 4.78662333 14.92177046 6.62017497 14 10 C13.34 10 12.68 10 12 10 C13.32 13.3 14.64 16.6 16 20 C14.35 20 12.7 20 11 20 C10.5875 18.865625 10.175 17.73125 9.75 16.5625 C8.43314602 12.90456616 8.43314602 12.90456616 5.8125 12.0625 C5.214375 12.041875 4.61625 12.02125 4 12 C4 14.64 4 17.28 4 20 C2.68 20 1.36 20 0 20 C0 13.4 0 6.8 0 0 Z M4 3 C4 4.98 4 6.96 4 9 C5.98 8.67 7.96 8.34 10 8 C10 6.68 10 5.36 10 4 C7.03 3.505 7.03 3.505 4 3 Z " fill="#803E97" transform="translate(106,135)"/>
<path d="M0 0 C2.76025854 0.03680345 4.06235 0.16984298 6.28125 1.84375 C7.5 3.5 7.5 3.5 7.5 6.5 C6.18 6.5 4.86 6.5 3.5 6.5 C3.17 5.84 2.84 5.18 2.5 4.5 C1.18 4.5 -0.14 4.5 -1.5 4.5 C-1.83 5.49 -2.16 6.48 -2.5 7.5 C-1.613125 7.561875 -0.72625 7.62375 0.1875 7.6875 C4.33735563 8.70538912 5.95160952 10.10214602 8.5 13.5 C8.41985673 16.94616056 7.9443896 18.0556104 5.5 20.5 C1.14481723 21.22306123 -2.41651383 21.22232412 -6.125 18.75 C-7.5 16.5 -7.5 16.5 -7.25 14.25 C-7.0025 13.6725 -6.755 13.095 -6.5 12.5 C-5.51 12.5 -4.52 12.5 -3.5 12.5 C-1.8125 15 -1.8125 15 -0.5 17.5 C0.82 17.17 2.14 16.84 3.5 16.5 C3.5 15.51 3.5 14.52 3.5 13.5 C2.87351563 13.34144531 2.24703125 13.18289062 1.6015625 13.01953125 C-5.04079058 11.12321278 -5.04079058 11.12321278 -7.25 8.125 C-7.5 5.5 -7.5 5.5 -6.6875 2.6875 C-4.15112355 0.15112355 -3.46022467 0.11853951 0 0 Z " fill="#767A7C" transform="translate(212.5,134.5)"/>
<path d="M0 0 C1.32 0 2.64 0 4 0 C4 6.6 4 13.2 4 20 C-4.3984375 20.1953125 -4.3984375 20.1953125 -7 20 C-9 18 -9 18 -9.265625 15.46875 C-9.26046875 14.4890625 -9.2553125 13.509375 -9.25 12.5 C-9.25515625 11.5203125 -9.2603125 10.540625 -9.265625 9.53125 C-9 7 -9 7 -7 5 C-3.375 4.875 -3.375 4.875 0 5 C0 3.35 0 1.7 0 0 Z M-4 8 C-4.66 8.66 -5.32 9.32 -6 10 C-5.67673447 13.59679066 -5.67673447 13.59679066 -5 17 C-4.01 17.33 -3.02 17.66 -2 18 C0.1519437 14.77208445 0.20086443 13.71599191 0 10 C-1.32 9.34 -2.64 8.68 -4 8 Z " fill="#803E97" transform="translate(145,135)"/>
<path d="M0 0 C10.17966102 -0.48474576 10.17966102 -0.48474576 13.75 1.625 C15 4 15 4 14.9375 7.125 C14 10 14 10 11 12 C8.66800612 12.07905064 6.33167378 12.08798769 4 12 C4 14.64 4 17.28 4 20 C2.68 20 1.36 20 0 20 C0 13.4 0 6.8 0 0 Z M4 3 C4 4.98 4 6.96 4 9 C5.65 9 7.3 9 9 9 C9.66 7.68 10.32 6.36 11 5 C8.04622502 2.63019987 8.04622502 2.63019987 4 3 Z " fill="#803E97" transform="translate(1,135)"/>
<path d="M0 0 C3.5 0.4375 3.5 0.4375 5.375 1.5625 C6.90430823 4.11134706 7.17470941 6.50988473 7.5 9.4375 C4.2 9.4375 0.9 9.4375 -2.5 9.4375 C-2.17 10.0975 -1.84 10.7575 -1.5 11.4375 C0.52463255 12.08963292 0.52463255 12.08963292 2.5 12.4375 C2.5 11.7775 2.5 11.1175 2.5 10.4375 C3.82 10.4375 5.14 10.4375 6.5 10.4375 C5.625 14.3125 5.625 14.3125 4.5 15.4375 C-2.75146199 16.02229532 -2.75146199 16.02229532 -5.5 13.875 C-6.87498501 10.52347404 -6.88467994 8.02784613 -6.5 4.4375 C-4.89019549 0.74441907 -4.04233618 0.50529202 0 0 Z M-1.5 3.4375 C-1.83 4.4275 -2.16 5.4175 -2.5 6.4375 C-0.85 6.4375 0.8 6.4375 2.5 6.4375 C2.17 5.4475 1.84 4.4575 1.5 3.4375 C0.51 3.4375 -0.48 3.4375 -1.5 3.4375 Z " fill="#767A7C" transform="translate(291.5,139.5625)"/>
<path d="M0 0 C3.00722111 -0.33413568 5.10151765 -0.53346301 8 0 C10 1.6875 10 1.6875 11 4 C11.1875 6.75 11.1875 6.75 11 9 C6.545 9.495 6.545 9.495 2 10 C2 10.66 2 11.32 2 12 C2.556875 11.855625 3.11375 11.71125 3.6875 11.5625 C6.11384195 10.97230872 8.54906345 10.476571 11 10 C9.125 13.875 9.125 13.875 8 15 C2.26388889 15.27314815 2.26388889 15.27314815 0 15 C-2 13 -2 13 -2.265625 10.72265625 C-2.26046875 9.84480469 -2.2553125 8.96695313 -2.25 8.0625 C-2.25515625 7.18722656 -2.2603125 6.31195313 -2.265625 5.41015625 C-2 3 -2 3 0 0 Z M3 3 C2.01 4.485 2.01 4.485 1 6 C2.98 6 4.96 6 7 6 C6.67 5.01 6.34 4.02 6 3 C5.01 3 4.02 3 3 3 Z " fill="#803E97" transform="translate(124,140)"/>
<path d="M0 0 C1.9375 1.6875 1.9375 1.6875 3 4 C3.1875 6.75 3.1875 6.75 3 9 C-1.455 9.495 -1.455 9.495 -6 10 C-6 10.66 -6 11.32 -6 12 C-4.35 12 -2.7 12 -1 12 C-1 11.34 -1 10.68 -1 10 C0.32 10 1.64 10 3 10 C1.125 13.875 1.125 13.875 0 15 C-5.8410596 15.37086093 -5.8410596 15.37086093 -8 15 C-10.06520632 11.90219052 -10.29477024 11.0459519 -10.3125 7.5 C-10.32925781 6.7265625 -10.34601563 5.953125 -10.36328125 5.15625 C-9.39211721 -0.60807852 -5.05799286 -0.63224911 0 0 Z M-5 3 C-5.99 4.485 -5.99 4.485 -7 6 C-5.02 6 -3.04 6 -1 6 C-1.33 5.01 -1.66 4.02 -2 3 C-2.99 3 -3.98 3 -5 3 Z " fill="#767A7C" transform="translate(260,140)"/>
<path d="M0 0 C7.06292967 -0.67265997 7.06292967 -0.67265997 9.73046875 1.2421875 C11.33458209 3.46326752 11.40220479 4.77952074 11.375 7.5 C11.38273437 8.2734375 11.39046875 9.046875 11.3984375 9.84375 C10.90147746 12.53318082 10.21248363 13.41680065 8 15 C5.20118956 15.5154245 2.88240605 15.22876238 0 15 C-2 13 -2 13 -2.265625 10.72265625 C-2.26046875 9.84480469 -2.2553125 8.96695313 -2.25 8.0625 C-2.25515625 7.18722656 -2.2603125 6.31195313 -2.265625 5.41015625 C-2 3 -2 3 0 0 Z M3 3 C2.34 3.66 1.68 4.32 1 5 C1.32326553 8.59679066 1.32326553 8.59679066 2 12 C2.99 12.33 3.98 12.66 5 13 C7.41121859 11.04366025 7.41121859 11.04366025 7.125 7.375 C7.08375 6.26125 7.0425 5.1475 7 4 C5.10820797 3.3185177 5.10820797 3.3185177 3 3 Z " fill="#803E97" transform="translate(28,140)"/>
<path d="M0 0 C0.99 0 1.98 0 3 0 C3 1.65 3 3.3 3 5 C4.11375 4.95875 5.2275 4.9175 6.375 4.875 C10 5 10 5 12 7 C12.1953125 10.0390625 12.1953125 10.0390625 12.125 13.625 C12.10695312 14.81351563 12.08890625 16.00203125 12.0703125 17.2265625 C12.04710937 18.14179688 12.02390625 19.05703125 12 20 C11.01 20 10.02 20 9 20 C8.67 16.04 8.34 12.08 8 8 C6.02 8.99 6.02 8.99 4 10 C3.29823412 12.41679707 3.29823412 12.41679707 3.25 15.125 C3.19328125 16.03507812 3.1365625 16.94515625 3.078125 17.8828125 C3.03945312 18.93082031 3.03945312 18.93082031 3 20 C2.01 20 1.02 20 0 20 C0 13.4 0 6.8 0 0 Z " fill="#767A7C" transform="translate(236,135)"/>
<path d="M0 0 C1.9375 2.5 1.9375 2.5 3 5 C1.68 5.33 0.36 5.66 -1 6 C-1.33 5.34 -1.66 4.68 -2 4 C-3.32 4.33 -4.64 4.66 -6 5 C-6 7.31 -6 9.62 -6 12 C-4.02463255 11.65213292 -4.02463255 11.65213292 -2 11 C-1.67 10.34 -1.34 9.68 -1 9 C0.32 9 1.64 9 3 9 C1.125 13.875 1.125 13.875 0 15 C-6.3509145 15.47043811 -6.3509145 15.47043811 -8.703125 13.765625 C-10.33825862 11.53947923 -10.40241352 10.24135228 -10.375 7.5 C-10.38273438 6.7265625 -10.39046875 5.953125 -10.3984375 5.15625 C-9.34281371 -0.55653757 -5.08623089 -0.72660441 0 0 Z " fill="#767A7C" transform="translate(232,140)"/>
<path d="M0 0 C2.97 0 5.94 0 9 0 C8.67 1.32 8.34 2.64 8 4 C6.68 4 5.36 4 4 4 C4 7.63 4 11.26 4 15 C2.68 15 1.36 15 0 15 C0 10.05 0 5.1 0 0 Z " fill="#803E97" transform="translate(151,140)"/>
<path d="M0 0 C2.97 0 5.94 0 9 0 C8.67 1.32 8.34 2.64 8 4 C6.68 4 5.36 4 4 4 C4 7.63 4 11.26 4 15 C2.68 15 1.36 15 0 15 C0 10.05 0 5.1 0 0 Z " fill="#803E97" transform="translate(17,140)"/>
</svg>
